<svg width="122" height="103" viewBox="0 0 122 103" fill="none" xmlns="http://www.w3.org/2000/svg">
<path d="M8.65473 44.8797L3.41253 44.9534C2.43837 44.9671 1.65968 45.774 1.67328 46.7556L1.67558 46.9218C1.68919 47.9034 2.48993 48.6881 3.4641 48.6743L8.70629 48.6006C9.68045 48.5869 10.4591 47.78 10.4455 46.7984L10.4432 46.6322C10.4296 45.6506 9.62889 44.866 8.65473 44.8797Z" fill="black"/>
<path d="M119.645 18.1215C122.067 21.4049 122.621 26.297 121.306 32.7978L119.135 38.0358C116.821 41.978 113.828 45.1076 110.156 47.4246L101.193 50.7025C94.9435 50.0656 89.6481 47.3368 85.3065 42.5161L82.6916 37.5087C81.1567 31.9413 81.7981 26.9064 84.6158 22.4042L87.3457 18.9781C95.9302 13.3448 102.903 14.6405 108.264 22.8654C112.968 30.08 107.294 39.963 99.0055 39.3041C84.6651 38.184 94.6804 15.7496 102.015 30.2612C102.072 30.3693 102.163 30.4558 102.274 30.5073C102.385 30.5588 102.509 30.5725 102.629 30.5464C102.748 30.5202 102.856 30.4556 102.935 30.3625C103.014 30.2693 103.061 30.1528 103.068 30.0306C103.232 26.5825 101.96 24.271 99.2522 23.096C88.6942 18.5333 83.9908 37.311 95.1737 41.7584C104.235 45.3492 113.445 39.0406 114.629 29.6847C115.857 20.0213 111.279 12.8396 100.897 8.13973L90.5361 7.5797C85.3503 8.80958 80.9265 11.5054 77.2647 15.6673L74.7814 18.7804C71.4594 23.2717 69.941 28.5975 70.226 34.7579C70.0945 37.2616 70.3576 39.2218 71.0154 40.6383C71.6403 46.1838 72.8079 49.7911 74.5183 51.4602L80.3235 67.5859C81.694 71.7148 83.3275 75.7998 85.2243 79.8408C87.9871 85.7047 92.0327 84.7659 97.4597 84.6835C98.0407 84.6725 98.4902 84.9141 98.8081 85.4083C99.6195 86.6821 99.9868 88.1096 99.91 89.6909L99.7127 99.5574C99.625 99.9527 99.4386 100.222 99.1535 100.365C98.9123 100.474 98.6218 100.452 98.2819 100.299C95.4314 99.0358 93.8581 96.7518 93.562 93.4464C93.5519 93.3134 93.515 93.1838 93.4535 93.0655C93.392 92.9471 93.3072 92.8425 93.2043 92.7578C93.1013 92.6732 92.9823 92.6103 92.8545 92.5729C92.7266 92.5356 92.5925 92.5245 92.4602 92.5405C83.5304 93.6112 78.7776 88.3073 73.992 81.8504L47.7944 52.6461C47.5392 52.3608 47.229 52.13 46.8827 51.9675C46.5363 51.8049 46.1607 51.714 45.7785 51.7002C45.3962 51.6863 45.0151 51.7498 44.6579 51.8869C44.3006 52.024 43.9747 52.2318 43.6995 52.4979L42.4661 53.6839C42.3043 53.8402 42.1837 54.0347 42.1149 54.2502C42.046 54.4656 42.0311 54.6955 42.0714 54.9192L44.4396 68.0966C44.4745 68.3108 44.5767 68.5082 44.7313 68.6603C44.8858 68.8124 45.0848 68.9113 45.2992 68.9425C45.5137 68.9737 45.7325 68.9356 45.9239 68.8339C46.1153 68.7321 46.2693 68.572 46.3637 68.3766C47.482 66.1584 49.1375 64.5552 51.3302 63.5669C51.6553 63.4165 52.0217 63.3785 52.3725 63.4589C52.7233 63.5393 53.039 63.7336 53.2708 64.0116L60.9014 73.1698C61.3729 73.7409 61.5099 74.3832 61.3126 75.097C60.9617 76.3928 60.1175 77.5842 58.78 78.6714C56.3789 79.6157 55.3155 80.9609 55.5896 82.7069C56.4447 88.1975 56.823 93.8308 56.7243 99.6068C56.7113 100.511 56.3418 101.374 55.6955 102.009C55.0492 102.644 54.1782 103 53.2708 103L46.9557 102.967C46.4634 102.972 45.986 102.798 45.6118 102.477C45.2375 102.157 44.9916 101.712 44.9194 101.224C44.8472 100.736 44.9537 100.239 45.2192 99.8234C45.4847 99.4081 45.8912 99.103 46.3637 98.9644C50.3106 97.7455 50.7217 95.6207 49.6857 91.8157C47.8767 85.293 46.3747 78.7757 45.1796 72.2639C45.1479 72.0883 45.0651 71.9261 44.9417 71.7974C44.8183 71.6688 44.6597 71.5795 44.4858 71.5408C44.3119 71.5021 44.1305 71.5157 43.9643 71.5799C43.7981 71.644 43.6545 71.7559 43.5515 71.9015C39.5169 77.5019 35.5152 83.212 31.5463 89.032C29.2275 92.4252 29.1289 95.4066 29.1782 99.3598C29.1892 99.9418 28.8986 100.227 28.3066 100.216C19.755 100.085 24.9517 85.7212 27.5995 80.6644C31.3819 73.4663 23.669 66.8612 19.1136 62.4138C16.8003 57.7139 12.8205 55.9899 7.17423 57.2417C4.83898 56.4072 3.67685 55.0016 3.68781 53.025C3.68763 52.9003 3.7127 52.7768 3.76146 52.6624C3.81021 52.5479 3.8816 52.4449 3.97114 52.3599C4.06069 52.2748 4.16645 52.2095 4.28183 52.1681C4.3972 52.1267 4.51968 52.11 4.64162 52.119C13.6373 52.6626 14.3938 42.2031 6.63153 41.9396C4.96506 41.8847 3.3589 41.989 1.81303 42.2525C0.0259608 41.5827 -0.440003 40.0343 0.415159 37.6075C5.90793 36.4984 11.0225 36.8993 15.7587 38.81C16.2083 38.9966 16.4056 38.8484 16.3508 38.3652C15.7094 33.4073 5.85861 33.8684 1.81303 34.1814C1.15521 34.2253 0.919483 33.9343 1.10586 33.3084C1.79657 30.9145 3.21088 29.0752 5.34879 27.7904C12.5409 23.4748 19.0314 24.5675 24.8202 31.0683C26.3332 33.3743 27.3637 36.158 27.9119 39.4194C28.0106 39.9904 28.3505 40.2759 28.9315 40.2759C37.7572 40.3528 46.5336 40.3528 55.2607 40.2759C60.8192 40.2265 62.25 37.0969 62.6611 32.1554C62.7488 26.9174 63.889 22.3658 66.0817 18.5004L69.1735 12.653L78.6625 4.203C98.0462 -4.41716 111.707 0.222346 119.645 18.1215Z" fill="black"/>
</svg>
