<?xml version="1.0" encoding="UTF-8" standalone="no"?>
<!DOCTYPE svg PUBLIC "-//W3C//DTD SVG 1.1//EN" "http://www.w3.org/Graphics/SVG/1.1/DTD/svg11.dtd">
<svg xmlns="http://www.w3.org/2000/svg" version="1.1" viewBox="0.00 0.00 500.00 500.00">
<g stroke-width="2.00" fill="none" stroke-linecap="butt">
<path stroke="#011127" vector-effect="non-scaling-stroke" d="
  M 108.67 214.01
  C 118.58 178.05 140.38 147.31 171.90 127.79
  Q 220.56 97.65 279.09 108.72
  A 1.75 1.74 -77.4 0 0 281.10 107.44
  L 281.38 106.39
  A 1.59 1.58 -77.2 0 0 280.15 104.43
  Q 218.73 92.43 168.04 124.90
  C 137.62 144.38 116.08 174.00 105.84 208.74
  C 105.45 210.06 105.38 211.53 104.92 212.96
  A 0.69 0.68 -72.0 0 0 105.35 213.82
  L 107.61 214.57
  Q 108.44 214.85 108.67 214.01"
/>
<path stroke="#808080" vector-effect="non-scaling-stroke" d="
  M 110.99 248.01
  L 92.92 276.33
  Q 92.55 276.91 93.24 276.92
  L 113.87 277.04"
/>
<path stroke="#011127" vector-effect="non-scaling-stroke" d="
  M 113.87 277.04
  Q 113.17 279.12 114.09 282.64
  Q 119.59 303.75 129.90 321.23
  Q 130.26 321.84 130.87 321.48
  L 136.78 317.95
  A 1.01 1.01 0.0 0 0 137.13 316.56
  Q 124.39 295.30 120.59 270.75
  A 1.36 1.31 20.6 0 0 120.26 270.06
  L 119.08 268.77"
/>
<path stroke="#808080" vector-effect="non-scaling-stroke" d="
  M 119.08 268.77
  L 123.57 268.61"
/>
<path stroke="#011127" vector-effect="non-scaling-stroke" d="
  M 123.57 268.61
  Q 124.99 275.28 126.76 281.95
  Q 135.84 316.24 160.63 340.47
  C 202.04 380.94 265.16 387.69 314.46 357.40
  Q 314.93 357.11 314.63 356.65
  L 311.09 351.24
  A 1.54 1.54 0.0 0 0 309.01 350.76
  Q 283.53 366.07 253.50 367.39
  C 211.69 369.24 173.02 349.02 150.12 314.15
  Q 137.23 294.51 132.71 269.98
  Q 132.44 268.56 133.89 268.62
  L 135.33 268.69
  A 0.84 0.84 0.0 0 1 136.13 269.37
  Q 139.22 284.15 144.04 295.22
  C 162.71 338.09 204.52 364.51 251.55 364.01
  A 1.33 1.33 0.0 0 0 252.86 362.61
  L 252.51 355.70
  A 0.48 0.47 88.0 0 0 252.04 355.25
  Q 200.62 355.73 168.07 317.92
  Q 150.32 297.30 144.93 268.66"
/>
<path stroke="#808080" vector-effect="non-scaling-stroke" d="
  M 144.93 268.66
  L 151.53 268.75"
/>
<path stroke="#011127" vector-effect="non-scaling-stroke" d="
  M 151.53 268.75
  Q 152.61 279.69 157.95 291.02
  C 174.75 326.64 208.19 349.14 247.85 349.42
  Q 248.34 349.42 248.57 348.99
  Q 249.45 347.35 248.67 345.72
  Q 248.42 345.20 247.84 345.18
  Q 199.56 343.52 171.49 305.76
  Q 162.28 293.37 157.42 277.26"
/>
<path stroke="#808080" vector-effect="non-scaling-stroke" d="
  M 157.42 277.26
  L 165.68 277.22"
/>
<path stroke="#011127" vector-effect="non-scaling-stroke" d="
  M 165.68 277.22
  Q 176.24 307.31 202.09 323.75
  C 249.14 353.69 312.11 331.76 330.63 279.49
  Q 331.00 278.46 330.45 277.04"
/>
<path stroke="#808080" vector-effect="non-scaling-stroke" d="
  M 330.45 277.04
  L 332.67 276.98
  Q 333.17 276.96 333.18 276.46
  L 333.26 266.75"
/>
<path stroke="#011127" vector-effect="non-scaling-stroke" d="
  M 333.26 266.75
  Q 334.49 266.00 334.60 265.25
  C 336.18 253.93 337.08 238.29 332.39 227.99
  C 331.83 226.77 332.13 224.57 331.59 223.02
  Q 320.29 190.12 289.95 173.08"
/>
<path stroke="#666667" vector-effect="non-scaling-stroke" d="
  M 289.95 173.08
  Q 293.30 170.97 295.41 167.38"
/>
<path stroke="#011127" vector-effect="non-scaling-stroke" d="
  M 295.41 167.38
  C 297.79 168.88 300.64 170.17 302.76 171.69
  Q 336.34 195.77 342.92 237.07
  Q 343.00 237.57 343.44 237.82
  L 344.12 238.22"
/>
<path stroke="#808080" vector-effect="non-scaling-stroke" d="
  M 344.12 238.22
  C 340.09 247.02 345.70 253.64 354.27 255.61"
/>
<path stroke="#011127" vector-effect="non-scaling-stroke" d="
  M 354.27 255.61
  L 353.51 260.66"
/>
<path stroke="#808080" vector-effect="non-scaling-stroke" d="
  M 353.51 260.66
  L 343.60 260.68
  Q 342.98 260.68 343.13 261.28
  Q 345.08 268.93 351.26 273.10"
/>
<path stroke="#011127" vector-effect="non-scaling-stroke" d="
  M 351.26 273.10
  Q 338.32 324.20 290.90 346.32
  A 0.91 0.91 0.0 0 0 290.43 347.44
  L 292.34 352.86
  A 2.11 2.10 67.3 0 0 295.24 354.06
  Q 336.84 333.98 354.27 292.22
  Q 357.17 285.29 359.38 276.53"
/>
<path stroke="#808080" vector-effect="non-scaling-stroke" d="
  M 359.38 276.53
  L 363.02 277.34"
/>
<path stroke="#011127" vector-effect="non-scaling-stroke" d="
  M 363.02 277.34
  Q 361.03 283.35 359.00 289.18
  Q 348.54 319.27 324.28 339.90
  A 1.50 1.50 0.0 0 0 324.10 342.01
  L 328.10 346.79
  A 0.75 0.75 0.0 0 0 329.16 346.88
  Q 361.59 319.62 371.53 278.06"
/>
<path stroke="#808080" vector-effect="non-scaling-stroke" d="
  M 371.53 278.06
  L 374.69 278.08"
/>
<path stroke="#011127" vector-effect="non-scaling-stroke" d="
  M 374.69 278.08
  C 374.39 279.95 374.36 281.86 373.86 283.61
  Q 359.83 333.13 317.45 360.04
  Q 308.92 365.46 299.77 369.34
  C 250.81 390.15 195.05 379.56 157.03 342.17
  A 0.98 0.98 0.0 0 0 155.66 342.18
  L 150.83 347.01
  A 0.78 0.77 44.7 0 0 150.84 348.11
  C 200.10 396.47 275.98 402.22 331.26 360.97
  Q 372.84 329.95 384.23 277.55"
/>
<path stroke="#808080" vector-effect="non-scaling-stroke" d="
  M 384.23 277.55
  L 389.80 276.42"
/>
<path stroke="#011127" vector-effect="non-scaling-stroke" d="
  M 389.80 276.42
  Q 385.54 300.59 374.87 319.62
  C 356.95 351.57 327.80 375.78 292.85 387.44
  Q 280.89 391.42 271.11 392.60
  C 263.89 393.46 256.32 394.73 249.42 394.71
  C 182.35 394.43 124.84 349.15 108.50 284.44
  C 108.05 282.67 107.22 281.98 105.39 282.66
  A 1.87 1.86 -16.5 0 0 104.22 284.80
  Q 105.48 290.73 107.51 296.73
  C 126.28 352.25 175.31 392.67 234.45 397.78
  Q 256.32 399.67 275.49 396.21
  C 335.53 385.34 382.43 338.32 394.73 277.91
  Q 395.03 276.46 393.99 274.59"
/>
<path stroke="#808080" vector-effect="non-scaling-stroke" d="
  M 393.99 274.59
  Q 402.35 270.46 404.71 261.48
  C 407.50 250.86 395.95 246.55 387.30 245.75"
/>
<path stroke="#011127" vector-effect="non-scaling-stroke" d="
  M 387.30 245.75
  L 386.54 241.97"
/>
<path stroke="#808080" vector-effect="non-scaling-stroke" d="
  M 386.54 241.97
  L 404.38 241.94
  Q 404.99 241.94 404.82 241.36
  Q 402.35 232.57 395.08 228.55"
/>
<path stroke="#011127" vector-effect="non-scaling-stroke" d="
  M 395.08 228.55
  Q 393.80 215.97 391.73 209.01
  Q 388.75 199.01 381.66 184.53
  Q 361.22 142.82 320.76 119.99
  Q 319.78 119.44 318.02 118.76
  Q 317.54 118.58 317.11 118.86
  Q 315.61 119.82 315.48 121.44
  Q 315.44 121.99 315.92 122.26
  Q 377.76 156.73 390.85 226.71"
/>
<path stroke="#808080" vector-effect="non-scaling-stroke" d="
  M 390.85 226.71
  L 385.03 225.27"
/>
<path stroke="#011127" vector-effect="non-scaling-stroke" d="
  M 385.03 225.27
  Q 381.93 212.38 380.63 208.37
  Q 367.37 167.58 334.70 141.56
  C 287.48 103.97 219.81 100.89 170.04 135.87
  Q 123.91 168.30 112.31 224.75
  C 111.37 229.35 111.24 234.82 110.57 239.81
  Q 110.30 241.88 110.54 243.91
  Q 110.77 245.85 110.99 248.01"
/>
<path stroke="#8090a6" vector-effect="non-scaling-stroke" d="
  M 385.03 225.27
  L 375.78 224.41"
/>
<path stroke="#011127" vector-effect="non-scaling-stroke" d="
  M 375.78 224.41
  Q 367.10 182.24 335.42 153.60
  Q 303.69 124.90 262.01 120.75
  C 194.91 114.06 132.63 159.40 121.16 226.52
  Q 120.86 228.26 119.65 230.73
  Q 118.29 233.51 118.51 236.05"
/>
<path stroke="#8090a6" vector-effect="non-scaling-stroke" d="
  M 118.51 236.05
  L 110.99 248.01"
/>
<path stroke="#8090a6" vector-effect="non-scaling-stroke" d="
  M 170.79 277.10
  L 165.68 277.22"
/>
<path stroke="#8090a6" vector-effect="non-scaling-stroke" d="
  M 157.42 277.26
  L 151.53 268.75"
/>
<path stroke="#8090a6" vector-effect="non-scaling-stroke" d="
  M 144.93 268.66
  L 123.57 268.61"
/>
<path stroke="#8090a6" vector-effect="non-scaling-stroke" d="
  M 119.08 268.77
  L 113.87 277.04"
/>
<path stroke="#808080" vector-effect="non-scaling-stroke" d="
  M 375.78 224.41
  L 372.13 224.51"
/>
<path stroke="#011127" vector-effect="non-scaling-stroke" d="
  M 372.13 224.51
  Q 364.34 188.16 338.42 161.47
  A 0.70 0.69 -44.1 0 0 337.44 161.46
  L 332.38 166.40
  A 0.68 0.68 0.0 0 0 332.36 167.36
  C 346.85 182.41 359.15 202.98 362.93 223.74
  Q 362.97 223.97 363.19 224.05
  Q 363.38 224.12 363.40 224.24
  Q 363.47 224.76 363.10 225.34"
/>
<path stroke="#808080" vector-effect="non-scaling-stroke" d="
  M 363.10 225.34
  Q 351.96 226.94 346.61 234.05"
/>
<path stroke="#011127" vector-effect="non-scaling-stroke" d="
  M 346.61 234.05
  Q 338.80 188.95 299.58 164.46
  C 298.56 163.82 297.81 163.96 296.73 164.20"
/>
<path stroke="#666667" vector-effect="non-scaling-stroke" d="
  M 296.73 164.20
  Q 297.93 158.28 295.72 155.29"
/>
<path stroke="#011127" vector-effect="non-scaling-stroke" d="
  M 295.72 155.29
  Q 329.33 173.25 345.15 207.95
  Q 345.35 208.40 345.82 208.22
  L 352.02 205.73
  A 1.18 1.18 0.0 0 0 352.66 204.16
  C 345.93 188.98 336.29 175.62 323.73 164.65
  Q 285.59 131.34 234.40 136.84
  Q 224.32 137.93 214.90 140.99
  C 177.22 153.22 150.03 181.49 138.52 219.51
  Q 138.14 220.75 137.35 225.70"
/>
<path stroke="#808080" vector-effect="non-scaling-stroke" d="
  M 137.35 225.70
  L 125.97 225.64
  Q 125.41 225.63 125.11 226.09
  L 118.51 236.05"
/>
<path stroke="#8090a6" vector-effect="non-scaling-stroke" d="
  M 386.54 241.97
  C 384.10 242.25 382.84 242.18 380.72 240.65
  Q 374.12 235.89 366.91 240.94
  Q 365.62 241.84 365.81 242.39
  A 2.42 2.30 -6.4 0 0 367.85 243.93
  L 387.30 245.75"
/>
<path stroke="#8090a6" vector-effect="non-scaling-stroke" d="
  M 393.99 274.59
  L 389.80 276.42"
/>
<path stroke="#8090a6" vector-effect="non-scaling-stroke" d="
  M 384.23 277.55
  L 374.69 278.08"
/>
<path stroke="#8090a6" vector-effect="non-scaling-stroke" d="
  M 371.53 278.06
  L 363.02 277.34"
/>
<path stroke="#8090a6" vector-effect="non-scaling-stroke" d="
  M 359.38 276.53
  L 351.26 273.10"
/>
<path stroke="#8090a6" vector-effect="non-scaling-stroke" d="
  M 353.51 260.66
  L 365.25 260.77
  Q 365.78 260.77 366.15 261.13
  Q 369.37 264.23 373.27 264.17"
/>
<path stroke="#808080" vector-effect="non-scaling-stroke" d="
  M 373.27 264.17
  Q 379.09 264.62 381.91 260.70
  A 1.13 1.13 0.0 0 0 381.15 258.92
  L 373.46 257.90"
/>
<path stroke="#8090a6" vector-effect="non-scaling-stroke" d="
  M 373.46 257.90
  Q 363.76 257.52 354.27 255.61"
/>
<path stroke="#8090a6" vector-effect="non-scaling-stroke" d="
  M 153.05 237.28
  L 150.45 233.22"
/>
<path stroke="#011127" vector-effect="non-scaling-stroke" d="
  M 227.33 179.04
  Q 226.54 180.56 227.60 182.51
  C 229.04 185.15 232.59 183.25 234.59 182.18"
/>
<path stroke="#011127" vector-effect="non-scaling-stroke" d="
  M 258.71 192.05
  Q 263.04 194.21 267.96 193.98"
/>
<path stroke="#011127" vector-effect="non-scaling-stroke" d="
  M 283.60 204.73
  Q 283.67 204.25 283.96 204.13
  Q 284.18 204.05 284.50 204.30
  Q 295.39 212.94 301.64 225.54"
/>
<path stroke="#808080" vector-effect="non-scaling-stroke" d="
  M 301.64 225.54
  L 271.71 225.53
  Q 271.22 225.53 271.22 226.02
  L 271.22 276.48
  Q 271.22 276.97 271.71 276.97
  L 299.17 276.99"
/>
<path stroke="#011127" vector-effect="non-scaling-stroke" d="
  M 299.17 276.99
  Q 299.33 280.57 302.23 280.92
  Q 302.74 280.98 303.12 280.63
  Q 304.56 279.31 303.91 277.05"
/>
<path stroke="#808080" vector-effect="non-scaling-stroke" d="
  M 303.91 277.05
  L 312.11 277.10"
/>
<path stroke="#011127" vector-effect="non-scaling-stroke" d="
  M 312.11 277.10
  Q 310.37 279.22 309.27 281.36
  C 303.74 292.18 295.85 300.78 285.58 307.42
  A 1.14 1.14 0.0 0 0 285.24 309.00
  L 288.93 314.76
  A 0.61 0.61 0.0 0 0 289.75 314.96
  Q 292.65 313.31 295.28 311.27
  Q 312.66 297.83 320.44 277.18"
/>
<path stroke="#808080" vector-effect="non-scaling-stroke" d="
  M 320.44 277.18
  L 327.07 276.88"
/>
<path stroke="#011127" vector-effect="non-scaling-stroke" d="
  M 327.07 276.88
  Q 311.76 316.15 272.55 329.10
  C 259.65 333.37 245.18 333.90 231.62 330.92
  Q 189.82 321.70 171.82 281.29
  C 171.29 280.11 171.07 278.39 170.79 277.10"
/>
<path stroke="#808080" vector-effect="non-scaling-stroke" d="
  M 170.79 277.10
  L 176.71 277.25"
/>
<path stroke="#011127" vector-effect="non-scaling-stroke" d="
  M 176.71 277.25
  Q 188.90 308.67 220.04 321.41
  Q 233.59 326.96 247.37 326.93
  A 1.39 1.38 0.0 0 0 248.76 325.55
  L 248.79 319.18
  A 0.74 0.73 1.2 0 0 248.08 318.45
  Q 221.30 317.60 202.53 300.62
  C 181.66 281.73 174.31 251.01 184.93 224.75
  Q 193.83 202.77 214.89 190.35
  A 1.73 1.72 68.3 0 0 215.69 188.47
  Q 214.92 185.13 212.43 182.76
  Q 212.07 182.42 211.58 182.50
  Q 209.90 182.78 208.22 183.90
  Q 169.16 210.13 171.76 257.21
  Q 171.88 259.33 172.97 263.16
  Q 173.90 266.39 174.03 269.84"
/>
<path stroke="#808080" vector-effect="non-scaling-stroke" d="
  M 174.03 269.84
  L 165.76 256.75"
/>
<path stroke="#011127" vector-effect="non-scaling-stroke" d="
  M 265.03 151.97
  Q 248.44 149.07 232.67 151.53
  A 2.05 2.04 78.9 0 0 231.00 154.03
  C 231.48 156.01 232.67 156.18 234.58 155.90
  Q 248.76 153.81 263.15 155.52"
/>
<path stroke="#011127" vector-effect="non-scaling-stroke" d="
  M 261.07 163.81
  Q 249.83 161.33 238.06 163.15"
/>
<path stroke="#011127" vector-effect="non-scaling-stroke" d="
  M 223.22 167.12
  Q 218.77 167.28 215.31 168.80
  Q 172.68 187.50 162.75 233.28
  Q 161.32 239.87 161.38 250.13"
/>
<path stroke="#808080" vector-effect="non-scaling-stroke" d="
  M 161.38 250.13
  L 153.05 237.28"
/>
<path stroke="#011127" vector-effect="non-scaling-stroke" d="
  M 153.05 237.28
  L 154.26 236.45
  Q 154.66 236.18 154.74 235.70
  Q 161.97 192.58 198.54 169.03
  Q 203.45 165.86 215.27 160.82
  A 0.81 0.80 -18.3 0 0 215.74 159.90
  L 215.28 157.84
  A 1.56 1.55 73.2 0 0 213.22 156.73
  C 180.44 169.17 156.19 198.60 150.45 233.22"
/>
<path stroke="#808080" vector-effect="non-scaling-stroke" d="
  M 150.45 233.22
  L 146.18 226.11"
/>
<path stroke="#011127" vector-effect="non-scaling-stroke" d="
  M 224.07 169.94
  Q 222.13 171.18 214.38 174.67
  Q 191.59 184.95 177.76 207.51
  Q 164.75 228.74 165.76 256.75"
/>
<path stroke="#8090a6" vector-effect="non-scaling-stroke" d="
  M 165.76 256.75
  L 161.38 250.13"
/>
<path stroke="#8090a6" vector-effect="non-scaling-stroke" d="
  M 176.71 277.25
  Q 178.43 276.88 178.12 276.45
  Q 175.45 272.74 174.03 269.84"
/>
<path stroke="#67778d" vector-effect="non-scaling-stroke" d="
  M 295.72 155.29
  Q 288.48 138.99 270.80 146.84"
/>
<path stroke="#011127" vector-effect="non-scaling-stroke" d="
  M 270.80 146.84
  Q 246.94 142.15 225.67 147.11
  Q 176.40 158.58 153.42 204.73
  Q 149.73 212.14 146.18 226.11"
/>
<path stroke="#8090a6" vector-effect="non-scaling-stroke" d="
  M 146.18 226.11
  L 137.35 225.70"
/>
<path stroke="#8090a6" vector-effect="non-scaling-stroke" d="
  M 346.61 234.05
  L 344.12 238.22"
/>
<path stroke="#67778d" vector-effect="non-scaling-stroke" d="
  M 296.73 164.20
  L 295.41 167.38"
/>
<path stroke="#67778d" vector-effect="non-scaling-stroke" d="
  M 289.95 173.08
  L 284.50 175.07"
/>
<path stroke="#666667" vector-effect="non-scaling-stroke" d="
  M 284.50 175.07
  Q 278.80 174.49 274.84 170.10"
/>
<path stroke="#67778d" vector-effect="non-scaling-stroke" d="
  M 274.84 170.10
  L 273.25 167.06"
/>
<path stroke="#666667" vector-effect="non-scaling-stroke" d="
  M 273.25 167.06
  Q 271.85 161.99 274.42 157.89"
/>
<path stroke="#67778d" vector-effect="non-scaling-stroke" d="
  M 274.42 157.89
  L 276.08 155.81"
/>
<path stroke="#666667" vector-effect="non-scaling-stroke" d="
  M 276.08 155.81
  Q 283.91 150.68 288.80 158.17
  C 291.66 162.55 288.21 168.55 283.17 168.15
  C 274.45 167.47 280.54 153.85 285.00 162.66
  A 0.34 0.34 0.0 0 0 285.64 162.52
  Q 285.79 159.38 283.32 158.31
  C 276.90 155.54 274.04 166.94 280.84 169.64
  C 286.35 171.82 291.95 167.99 292.67 162.31
  Q 293.79 153.51 284.32 149.23"
/>
<path stroke="#67778d" vector-effect="non-scaling-stroke" d="
  M 284.32 149.23
  L 278.02 148.89"
/>
<path stroke="#666667" vector-effect="non-scaling-stroke" d="
  M 278.02 148.89
  Q 273.29 150.01 269.95 153.80"
/>
<path stroke="#67778d" vector-effect="non-scaling-stroke" d="
  M 269.95 153.80
  L 268.44 155.69"
/>
<path stroke="#666667" vector-effect="non-scaling-stroke" d="
  M 268.44 155.69
  Q 265.41 159.78 265.67 165.39"
/>
<path stroke="#67778d" vector-effect="non-scaling-stroke" d="
  M 265.67 165.39
  Q 265.55 167.67 266.15 168.96"
/>
<path stroke="#666667" vector-effect="non-scaling-stroke" d="
  M 266.15 168.96
  Q 266.72 174.01 268.28 175.53"
/>
<path stroke="#67778d" vector-effect="non-scaling-stroke" d="
  M 268.28 175.53
  L 271.81 185.32"
/>
<path stroke="#666667" vector-effect="non-scaling-stroke" d="
  M 271.81 185.32
  Q 273.06 189.08 274.79 192.76
  C 276.47 196.32 278.93 195.75 282.23 195.70
  Q 282.76 195.69 283.05 196.14
  Q 283.79 197.30 283.72 198.74"
/>
<path stroke="#67778d" vector-effect="non-scaling-stroke" d="
  M 283.72 198.74
  L 283.60 204.73"
/>
<path stroke="#666667" vector-effect="non-scaling-stroke" d="
  M 283.60 204.73
  Q 283.52 205.09 283.26 205.22
  Q 283.04 205.32 282.73 205.18
  Q 280.13 204.03 279.86 201.02
  A 0.60 0.60 0.0 0 0 279.19 200.47
  C 273.76 201.12 270.87 197.90 267.96 193.98"
/>
<path stroke="#67778d" vector-effect="non-scaling-stroke" d="
  M 267.96 193.98
  L 252.03 176.25
  A 1.73 1.73 0.0 0 0 249.54 176.16
  L 248.79 176.88
  A 0.84 0.83 62.9 0 0 248.55 177.63
  L 249.99 185.63
  A 0.62 0.62 0.0 0 0 251.16 185.80
  Q 252.18 183.78 254.18 182.88
  A 1.00 0.99 57.6 0 1 255.36 183.15
  L 260.00 188.71
  Q 260.43 189.23 260.25 189.88
  Q 259.93 191.06 258.71 192.05"
/>
<path stroke="#666667" vector-effect="non-scaling-stroke" d="
  M 258.71 192.05
  Q 256.52 192.91 256.77 194.50
  Q 257.55 199.50 257.46 204.76
  A 2.10 2.09 0.4 0 1 255.36 206.82
  L 251.52 206.80
  A 1.24 1.24 0.0 0 1 251.16 204.37
  C 253.56 203.63 253.81 202.34 253.18 200.03
  Q 251.53 194.09 250.44 188.16
  A 0.55 0.55 0.0 0 0 249.45 187.94
  Q 245.77 193.04 242.15 198.34
  C 240.74 200.40 240.68 202.21 240.71 204.61
  Q 240.72 205.14 240.18 205.13
  C 234.98 205.05 238.14 196.33 239.75 193.26
  C 242.05 188.89 237.36 184.88 234.59 182.18"
/>
<path stroke="#67778d" vector-effect="non-scaling-stroke" d="
  M 234.59 182.18
  Q 232.48 177.90 227.33 179.04"
/>
<path stroke="#666667" vector-effect="non-scaling-stroke" d="
  M 227.33 179.04
  Q 225.20 178.28 225.21 176.48
  A 0.55 0.54 -88.1 0 1 225.79 175.93
  C 231.26 176.26 231.72 169.91 227.00 169.75
  Q 225.48 169.70 224.07 169.94"
/>
<path stroke="#67778d" vector-effect="non-scaling-stroke" d="
  M 224.07 169.94
  Q 222.44 169.33 223.22 167.12"
/>
<path stroke="#666667" vector-effect="non-scaling-stroke" d="
  M 223.22 167.12
  Q 228.23 166.11 232.55 167.85
  Q 232.96 168.02 232.91 167.58
  C 232.52 164.57 226.53 164.85 224.07 165.04
  Q 223.47 165.08 223.64 164.51
  Q 224.27 162.33 226.22 161.16
  Q 232.78 157.23 238.06 163.15"
/>
<path stroke="#67778d" vector-effect="non-scaling-stroke" d="
  M 238.06 163.15
  Q 239.44 165.25 239.94 168.22
  Q 240.03 168.74 240.56 168.74
  Q 248.61 168.81 256.57 168.74
  C 259.95 168.71 260.82 166.81 261.07 163.81"
/>
<path stroke="#666667" vector-effect="non-scaling-stroke" d="
  M 261.07 163.81
  Q 261.15 159.04 263.15 155.52"
/>
<path stroke="#67778d" vector-effect="non-scaling-stroke" d="
  M 263.15 155.52
  L 265.03 151.97"
/>
<path stroke="#666667" vector-effect="non-scaling-stroke" d="
  M 265.03 151.97
  L 270.80 146.84"
/>
<path stroke="#8090a6" vector-effect="non-scaling-stroke" d="
  M 372.13 224.51
  L 363.10 225.34"
/>
<path stroke="#8090a6" vector-effect="non-scaling-stroke" d="
  M 395.08 228.55
  L 390.85 226.71"
/>
<path stroke="#011127" vector-effect="non-scaling-stroke" d="
  M 373.46 257.90
  Q 374.87 261.09 373.27 264.17"
/>
<path stroke="#8090a6" vector-effect="non-scaling-stroke" d="
  M 306.01 225.34
  L 301.64 225.54"
/>
<path stroke="#808080" vector-effect="non-scaling-stroke" d="
  M 330.42 238.40
  L 324.93 238.32"
/>
<path stroke="#8090a6" vector-effect="non-scaling-stroke" d="
  M 324.93 238.32
  L 315.90 238.34"
/>
<path stroke="#808080" vector-effect="non-scaling-stroke" d="
  M 315.90 238.34
  L 309.70 238.38"
/>
<path stroke="#8090a6" vector-effect="non-scaling-stroke" d="
  M 309.70 238.38
  L 306.12 238.40"
/>
<path stroke="#808080" vector-effect="non-scaling-stroke" d="
  M 306.12 238.40
  L 293.40 238.39
  Q 292.79 238.39 292.79 239.00
  L 292.81 245.73
  Q 292.81 246.28 293.37 246.28
  L 307.34 246.25"
/>
<path stroke="#8090a6" vector-effect="non-scaling-stroke" d="
  M 307.34 246.25
  L 310.33 246.21"
/>
<path stroke="#808080" vector-effect="non-scaling-stroke" d="
  M 310.33 246.21
  L 317.39 246.28"
/>
<path stroke="#8090a6" vector-effect="non-scaling-stroke" d="
  M 317.39 246.28
  L 324.02 246.50
  A 0.50 0.50 0.0 0 1 324.51 246.99
  L 324.59 255.52
  A 0.64 0.64 0.0 0 1 323.96 256.17
  L 316.73 256.30"
/>
<path stroke="#808080" vector-effect="non-scaling-stroke" d="
  M 316.73 256.30
  L 293.28 256.31
  Q 292.80 256.32 292.80 256.79
  L 292.80 263.73
  Q 292.80 264.23 293.30 264.23
  L 316.10 264.21"
/>
<path stroke="#8090a6" vector-effect="non-scaling-stroke" d="
  M 316.10 264.21
  L 324.78 264.21"
/>
<path stroke="#808080" vector-effect="non-scaling-stroke" d="
  M 324.78 264.21
  L 330.02 264.25"
/>
<path stroke="#8090a6" vector-effect="non-scaling-stroke" d="
  M 330.45 277.04
  L 327.07 276.88"
/>
<path stroke="#8090a6" vector-effect="non-scaling-stroke" d="
  M 320.44 277.18
  L 312.11 277.10"
/>
<path stroke="#8090a6" vector-effect="non-scaling-stroke" d="
  M 303.91 277.05
  L 299.17 276.99"
/>
<path stroke="#011127" vector-effect="non-scaling-stroke" d="
  M 276.08 155.81
  Q 275.37 152.45 271.25 154.13
  Q 270.06 154.61 269.95 153.80"
/>
<path stroke="#011127" vector-effect="non-scaling-stroke" d="
  M 274.42 157.89
  C 272.23 157.63 269.70 157.98 268.44 155.69"
/>
<path stroke="#011127" vector-effect="non-scaling-stroke" d="
  M 284.50 175.07
  Q 316.64 191.76 327.61 225.32"
/>
<path stroke="#808080" vector-effect="non-scaling-stroke" d="
  M 327.61 225.32
  L 321.43 225.37"
/>
<path stroke="#011127" vector-effect="non-scaling-stroke" d="
  M 321.43 225.37
  Q 317.70 214.60 312.66 207.09
  Q 296.83 183.52 268.28 175.53"
/>
<path stroke="#011127" vector-effect="non-scaling-stroke" d="
  M 274.84 170.10
  Q 273.98 171.51 272.02 170.65
  Q 269.78 169.66 266.15 168.96"
/>
<path stroke="#011127" vector-effect="non-scaling-stroke" d="
  M 273.25 167.06
  Q 269.28 163.69 265.67 165.39"
/>
<path stroke="#011127" vector-effect="non-scaling-stroke" d="
  M 284.32 149.23
  L 278.02 148.89"
/>
<path stroke="#8090a6" vector-effect="non-scaling-stroke" d="
  M 333.26 266.75
  L 333.03 264.89
  Q 332.96 264.31 332.37 264.30
  L 330.02 264.25"
/>
<path stroke="#011127" vector-effect="non-scaling-stroke" d="
  M 330.02 264.25
  Q 332.11 251.02 330.42 238.40"
/>
<path stroke="#8090a6" vector-effect="non-scaling-stroke" d="
  M 330.42 238.40
  L 330.28 226.28
  Q 330.27 225.71 329.71 225.62
  L 327.61 225.32"
/>
<path stroke="#808080" vector-effect="non-scaling-stroke" d="
  M 312.57 225.44
  L 306.01 225.34"
/>
<path stroke="#011127" vector-effect="non-scaling-stroke" d="
  M 306.01 225.34
  Q 299.98 211.16 287.88 200.90
  Q 285.80 199.13 283.72 198.74"
/>
<path stroke="#8090a6" vector-effect="non-scaling-stroke" d="
  M 321.43 225.37
  L 312.57 225.44"
/>
<path stroke="#011127" vector-effect="non-scaling-stroke" d="
  M 312.57 225.44
  Q 300.76 196.82 271.81 185.32"
/>
<path stroke="#011127" vector-effect="non-scaling-stroke" d="
  M 315.90 238.34
  L 317.39 246.28"
/>
<path stroke="#011127" vector-effect="non-scaling-stroke" d="
  M 324.93 238.32
  C 325.24 241.74 325.81 244.26 325.18 247.85
  Q 324.52 251.55 324.98 255.28
  C 325.37 258.52 324.85 261.10 324.78 264.21"
/>
<path stroke="#011127" vector-effect="non-scaling-stroke" d="
  M 316.10 264.21
  L 316.73 256.30"
/>
<path stroke="#011127" vector-effect="non-scaling-stroke" d="
  M 306.12 238.40
  Q 305.68 242.57 307.34 246.25"
/>
<path stroke="#011127" vector-effect="non-scaling-stroke" d="
  M 309.70 238.38
  Q 311.59 242.90 310.33 246.21"
/>
<path stroke="#011127" vector-effect="non-scaling-stroke" d="
  M 323.64 315.40
  C 333.08 304.64 339.36 292.48 343.88 278.28
  A 0.81 0.81 0.0 0 0 343.68 277.46
  Q 342.49 276.29 340.89 276.15
  Q 340.19 276.09 339.97 276.75
  C 328.30 312.25 298.99 339.19 261.08 344.25
  A 1.43 1.43 0.0 0 0 259.85 345.74
  L 259.98 347.97
  A 0.79 0.77 -4.8 0 0 260.86 348.70
  Q 298.71 343.83 323.64 315.40"
/>
<path stroke="#011127" vector-effect="non-scaling-stroke" d="
  M 306.82 138.04
  C 269.37 118.40 224.83 119.17 188.38 138.98
  C 162.74 152.92 143.16 174.96 131.99 202.02
  A 0.92 0.91 21.9 0 0 132.51 203.22
  L 138.19 205.38
  A 1.53 1.53 0.0 0 0 140.14 204.55
  C 154.23 171.97 180.73 147.34 214.79 137.38
  Q 259.54 124.30 302.63 145.30
  Q 303.49 145.71 303.96 144.89
  L 307.17 139.26
  A 0.88 0.88 0.0 0 0 306.82 138.04"
/>
<path stroke="#666667" vector-effect="non-scaling-stroke" d="
  M 228.3390 172.7529
  A 1.07 1.07 0.0 0 0 227.2542 171.6979
  L 224.0745 171.7423
  A 1.07 1.07 0.0 0 0 223.0196 172.8271
  L 223.0210 172.9271
  A 1.07 1.07 0.0 0 0 224.1058 173.9821
  L 227.2855 173.9377
  A 1.07 1.07 0.0 0 0 228.3404 172.8529
  L 228.3390 172.7529"
/>
<path stroke="#011127" vector-effect="non-scaling-stroke" d="
  M 231.27 190.68
  Q 228.39 190.29 224.99 191.75
  Q 208.99 198.62 198.59 211.55
  Q 192.73 218.84 192.11 225.30"
/>
<path stroke="#808080" vector-effect="non-scaling-stroke" d="
  M 192.11 225.30
  L 189.08 225.57
  Q 188.51 225.62 188.50 226.20
  L 188.35 238.18"
/>
<path stroke="#011127" vector-effect="non-scaling-stroke" d="
  M 188.35 238.18
  C 185.67 240.61 186.05 242.57 185.90 245.81
  Q 185.63 251.34 186.11 256.85
  C 186.33 259.45 187.70 261.63 188.40 264.19"
/>
<path stroke="#808080" vector-effect="non-scaling-stroke" d="
  M 188.40 264.19
  L 188.48 276.48
  Q 188.48 277.00 189.01 277.00
  L 209.53 277.00
  Q 210.06 277.00 210.06 276.47
  L 210.04 262.73
  Q 210.04 262.15 210.62 262.16
  Q 227.47 262.53 235.00 261.79
  C 247.01 260.61 260.35 256.78 258.54 241.90
  C 256.74 227.13 239.65 225.76 228.22 225.63
  Q 212.06 225.45 195.62 225.51"
/>
<path stroke="#011127" vector-effect="non-scaling-stroke" d="
  M 195.62 225.51
  Q 201.29 216.13 205.65 211.15
  Q 215.11 200.35 229.35 194.69
  A 0.57 0.56 68.1 0 1 230.09 195.01
  Q 230.23 195.34 230.07 195.97"
/>
<path stroke="#666667" vector-effect="non-scaling-stroke" d="
  M 230.07 195.97
  L 227.85 202.81
  A 0.94 0.94 0.0 0 1 227.11 203.44
  C 224.72 203.80 222.57 203.03 221.88 206.02
  A 0.52 0.52 0.0 0 0 222.28 206.65
  Q 228.62 208.03 232.00 202.73
  Q 234.21 199.27 237.34 193.37
  C 239.14 190.00 237.40 188.01 234.77 186.13
  A 1.64 1.64 0.0 0 0 232.24 187.04
  L 231.27 190.68"
/>
<path stroke="#67778d" vector-effect="non-scaling-stroke" d="
  M 230.07 195.97
  L 231.27 190.68"
/>
<path stroke="#8090a6" vector-effect="non-scaling-stroke" d="
  M 195.62 225.51
  L 192.11 225.30"
/>
<path stroke="#8090a6" vector-effect="non-scaling-stroke" d="
  M 188.40 264.19
  L 188.35 238.18"
/>
<path stroke="#011127" vector-effect="non-scaling-stroke" d="
  M 240.12 307.63
  Q 219.81 304.96 205.42 289.04
  Q 204.00 287.47 203.24 287.33
  Q 201.82 287.07 200.37 289.04
  A 0.77 0.76 43.7 0 0 200.40 289.99
  C 218.70 312.18 250.06 318.81 276.03 306.30
  Q 284.25 302.35 293.23 293.92
  Q 293.63 293.55 293.44 293.03
  Q 292.75 291.13 290.80 290.63
  A 0.88 0.87 -59.4 0 0 289.96 290.85
  Q 268.84 311.39 240.12 307.63"
/>
<path stroke="#8090a6" vector-effect="non-scaling-stroke" d="
  M 130.16 249.80
  L 127.10 255.02
  Q 126.78 255.57 127.39 255.72
  Q 128.70 256.05 130.27 255.73"
/>
<path stroke="#808080" vector-effect="non-scaling-stroke" d="
  M 130.27 255.73
  L 135.89 255.67"
/>
<path stroke="#8090a6" vector-effect="non-scaling-stroke" d="
  M 135.89 255.67
  L 143.45 255.69
  Q 144.15 255.70 143.80 255.09
  L 136.62 242.54"
/>
<path stroke="#808080" vector-effect="non-scaling-stroke" d="
  M 136.62 242.54
  L 135.86 241.12
  Q 135.51 240.47 135.15 241.11
  L 130.16 249.80"
/>
<path stroke="#011127" vector-effect="non-scaling-stroke" d="
  M 136.62 242.54
  L 135.57 243.21
  Q 135.15 243.48 135.04 243.97
  Q 133.80 249.80 135.89 255.67"
/>
<path stroke="#011127" vector-effect="non-scaling-stroke" d="
  M 130.27 255.73
  Q 132.15 251.69 130.16 249.80"
/>
<path stroke="#808080" vector-effect="non-scaling-stroke" d="
  M 210.06 238.70
  L 210.04 249.04
  A 0.31 0.31 0.0 0 0 210.35 249.35
  L 227.73 249.38
  A 9.29 4.49 0.1 0 0 237.03 244.90
  L 237.03 242.92
  A 9.29 4.49 0.1 0 0 227.75 238.42
  L 210.37 238.39
  A 0.31 0.31 0.0 0 0 210.06 238.70"
/>
</g>
<path fill="#000000" d="
  M 0.00 0.00
  L 500.00 0.00
  L 500.00 500.00
  L 0.00 500.00
  L 0.00 0.00
  Z
  M 108.67 214.01
  C 118.58 178.05 140.38 147.31 171.90 127.79
  Q 220.56 97.65 279.09 108.72
  A 1.75 1.74 -77.4 0 0 281.10 107.44
  L 281.38 106.39
  A 1.59 1.58 -77.2 0 0 280.15 104.43
  Q 218.73 92.43 168.04 124.90
  C 137.62 144.38 116.08 174.00 105.84 208.74
  C 105.45 210.06 105.38 211.53 104.92 212.96
  A 0.69 0.68 -72.0 0 0 105.35 213.82
  L 107.61 214.57
  Q 108.44 214.85 108.67 214.01
  Z
  M 110.99 248.01
  L 92.92 276.33
  Q 92.55 276.91 93.24 276.92
  L 113.87 277.04
  Q 113.17 279.12 114.09 282.64
  Q 119.59 303.75 129.90 321.23
  Q 130.26 321.84 130.87 321.48
  L 136.78 317.95
  A 1.01 1.01 0.0 0 0 137.13 316.56
  Q 124.39 295.30 120.59 270.75
  A 1.36 1.31 20.6 0 0 120.26 270.06
  L 119.08 268.77
  L 123.57 268.61
  Q 124.99 275.28 126.76 281.95
  Q 135.84 316.24 160.63 340.47
  C 202.04 380.94 265.16 387.69 314.46 357.40
  Q 314.93 357.11 314.63 356.65
  L 311.09 351.24
  A 1.54 1.54 0.0 0 0 309.01 350.76
  Q 283.53 366.07 253.50 367.39
  C 211.69 369.24 173.02 349.02 150.12 314.15
  Q 137.23 294.51 132.71 269.98
  Q 132.44 268.56 133.89 268.62
  L 135.33 268.69
  A 0.84 0.84 0.0 0 1 136.13 269.37
  Q 139.22 284.15 144.04 295.22
  C 162.71 338.09 204.52 364.51 251.55 364.01
  A 1.33 1.33 0.0 0 0 252.86 362.61
  L 252.51 355.70
  A 0.48 0.47 88.0 0 0 252.04 355.25
  Q 200.62 355.73 168.07 317.92
  Q 150.32 297.30 144.93 268.66
  L 151.53 268.75
  Q 152.61 279.69 157.95 291.02
  C 174.75 326.64 208.19 349.14 247.85 349.42
  Q 248.34 349.42 248.57 348.99
  Q 249.45 347.35 248.67 345.72
  Q 248.42 345.20 247.84 345.18
  Q 199.56 343.52 171.49 305.76
  Q 162.28 293.37 157.42 277.26
  L 165.68 277.22
  Q 176.24 307.31 202.09 323.75
  C 249.14 353.69 312.11 331.76 330.63 279.49
  Q 331.00 278.46 330.45 277.04
  L 332.67 276.98
  Q 333.17 276.96 333.18 276.46
  L 333.26 266.75
  Q 334.49 266.00 334.60 265.25
  C 336.18 253.93 337.08 238.29 332.39 227.99
  C 331.83 226.77 332.13 224.57 331.59 223.02
  Q 320.29 190.12 289.95 173.08
  Q 293.30 170.97 295.41 167.38
  C 297.79 168.88 300.64 170.17 302.76 171.69
  Q 336.34 195.77 342.92 237.07
  Q 343.00 237.57 343.44 237.82
  L 344.12 238.22
  C 340.09 247.02 345.70 253.64 354.27 255.61
  L 353.51 260.66
  L 343.60 260.68
  Q 342.98 260.68 343.13 261.28
  Q 345.08 268.93 351.26 273.10
  Q 338.32 324.20 290.90 346.32
  A 0.91 0.91 0.0 0 0 290.43 347.44
  L 292.34 352.86
  A 2.11 2.10 67.3 0 0 295.24 354.06
  Q 336.84 333.98 354.27 292.22
  Q 357.17 285.29 359.38 276.53
  L 363.02 277.34
  Q 361.03 283.35 359.00 289.18
  Q 348.54 319.27 324.28 339.90
  A 1.50 1.50 0.0 0 0 324.10 342.01
  L 328.10 346.79
  A 0.75 0.75 0.0 0 0 329.16 346.88
  Q 361.59 319.62 371.53 278.06
  L 374.69 278.08
  C 374.39 279.95 374.36 281.86 373.86 283.61
  Q 359.83 333.13 317.45 360.04
  Q 308.92 365.46 299.77 369.34
  C 250.81 390.15 195.05 379.56 157.03 342.17
  A 0.98 0.98 0.0 0 0 155.66 342.18
  L 150.83 347.01
  A 0.78 0.77 44.7 0 0 150.84 348.11
  C 200.10 396.47 275.98 402.22 331.26 360.97
  Q 372.84 329.95 384.23 277.55
  L 389.80 276.42
  Q 385.54 300.59 374.87 319.62
  C 356.95 351.57 327.80 375.78 292.85 387.44
  Q 280.89 391.42 271.11 392.60
  C 263.89 393.46 256.32 394.73 249.42 394.71
  C 182.35 394.43 124.84 349.15 108.50 284.44
  C 108.05 282.67 107.22 281.98 105.39 282.66
  A 1.87 1.86 -16.5 0 0 104.22 284.80
  Q 105.48 290.73 107.51 296.73
  C 126.28 352.25 175.31 392.67 234.45 397.78
  Q 256.32 399.67 275.49 396.21
  C 335.53 385.34 382.43 338.32 394.73 277.91
  Q 395.03 276.46 393.99 274.59
  Q 402.35 270.46 404.71 261.48
  C 407.50 250.86 395.95 246.55 387.30 245.75
  L 386.54 241.97
  L 404.38 241.94
  Q 404.99 241.94 404.82 241.36
  Q 402.35 232.57 395.08 228.55
  Q 393.80 215.97 391.73 209.01
  Q 388.75 199.01 381.66 184.53
  Q 361.22 142.82 320.76 119.99
  Q 319.78 119.44 318.02 118.76
  Q 317.54 118.58 317.11 118.86
  Q 315.61 119.82 315.48 121.44
  Q 315.44 121.99 315.92 122.26
  Q 377.76 156.73 390.85 226.71
  L 385.03 225.27
  Q 381.93 212.38 380.63 208.37
  Q 367.37 167.58 334.70 141.56
  C 287.48 103.97 219.81 100.89 170.04 135.87
  Q 123.91 168.30 112.31 224.75
  C 111.37 229.35 111.24 234.82 110.57 239.81
  Q 110.30 241.88 110.54 243.91
  Q 110.77 245.85 110.99 248.01
  Z
  M 323.64 315.40
  C 333.08 304.64 339.36 292.48 343.88 278.28
  A 0.81 0.81 0.0 0 0 343.68 277.46
  Q 342.49 276.29 340.89 276.15
  Q 340.19 276.09 339.97 276.75
  C 328.30 312.25 298.99 339.19 261.08 344.25
  A 1.43 1.43 0.0 0 0 259.85 345.74
  L 259.98 347.97
  A 0.79 0.77 -4.8 0 0 260.86 348.70
  Q 298.71 343.83 323.64 315.40
  Z"
/>
<path fill="#01214d" d="
  M 108.67 214.01
  Q 108.44 214.85 107.61 214.57
  L 105.35 213.82
  A 0.69 0.68 -72.0 0 1 104.92 212.96
  C 105.38 211.53 105.45 210.06 105.84 208.74
  C 116.08 174.00 137.62 144.38 168.04 124.90
  Q 218.73 92.43 280.15 104.43
  A 1.59 1.58 -77.2 0 1 281.38 106.39
  L 281.10 107.44
  A 1.75 1.74 -77.4 0 1 279.09 108.72
  Q 220.56 97.65 171.90 127.79
  C 140.38 147.31 118.58 178.05 108.67 214.01
  Z"
/>
<path fill="#01214d" d="
  M 385.03 225.27
  L 375.78 224.41
  Q 367.10 182.24 335.42 153.60
  Q 303.69 124.90 262.01 120.75
  C 194.91 114.06 132.63 159.40 121.16 226.52
  Q 120.86 228.26 119.65 230.73
  Q 118.29 233.51 118.51 236.05
  L 110.99 248.01
  Q 110.77 245.85 110.54 243.91
  Q 110.30 241.88 110.57 239.81
  C 111.24 234.82 111.37 229.35 112.31 224.75
  Q 123.91 168.30 170.04 135.87
  C 219.81 100.89 287.48 103.97 334.70 141.56
  Q 367.37 167.58 380.63 208.37
  Q 381.93 212.38 385.03 225.27
  Z"
/>
<path fill="#01214d" d="
  M 395.08 228.55
  L 390.85 226.71
  Q 377.76 156.73 315.92 122.26
  Q 315.44 121.99 315.48 121.44
  Q 315.61 119.82 317.11 118.86
  Q 317.54 118.58 318.02 118.76
  Q 319.78 119.44 320.76 119.99
  Q 361.22 142.82 381.66 184.53
  Q 388.75 199.01 391.73 209.01
  Q 393.80 215.97 395.08 228.55
  Z"
/>
<path fill="#000000" d="
  M 375.78 224.41
  L 372.13 224.51
  Q 364.34 188.16 338.42 161.47
  A 0.70 0.69 -44.1 0 0 337.44 161.46
  L 332.38 166.40
  A 0.68 0.68 0.0 0 0 332.36 167.36
  C 346.85 182.41 359.15 202.98 362.93 223.74
  Q 362.97 223.97 363.19 224.05
  Q 363.38 224.12 363.40 224.24
  Q 363.47 224.76 363.10 225.34
  Q 351.96 226.94 346.61 234.05
  Q 338.80 188.95 299.58 164.46
  C 298.56 163.82 297.81 163.96 296.73 164.20
  Q 297.93 158.28 295.72 155.29
  Q 329.33 173.25 345.15 207.95
  Q 345.35 208.40 345.82 208.22
  L 352.02 205.73
  A 1.18 1.18 0.0 0 0 352.66 204.16
  C 345.93 188.98 336.29 175.62 323.73 164.65
  Q 285.59 131.34 234.40 136.84
  Q 224.32 137.93 214.90 140.99
  C 177.22 153.22 150.03 181.49 138.52 219.51
  Q 138.14 220.75 137.35 225.70
  L 125.97 225.64
  Q 125.41 225.63 125.11 226.09
  L 118.51 236.05
  Q 118.29 233.51 119.65 230.73
  Q 120.86 228.26 121.16 226.52
  C 132.63 159.40 194.91 114.06 262.01 120.75
  Q 303.69 124.90 335.42 153.60
  Q 367.10 182.24 375.78 224.41
  Z
  M 306.82 138.04
  C 269.37 118.40 224.83 119.17 188.38 138.98
  C 162.74 152.92 143.16 174.96 131.99 202.02
  A 0.92 0.91 21.9 0 0 132.51 203.22
  L 138.19 205.38
  A 1.53 1.53 0.0 0 0 140.14 204.55
  C 154.23 171.97 180.73 147.34 214.79 137.38
  Q 259.54 124.30 302.63 145.30
  Q 303.49 145.71 303.96 144.89
  L 307.17 139.26
  A 0.88 0.88 0.0 0 0 306.82 138.04
  Z"
/>
<path fill="#01214d" d="
  M 188.38 138.98
  C 224.83 119.17 269.37 118.40 306.82 138.04
  A 0.88 0.88 0.0 0 1 307.17 139.26
  L 303.96 144.89
  Q 303.49 145.71 302.63 145.30
  Q 259.54 124.30 214.79 137.38
  C 180.73 147.34 154.23 171.97 140.14 204.55
  A 1.53 1.53 0.0 0 1 138.19 205.38
  L 132.51 203.22
  A 0.92 0.91 21.9 0 1 131.99 202.02
  C 143.16 174.96 162.74 152.92 188.38 138.98
  Z"
/>
<path fill="#01214d" d="
  M 295.72 155.29
  Q 288.48 138.99 270.80 146.84
  Q 246.94 142.15 225.67 147.11
  Q 176.40 158.58 153.42 204.73
  Q 149.73 212.14 146.18 226.11
  L 137.35 225.70
  Q 138.14 220.75 138.52 219.51
  C 150.03 181.49 177.22 153.22 214.90 140.99
  Q 224.32 137.93 234.40 136.84
  Q 285.59 131.34 323.73 164.65
  C 336.29 175.62 345.93 188.98 352.66 204.16
  A 1.18 1.18 0.0 0 1 352.02 205.73
  L 345.82 208.22
  Q 345.35 208.40 345.15 207.95
  Q 329.33 173.25 295.72 155.29
  Z"
/>
<path fill="#cccccd" d="
  M 295.72 155.29
  Q 297.93 158.28 296.73 164.20
  L 295.41 167.38
  Q 293.30 170.97 289.95 173.08
  L 284.50 175.07
  Q 278.80 174.49 274.84 170.10
  L 273.25 167.06
  Q 271.85 161.99 274.42 157.89
  L 276.08 155.81
  Q 283.91 150.68 288.80 158.17
  C 291.66 162.55 288.21 168.55 283.17 168.15
  C 274.45 167.47 280.54 153.85 285.00 162.66
  A 0.34 0.34 0.0 0 0 285.64 162.52
  Q 285.79 159.38 283.32 158.31
  C 276.90 155.54 274.04 166.94 280.84 169.64
  C 286.35 171.82 291.95 167.99 292.67 162.31
  Q 293.79 153.51 284.32 149.23
  L 278.02 148.89
  Q 273.29 150.01 269.95 153.80
  L 268.44 155.69
  Q 265.41 159.78 265.67 165.39
  Q 265.55 167.67 266.15 168.96
  Q 266.72 174.01 268.28 175.53
  L 271.81 185.32
  Q 273.06 189.08 274.79 192.76
  C 276.47 196.32 278.93 195.75 282.23 195.70
  Q 282.76 195.69 283.05 196.14
  Q 283.79 197.30 283.72 198.74
  L 283.60 204.73
  Q 283.52 205.09 283.26 205.22
  Q 283.04 205.32 282.73 205.18
  Q 280.13 204.03 279.86 201.02
  A 0.60 0.60 0.0 0 0 279.19 200.47
  C 273.76 201.12 270.87 197.90 267.96 193.98
  L 252.03 176.25
  A 1.73 1.73 0.0 0 0 249.54 176.16
  L 248.79 176.88
  A 0.84 0.83 62.9 0 0 248.55 177.63
  L 249.99 185.63
  A 0.62 0.62 0.0 0 0 251.16 185.80
  Q 252.18 183.78 254.18 182.88
  A 1.00 0.99 57.6 0 1 255.36 183.15
  L 260.00 188.71
  Q 260.43 189.23 260.25 189.88
  Q 259.93 191.06 258.71 192.05
  Q 256.52 192.91 256.77 194.50
  Q 257.55 199.50 257.46 204.76
  A 2.10 2.09 0.4 0 1 255.36 206.82
  L 251.52 206.80
  A 1.24 1.24 0.0 0 1 251.16 204.37
  C 253.56 203.63 253.81 202.34 253.18 200.03
  Q 251.53 194.09 250.44 188.16
  A 0.55 0.55 0.0 0 0 249.45 187.94
  Q 245.77 193.04 242.15 198.34
  C 240.74 200.40 240.68 202.21 240.71 204.61
  Q 240.72 205.14 240.18 205.13
  C 234.98 205.05 238.14 196.33 239.75 193.26
  C 242.05 188.89 237.36 184.88 234.59 182.18
  Q 232.48 177.90 227.33 179.04
  Q 225.20 178.28 225.21 176.48
  A 0.55 0.54 -88.1 0 1 225.79 175.93
  C 231.26 176.26 231.72 169.91 227.00 169.75
  Q 225.48 169.70 224.07 169.94
  Q 222.44 169.33 223.22 167.12
  Q 228.23 166.11 232.55 167.85
  Q 232.96 168.02 232.91 167.58
  C 232.52 164.57 226.53 164.85 224.07 165.04
  Q 223.47 165.08 223.64 164.51
  Q 224.27 162.33 226.22 161.16
  Q 232.78 157.23 238.06 163.15
  Q 239.44 165.25 239.94 168.22
  Q 240.03 168.74 240.56 168.74
  Q 248.61 168.81 256.57 168.74
  C 259.95 168.71 260.82 166.81 261.07 163.81
  Q 261.15 159.04 263.15 155.52
  L 265.03 151.97
  L 270.80 146.84
  Q 288.48 138.99 295.72 155.29
  Z"
/>
<path fill="#000000" d="
  M 270.80 146.84
  L 265.03 151.97
  Q 248.44 149.07 232.67 151.53
  A 2.05 2.04 78.9 0 0 231.00 154.03
  C 231.48 156.01 232.67 156.18 234.58 155.90
  Q 248.76 153.81 263.15 155.52
  Q 261.15 159.04 261.07 163.81
  Q 249.83 161.33 238.06 163.15
  Q 232.78 157.23 226.22 161.16
  Q 224.27 162.33 223.64 164.51
  Q 223.47 165.08 224.07 165.04
  C 226.53 164.85 232.52 164.57 232.91 167.58
  Q 232.96 168.02 232.55 167.85
  Q 228.23 166.11 223.22 167.12
  Q 218.77 167.28 215.31 168.80
  Q 172.68 187.50 162.75 233.28
  Q 161.32 239.87 161.38 250.13
  L 153.05 237.28
  L 154.26 236.45
  Q 154.66 236.18 154.74 235.70
  Q 161.97 192.58 198.54 169.03
  Q 203.45 165.86 215.27 160.82
  A 0.81 0.80 -18.3 0 0 215.74 159.90
  L 215.28 157.84
  A 1.56 1.55 73.2 0 0 213.22 156.73
  C 180.44 169.17 156.19 198.60 150.45 233.22
  L 146.18 226.11
  Q 149.73 212.14 153.42 204.73
  Q 176.40 158.58 225.67 147.11
  Q 246.94 142.15 270.80 146.84
  Z"
/>
<path fill="#01214d" d="
  M 284.32 149.23
  L 278.02 148.89
  L 284.32 149.23
  Z"
/>
<path fill="#000000" d="
  M 278.02 148.89
  L 284.32 149.23
  Q 293.79 153.51 292.67 162.31
  C 291.95 167.99 286.35 171.82 280.84 169.64
  C 274.04 166.94 276.90 155.54 283.32 158.31
  Q 285.79 159.38 285.64 162.52
  A 0.34 0.34 0.0 0 1 285.00 162.66
  C 280.54 153.85 274.45 167.47 283.17 168.15
  C 288.21 168.55 291.66 162.55 288.80 158.17
  Q 283.91 150.68 276.08 155.81
  Q 275.37 152.45 271.25 154.13
  Q 270.06 154.61 269.95 153.80
  Q 273.29 150.01 278.02 148.89
  Z"
/>
<path fill="#01214d" d="
  M 265.03 151.97
  L 263.15 155.52
  Q 248.76 153.81 234.58 155.90
  C 232.67 156.18 231.48 156.01 231.00 154.03
  A 2.05 2.04 78.9 0 1 232.67 151.53
  Q 248.44 149.07 265.03 151.97
  Z"
/>
<path fill="#01214d" d="
  M 276.08 155.81
  L 274.42 157.89
  C 272.23 157.63 269.70 157.98 268.44 155.69
  L 269.95 153.80
  Q 270.06 154.61 271.25 154.13
  Q 275.37 152.45 276.08 155.81
  Z"
/>
<path fill="#000000" d="
  M 268.44 155.69
  C 269.70 157.98 272.23 157.63 274.42 157.89
  Q 271.85 161.99 273.25 167.06
  Q 269.28 163.69 265.67 165.39
  Q 265.41 159.78 268.44 155.69
  Z"
/>
<path fill="#01214d" d="
  M 153.05 237.28
  L 150.45 233.22
  C 156.19 198.60 180.44 169.17 213.22 156.73
  A 1.56 1.55 73.2 0 1 215.28 157.84
  L 215.74 159.90
  A 0.81 0.80 -18.3 0 1 215.27 160.82
  Q 203.45 165.86 198.54 169.03
  Q 161.97 192.58 154.74 235.70
  Q 154.66 236.18 154.26 236.45
  L 153.05 237.28
  Z"
/>
<path fill="#01214d" d="
  M 372.13 224.51
  L 363.10 225.34
  Q 363.47 224.76 363.40 224.24
  Q 363.38 224.12 363.19 224.05
  Q 362.97 223.97 362.93 223.74
  C 359.15 202.98 346.85 182.41 332.36 167.36
  A 0.68 0.68 0.0 0 1 332.38 166.40
  L 337.44 161.46
  A 0.70 0.69 -44.1 0 1 338.42 161.47
  Q 364.34 188.16 372.13 224.51
  Z"
/>
<path fill="#01214d" d="
  M 261.07 163.81
  C 260.82 166.81 259.95 168.71 256.57 168.74
  Q 248.61 168.81 240.56 168.74
  Q 240.03 168.74 239.94 168.22
  Q 239.44 165.25 238.06 163.15
  Q 249.83 161.33 261.07 163.81
  Z"
/>
<path fill="#01214d" d="
  M 346.61 234.05
  L 344.12 238.22
  L 343.44 237.82
  Q 343.00 237.57 342.92 237.07
  Q 336.34 195.77 302.76 171.69
  C 300.64 170.17 297.79 168.88 295.41 167.38
  L 296.73 164.20
  C 297.81 163.96 298.56 163.82 299.58 164.46
  Q 338.80 188.95 346.61 234.05
  Z"
/>
<path fill="#01214d" d="
  M 273.25 167.06
  L 274.84 170.10
  Q 273.98 171.51 272.02 170.65
  Q 269.78 169.66 266.15 168.96
  Q 265.55 167.67 265.67 165.39
  Q 269.28 163.69 273.25 167.06
  Z"
/>
<path fill="#01214d" d="
  M 223.22 167.12
  Q 222.44 169.33 224.07 169.94
  Q 222.13 171.18 214.38 174.67
  Q 191.59 184.95 177.76 207.51
  Q 164.75 228.74 165.76 256.75
  L 161.38 250.13
  Q 161.32 239.87 162.75 233.28
  Q 172.68 187.50 215.31 168.80
  Q 218.77 167.28 223.22 167.12
  Z"
/>
<path fill="#000000" d="
  M 274.84 170.10
  Q 278.80 174.49 284.50 175.07
  Q 316.64 191.76 327.61 225.32
  L 321.43 225.37
  Q 317.70 214.60 312.66 207.09
  Q 296.83 183.52 268.28 175.53
  Q 266.72 174.01 266.15 168.96
  Q 269.78 169.66 272.02 170.65
  Q 273.98 171.51 274.84 170.10
  Z"
/>
<path fill="#000000" d="
  M 227.33 179.04
  Q 226.54 180.56 227.60 182.51
  C 229.04 185.15 232.59 183.25 234.59 182.18
  C 237.36 184.88 242.05 188.89 239.75 193.26
  C 238.14 196.33 234.98 205.05 240.18 205.13
  Q 240.72 205.14 240.71 204.61
  C 240.68 202.21 240.74 200.40 242.15 198.34
  Q 245.77 193.04 249.45 187.94
  A 0.55 0.55 0.0 0 1 250.44 188.16
  Q 251.53 194.09 253.18 200.03
  C 253.81 202.34 253.56 203.63 251.16 204.37
  A 1.24 1.24 0.0 0 0 251.52 206.80
  L 255.36 206.82
  A 2.10 2.09 0.4 0 0 257.46 204.76
  Q 257.55 199.50 256.77 194.50
  Q 256.52 192.91 258.71 192.05
  Q 263.04 194.21 267.96 193.98
  C 270.87 197.90 273.76 201.12 279.19 200.47
  A 0.60 0.60 0.0 0 1 279.86 201.02
  Q 280.13 204.03 282.73 205.18
  Q 283.04 205.32 283.26 205.22
  Q 283.52 205.09 283.60 204.73
  Q 283.67 204.25 283.96 204.13
  Q 284.18 204.05 284.50 204.30
  Q 295.39 212.94 301.64 225.54
  L 271.71 225.53
  Q 271.22 225.53 271.22 226.02
  L 271.22 276.48
  Q 271.22 276.97 271.71 276.97
  L 299.17 276.99
  Q 299.33 280.57 302.23 280.92
  Q 302.74 280.98 303.12 280.63
  Q 304.56 279.31 303.91 277.05
  L 312.11 277.10
  Q 310.37 279.22 309.27 281.36
  C 303.74 292.18 295.85 300.78 285.58 307.42
  A 1.14 1.14 0.0 0 0 285.24 309.00
  L 288.93 314.76
  A 0.61 0.61 0.0 0 0 289.75 314.96
  Q 292.65 313.31 295.28 311.27
  Q 312.66 297.83 320.44 277.18
  L 327.07 276.88
  Q 311.76 316.15 272.55 329.10
  C 259.65 333.37 245.18 333.90 231.62 330.92
  Q 189.82 321.70 171.82 281.29
  C 171.29 280.11 171.07 278.39 170.79 277.10
  L 176.71 277.25
  Q 188.90 308.67 220.04 321.41
  Q 233.59 326.96 247.37 326.93
  A 1.39 1.38 0.0 0 0 248.76 325.55
  L 248.79 319.18
  A 0.74 0.73 1.2 0 0 248.08 318.45
  Q 221.30 317.60 202.53 300.62
  C 181.66 281.73 174.31 251.01 184.93 224.75
  Q 193.83 202.77 214.89 190.35
  A 1.73 1.72 68.3 0 0 215.69 188.47
  Q 214.92 185.13 212.43 182.76
  Q 212.07 182.42 211.58 182.50
  Q 209.90 182.78 208.22 183.90
  Q 169.16 210.13 171.76 257.21
  Q 171.88 259.33 172.97 263.16
  Q 173.90 266.39 174.03 269.84
  L 165.76 256.75
  Q 164.75 228.74 177.76 207.51
  Q 191.59 184.95 214.38 174.67
  Q 222.13 171.18 224.07 169.94
  Q 225.48 169.70 227.00 169.75
  C 231.72 169.91 231.26 176.26 225.79 175.93
  A 0.55 0.54 -88.1 0 0 225.21 176.48
  Q 225.20 178.28 227.33 179.04
  Z
  M 228.3390 172.7529
  A 1.07 1.07 0.0 0 0 227.2542 171.6979
  L 224.0745 171.7423
  A 1.07 1.07 0.0 0 0 223.0196 172.8271
  L 223.0210 172.9271
  A 1.07 1.07 0.0 0 0 224.1058 173.9821
  L 227.2855 173.9377
  A 1.07 1.07 0.0 0 0 228.3404 172.8529
  L 228.3390 172.7529
  Z
  M 231.27 190.68
  Q 228.39 190.29 224.99 191.75
  Q 208.99 198.62 198.59 211.55
  Q 192.73 218.84 192.11 225.30
  L 189.08 225.57
  Q 188.51 225.62 188.50 226.20
  L 188.35 238.18
  C 185.67 240.61 186.05 242.57 185.90 245.81
  Q 185.63 251.34 186.11 256.85
  C 186.33 259.45 187.70 261.63 188.40 264.19
  L 188.48 276.48
  Q 188.48 277.00 189.01 277.00
  L 209.53 277.00
  Q 210.06 277.00 210.06 276.47
  L 210.04 262.73
  Q 210.04 262.15 210.62 262.16
  Q 227.47 262.53 235.00 261.79
  C 247.01 260.61 260.35 256.78 258.54 241.90
  C 256.74 227.13 239.65 225.76 228.22 225.63
  Q 212.06 225.45 195.62 225.51
  Q 201.29 216.13 205.65 211.15
  Q 215.11 200.35 229.35 194.69
  A 0.57 0.56 68.1 0 1 230.09 195.01
  Q 230.23 195.34 230.07 195.97
  L 227.85 202.81
  A 0.94 0.94 0.0 0 1 227.11 203.44
  C 224.72 203.80 222.57 203.03 221.88 206.02
  A 0.52 0.52 0.0 0 0 222.28 206.65
  Q 228.62 208.03 232.00 202.73
  Q 234.21 199.27 237.34 193.37
  C 239.14 190.00 237.40 188.01 234.77 186.13
  A 1.64 1.64 0.0 0 0 232.24 187.04
  L 231.27 190.68
  Z
  M 240.12 307.63
  Q 219.81 304.96 205.42 289.04
  Q 204.00 287.47 203.24 287.33
  Q 201.82 287.07 200.37 289.04
  A 0.77 0.76 43.7 0 0 200.40 289.99
  C 218.70 312.18 250.06 318.81 276.03 306.30
  Q 284.25 302.35 293.23 293.92
  Q 293.63 293.55 293.44 293.03
  Q 292.75 291.13 290.80 290.63
  A 0.88 0.87 -59.4 0 0 289.96 290.85
  Q 268.84 311.39 240.12 307.63
  Z"
/>
<rect fill="#cccccd" x="-2.66" y="-1.12" transform="translate(225.68,172.84) rotate(-0.8)" width="5.32" height="2.24" rx="1.07"/>
<path fill="#01214d" d="
  M 289.95 173.08
  Q 320.29 190.12 331.59 223.02
  C 332.13 224.57 331.83 226.77 332.39 227.99
  C 337.08 238.29 336.18 253.93 334.60 265.25
  Q 334.49 266.00 333.26 266.75
  L 333.03 264.89
  Q 332.96 264.31 332.37 264.30
  L 330.02 264.25
  Q 332.11 251.02 330.42 238.40
  L 330.28 226.28
  Q 330.27 225.71 329.71 225.62
  L 327.61 225.32
  Q 316.64 191.76 284.50 175.07
  L 289.95 173.08
  Z"
/>
<path fill="#01214d" d="
  M 267.96 193.98
  Q 263.04 194.21 258.71 192.05
  Q 259.93 191.06 260.25 189.88
  Q 260.43 189.23 260.00 188.71
  L 255.36 183.15
  A 1.00 0.99 57.6 0 0 254.18 182.88
  Q 252.18 183.78 251.16 185.80
  A 0.62 0.62 0.0 0 1 249.99 185.63
  L 248.55 177.63
  A 0.84 0.83 62.9 0 1 248.79 176.88
  L 249.54 176.16
  A 1.73 1.73 0.0 0 1 252.03 176.25
  L 267.96 193.98
  Z"
/>
<path fill="#01214d" d="
  M 321.43 225.37
  L 312.57 225.44
  Q 300.76 196.82 271.81 185.32
  L 268.28 175.53
  Q 296.83 183.52 312.66 207.09
  Q 317.70 214.60 321.43 225.37
  Z"
/>
<path fill="#01214d" d="
  M 227.33 179.04
  Q 232.48 177.90 234.59 182.18
  C 232.59 183.25 229.04 185.15 227.60 182.51
  Q 226.54 180.56 227.33 179.04
  Z"
/>
<path fill="#01214d" d="
  M 176.71 277.25
  Q 178.43 276.88 178.12 276.45
  Q 175.45 272.74 174.03 269.84
  Q 173.90 266.39 172.97 263.16
  Q 171.88 259.33 171.76 257.21
  Q 169.16 210.13 208.22 183.90
  Q 209.90 182.78 211.58 182.50
  Q 212.07 182.42 212.43 182.76
  Q 214.92 185.13 215.69 188.47
  A 1.73 1.72 68.3 0 1 214.89 190.35
  Q 193.83 202.77 184.93 224.75
  C 174.31 251.01 181.66 281.73 202.53 300.62
  Q 221.30 317.60 248.08 318.45
  A 0.74 0.73 1.2 0 1 248.79 319.18
  L 248.76 325.55
  A 1.39 1.38 -0.0 0 1 247.37 326.93
  Q 233.59 326.96 220.04 321.41
  Q 188.90 308.67 176.71 277.25
  Z"
/>
<path fill="#000000" d="
  M 271.81 185.32
  Q 300.76 196.82 312.57 225.44
  L 306.01 225.34
  Q 299.98 211.16 287.88 200.90
  Q 285.80 199.13 283.72 198.74
  Q 283.79 197.30 283.05 196.14
  Q 282.76 195.69 282.23 195.70
  C 278.93 195.75 276.47 196.32 274.79 192.76
  Q 273.06 189.08 271.81 185.32
  Z"
/>
<path fill="#cccccd" d="
  M 230.07 195.97
  L 231.27 190.68
  L 232.24 187.04
  A 1.64 1.64 0.0 0 1 234.77 186.13
  C 237.40 188.01 239.14 190.00 237.34 193.37
  Q 234.21 199.27 232.00 202.73
  Q 228.62 208.03 222.28 206.65
  A 0.52 0.52 0.0 0 1 221.88 206.02
  C 222.57 203.03 224.72 203.80 227.11 203.44
  A 0.94 0.94 0.0 0 0 227.85 202.81
  L 230.07 195.97
  Z"
/>
<path fill="#01214d" d="
  M 231.27 190.68
  L 230.07 195.97
  Q 230.23 195.34 230.09 195.01
  A 0.57 0.56 68.1 0 0 229.35 194.69
  Q 215.11 200.35 205.65 211.15
  Q 201.29 216.13 195.62 225.51
  L 192.11 225.30
  Q 192.73 218.84 198.59 211.55
  Q 208.99 198.62 224.99 191.75
  Q 228.39 190.29 231.27 190.68
  Z"
/>
<path fill="#01214d" d="
  M 283.72 198.74
  Q 285.80 199.13 287.88 200.90
  Q 299.98 211.16 306.01 225.34
  L 301.64 225.54
  Q 295.39 212.94 284.50 204.30
  Q 284.18 204.05 283.96 204.13
  Q 283.67 204.25 283.60 204.73
  L 283.72 198.74
  Z"
/>
<path fill="#ffffff" d="
  M 372.13 224.51
  L 375.78 224.41
  L 385.03 225.27
  L 390.85 226.71
  L 395.08 228.55
  Q 402.35 232.57 404.82 241.36
  Q 404.99 241.94 404.38 241.94
  L 386.54 241.97
  C 384.10 242.25 382.84 242.18 380.72 240.65
  Q 374.12 235.89 366.91 240.94
  Q 365.62 241.84 365.81 242.39
  A 2.42 2.30 -6.4 0 0 367.85 243.93
  L 387.30 245.75
  C 395.95 246.55 407.50 250.86 404.71 261.48
  Q 402.35 270.46 393.99 274.59
  L 389.80 276.42
  L 384.23 277.55
  L 374.69 278.08
  L 371.53 278.06
  L 363.02 277.34
  L 359.38 276.53
  L 351.26 273.10
  Q 345.08 268.93 343.13 261.28
  Q 342.98 260.68 343.60 260.68
  L 353.51 260.66
  L 365.25 260.77
  Q 365.78 260.77 366.15 261.13
  Q 369.37 264.23 373.27 264.17
  Q 379.09 264.62 381.91 260.70
  A 1.13 1.13 0.0 0 0 381.15 258.92
  L 373.46 257.90
  Q 363.76 257.52 354.27 255.61
  C 345.70 253.64 340.09 247.02 344.12 238.22
  L 346.61 234.05
  Q 351.96 226.94 363.10 225.34
  L 372.13 224.51
  Z"
/>
<path fill="#ffffff" d="
  M 137.35 225.70
  L 146.18 226.11
  L 150.45 233.22
  L 153.05 237.28
  L 161.38 250.13
  L 165.76 256.75
  L 174.03 269.84
  Q 175.45 272.74 178.12 276.45
  Q 178.43 276.88 176.71 277.25
  L 170.79 277.10
  L 165.68 277.22
  L 157.42 277.26
  L 151.53 268.75
  L 144.93 268.66
  L 123.57 268.61
  L 119.08 268.77
  L 113.87 277.04
  L 93.24 276.92
  Q 92.55 276.91 92.92 276.33
  L 110.99 248.01
  L 118.51 236.05
  L 125.11 226.09
  Q 125.41 225.63 125.97 225.64
  L 137.35 225.70
  Z
  M 130.16 249.80
  L 127.10 255.02
  Q 126.78 255.57 127.39 255.72
  Q 128.70 256.05 130.27 255.73
  L 135.89 255.67
  L 143.45 255.69
  Q 144.15 255.70 143.80 255.09
  L 136.62 242.54
  L 135.86 241.12
  Q 135.51 240.47 135.15 241.11
  L 130.16 249.80
  Z"
/>
<path fill="#ffffff" d="
  M 192.11 225.30
  L 195.62 225.51
  Q 212.06 225.45 228.22 225.63
  C 239.65 225.76 256.74 227.13 258.54 241.90
  C 260.35 256.78 247.01 260.61 235.00 261.79
  Q 227.47 262.53 210.62 262.16
  Q 210.04 262.15 210.04 262.73
  L 210.06 276.47
  Q 210.06 277.00 209.53 277.00
  L 189.01 277.00
  Q 188.48 277.00 188.48 276.48
  L 188.40 264.19
  L 188.35 238.18
  L 188.50 226.20
  Q 188.51 225.62 189.08 225.57
  L 192.11 225.30
  Z
  M 210.06 238.70
  L 210.04 249.04
  A 0.31 0.31 0.0 0 0 210.35 249.35
  L 227.73 249.38
  A 9.29 4.49 0.1 0 0 237.03 244.90
  L 237.03 242.92
  A 9.29 4.49 0.1 0 0 227.75 238.42
  L 210.37 238.39
  A 0.31 0.31 0.0 0 0 210.06 238.70
  Z"
/>
<path fill="#ffffff" d="
  M 301.64 225.54
  L 306.01 225.34
  L 312.57 225.44
  L 321.43 225.37
  L 327.61 225.32
  L 329.71 225.62
  Q 330.27 225.71 330.28 226.28
  L 330.42 238.40
  L 324.93 238.32
  L 315.90 238.34
  L 309.70 238.38
  L 306.12 238.40
  L 293.40 238.39
  Q 292.79 238.39 292.79 239.00
  L 292.81 245.73
  Q 292.81 246.28 293.37 246.28
  L 307.34 246.25
  L 310.33 246.21
  L 317.39 246.28
  L 324.02 246.50
  A 0.50 0.50 0.0 0 1 324.51 246.99
  L 324.59 255.52
  A 0.64 0.64 0.0 0 1 323.96 256.17
  L 316.73 256.30
  L 293.28 256.31
  Q 292.80 256.32 292.80 256.79
  L 292.80 263.73
  Q 292.80 264.23 293.30 264.23
  L 316.10 264.21
  L 324.78 264.21
  L 330.02 264.25
  L 332.37 264.30
  Q 332.96 264.31 333.03 264.89
  L 333.26 266.75
  L 333.18 276.46
  Q 333.17 276.96 332.67 276.98
  L 330.45 277.04
  L 327.07 276.88
  L 320.44 277.18
  L 312.11 277.10
  L 303.91 277.05
  L 299.17 276.99
  L 271.71 276.97
  Q 271.22 276.97 271.22 276.48
  L 271.22 226.02
  Q 271.22 225.53 271.71 225.53
  L 301.64 225.54
  Z"
/>
<path fill="#01214d" d="
  M 188.35 238.18
  L 188.40 264.19
  C 187.70 261.63 186.33 259.45 186.11 256.85
  Q 185.63 251.34 185.90 245.81
  C 186.05 242.57 185.67 240.61 188.35 238.18
  Z"
/>
<path fill="#000000" d="
  M 210.06 238.70
  A 0.31 0.31 0.0 0 1 210.37 238.39
  L 227.75 238.42
  A 9.29 4.49 0.1 0 1 237.03 242.92
  L 237.03 244.90
  A 9.29 4.49 0.1 0 1 227.73 249.38
  L 210.35 249.35
  A 0.31 0.31 0.0 0 1 210.04 249.04
  L 210.06 238.70
  Z"
/>
<path fill="#000000" d="
  M 306.12 238.40
  Q 305.68 242.57 307.34 246.25
  L 293.37 246.28
  Q 292.81 246.28 292.81 245.73
  L 292.79 239.00
  Q 292.79 238.39 293.40 238.39
  L 306.12 238.40
  Z"
/>
<path fill="#01214d" d="
  M 309.70 238.38
  Q 311.59 242.90 310.33 246.21
  L 307.34 246.25
  Q 305.68 242.57 306.12 238.40
  L 309.70 238.38
  Z"
/>
<path fill="#000000" d="
  M 309.70 238.38
  L 315.90 238.34
  L 317.39 246.28
  L 310.33 246.21
  Q 311.59 242.90 309.70 238.38
  Z"
/>
<path fill="#01214d" d="
  M 315.90 238.34
  L 324.93 238.32
  C 325.24 241.74 325.81 244.26 325.18 247.85
  Q 324.52 251.55 324.98 255.28
  C 325.37 258.52 324.85 261.10 324.78 264.21
  L 316.10 264.21
  L 316.73 256.30
  L 323.96 256.17
  A 0.64 0.64 0.0 0 0 324.59 255.52
  L 324.51 246.99
  A 0.50 0.50 0.0 0 0 324.02 246.50
  L 317.39 246.28
  L 315.90 238.34
  Z"
/>
<path fill="#000000" d="
  M 324.93 238.32
  L 330.42 238.40
  Q 332.11 251.02 330.02 264.25
  L 324.78 264.21
  C 324.85 261.10 325.37 258.52 324.98 255.28
  Q 324.52 251.55 325.18 247.85
  C 325.81 244.26 325.24 241.74 324.93 238.32
  Z"
/>
<path fill="#01214d" d="
  M 386.54 241.97
  L 387.30 245.75
  L 367.85 243.93
  A 2.42 2.30 -6.4 0 1 365.81 242.39
  Q 365.62 241.84 366.91 240.94
  Q 374.12 235.89 380.72 240.65
  C 382.84 242.18 384.10 242.25 386.54 241.97
  Z"
/>
<path fill="#000000" d="
  M 136.62 242.54
  L 135.57 243.21
  Q 135.15 243.48 135.04 243.97
  Q 133.80 249.80 135.89 255.67
  L 130.27 255.73
  Q 132.15 251.69 130.16 249.80
  L 135.15 241.11
  Q 135.51 240.47 135.86 241.12
  L 136.62 242.54
  Z"
/>
<path fill="#01214d" d="
  M 136.62 242.54
  L 143.80 255.09
  Q 144.15 255.70 143.45 255.69
  L 135.89 255.67
  Q 133.80 249.80 135.04 243.97
  Q 135.15 243.48 135.57 243.21
  L 136.62 242.54
  Z"
/>
<path fill="#01214d" d="
  M 130.16 249.80
  Q 132.15 251.69 130.27 255.73
  Q 128.70 256.05 127.39 255.72
  Q 126.78 255.57 127.10 255.02
  L 130.16 249.80
  Z"
/>
<path fill="#01214d" d="
  M 354.27 255.61
  Q 363.76 257.52 373.46 257.90
  Q 374.87 261.09 373.27 264.17
  Q 369.37 264.23 366.15 261.13
  Q 365.78 260.77 365.25 260.77
  L 353.51 260.66
  L 354.27 255.61
  Z"
/>
<path fill="#000000" d="
  M 316.73 256.30
  L 316.10 264.21
  L 293.30 264.23
  Q 292.80 264.23 292.80 263.73
  L 292.80 256.79
  Q 292.80 256.32 293.28 256.31
  L 316.73 256.30
  Z"
/>
<path fill="#000000" d="
  M 373.46 257.90
  L 381.15 258.92
  A 1.13 1.13 0.0 0 1 381.91 260.70
  Q 379.09 264.62 373.27 264.17
  Q 374.87 261.09 373.46 257.90
  Z"
/>
<path fill="#01214d" d="
  M 123.57 268.61
  L 144.93 268.66
  Q 150.32 297.30 168.07 317.92
  Q 200.62 355.73 252.04 355.25
  A 0.48 0.47 88.0 0 1 252.51 355.70
  L 252.86 362.61
  A 1.33 1.33 0.0 0 1 251.55 364.01
  C 204.52 364.51 162.71 338.09 144.04 295.22
  Q 139.22 284.15 136.13 269.37
  A 0.84 0.84 0.0 0 0 135.33 268.69
  L 133.89 268.62
  Q 132.44 268.56 132.71 269.98
  Q 137.23 294.51 150.12 314.15
  C 173.02 349.02 211.69 369.24 253.50 367.39
  Q 283.53 366.07 309.01 350.76
  A 1.54 1.54 0.0 0 1 311.09 351.24
  L 314.63 356.65
  Q 314.93 357.11 314.46 357.40
  C 265.16 387.69 202.04 380.94 160.63 340.47
  Q 135.84 316.24 126.76 281.95
  Q 124.99 275.28 123.57 268.61
  Z"
/>
<path fill="#01214d" d="
  M 119.08 268.77
  L 120.26 270.06
  A 1.36 1.31 20.6 0 1 120.59 270.75
  Q 124.39 295.30 137.13 316.56
  A 1.01 1.01 0.0 0 1 136.78 317.95
  L 130.87 321.48
  Q 130.26 321.84 129.90 321.23
  Q 119.59 303.75 114.09 282.64
  Q 113.17 279.12 113.87 277.04
  L 119.08 268.77
  Z"
/>
<path fill="#01214d" d="
  M 151.53 268.75
  L 157.42 277.26
  Q 162.28 293.37 171.49 305.76
  Q 199.56 343.52 247.84 345.18
  Q 248.42 345.20 248.67 345.72
  Q 249.45 347.35 248.57 348.99
  Q 248.34 349.42 247.85 349.42
  C 208.19 349.14 174.75 326.64 157.95 291.02
  Q 152.61 279.69 151.53 268.75
  Z"
/>
<path fill="#01214d" d="
  M 351.26 273.10
  L 359.38 276.53
  Q 357.17 285.29 354.27 292.22
  Q 336.84 333.98 295.24 354.06
  A 2.11 2.10 67.3 0 1 292.34 352.86
  L 290.43 347.44
  A 0.91 0.91 0.0 0 1 290.90 346.32
  Q 338.32 324.20 351.26 273.10
  Z"
/>
<path fill="#01214d" d="
  M 393.99 274.59
  Q 395.03 276.46 394.73 277.91
  C 382.43 338.32 335.53 385.34 275.49 396.21
  Q 256.32 399.67 234.45 397.78
  C 175.31 392.67 126.28 352.25 107.51 296.73
  Q 105.48 290.73 104.22 284.80
  A 1.87 1.86 -16.5 0 1 105.39 282.66
  C 107.22 281.98 108.05 282.67 108.50 284.44
  C 124.84 349.15 182.35 394.43 249.42 394.71
  C 256.32 394.73 263.89 393.46 271.11 392.60
  Q 280.89 391.42 292.85 387.44
  C 327.80 375.78 356.95 351.57 374.87 319.62
  Q 385.54 300.59 389.80 276.42
  L 393.99 274.59
  Z"
/>
<path fill="#01214d" d="
  M 343.88 278.28
  C 339.36 292.48 333.08 304.64 323.64 315.40
  Q 298.71 343.83 260.86 348.70
  A 0.79 0.77 -4.8 0 1 259.98 347.97
  L 259.85 345.74
  A 1.43 1.43 0.0 0 1 261.08 344.25
  C 298.99 339.19 328.30 312.25 339.97 276.75
  Q 340.19 276.09 340.89 276.15
  Q 342.49 276.29 343.68 277.46
  A 0.81 0.81 0.0 0 1 343.88 278.28
  Z"
/>
<path fill="#01214d" d="
  M 165.68 277.22
  L 170.79 277.10
  C 171.07 278.39 171.29 280.11 171.82 281.29
  Q 189.82 321.70 231.62 330.92
  C 245.18 333.90 259.65 333.37 272.55 329.10
  Q 311.76 316.15 327.07 276.88
  L 330.45 277.04
  Q 331.00 278.46 330.63 279.49
  C 312.11 331.76 249.14 353.69 202.09 323.75
  Q 176.24 307.31 165.68 277.22
  Z"
/>
<path fill="#01214d" d="
  M 299.17 276.99
  L 303.91 277.05
  Q 304.56 279.31 303.12 280.63
  Q 302.74 280.98 302.23 280.92
  Q 299.33 280.57 299.17 276.99
  Z"
/>
<path fill="#01214d" d="
  M 312.11 277.10
  L 320.44 277.18
  Q 312.66 297.83 295.28 311.27
  Q 292.65 313.31 289.75 314.96
  A 0.61 0.61 0.0 0 1 288.93 314.76
  L 285.24 309.00
  A 1.14 1.14 0.0 0 1 285.58 307.42
  C 295.85 300.78 303.74 292.18 309.27 281.36
  Q 310.37 279.22 312.11 277.10
  Z"
/>
<path fill="#01214d" d="
  M 363.02 277.34
  L 371.53 278.06
  Q 361.59 319.62 329.16 346.88
  A 0.75 0.75 0.0 0 1 328.10 346.79
  L 324.10 342.01
  A 1.50 1.50 0.0 0 1 324.28 339.90
  Q 348.54 319.27 359.00 289.18
  Q 361.03 283.35 363.02 277.34
  Z"
/>
<path fill="#01214d" d="
  M 384.23 277.55
  Q 372.84 329.95 331.26 360.97
  C 275.98 402.22 200.10 396.47 150.84 348.11
  A 0.78 0.77 44.7 0 1 150.83 347.01
  L 155.66 342.18
  A 0.98 0.98 0.0 0 1 157.03 342.17
  C 195.05 379.56 250.81 390.15 299.77 369.34
  Q 308.92 365.46 317.45 360.04
  Q 359.83 333.13 373.86 283.61
  C 374.36 281.86 374.39 279.95 374.69 278.08
  L 384.23 277.55
  Z"
/>
<path fill="#01214d" d="
  M 240.12 307.63
  Q 268.84 311.39 289.96 290.85
  A 0.88 0.87 -59.4 0 1 290.80 290.63
  Q 292.75 291.13 293.44 293.03
  Q 293.63 293.55 293.23 293.92
  Q 284.25 302.35 276.03 306.30
  C 250.06 318.81 218.70 312.18 200.40 289.99
  A 0.77 0.76 43.7 0 1 200.37 289.04
  Q 201.82 287.07 203.24 287.33
  Q 204.00 287.47 205.42 289.04
  Q 219.81 304.96 240.12 307.63
  Z"
/>
</svg>
