<svg width="500" height="500" viewBox="0 0 500 500" fill="none" xmlns="http://www.w3.org/2000/svg">
<rect width="500" height="500" fill="#F5F5F5"/>
<path d="M65.202 128.834C71.148 107.186 84.228 88.6806 103.14 76.9296C122.604 64.8334 144.042 61.0067 167.454 65.4495C167.714 65.4989 167.983 65.4468 168.207 65.3037C168.431 65.1607 168.593 64.9373 168.66 64.6789L168.828 64.0468C168.861 63.92 168.868 63.7878 168.848 63.6585C168.828 63.5291 168.782 63.4053 168.713 63.2947C168.644 63.1841 168.553 63.089 168.446 63.0155C168.338 62.9419 168.217 62.8913 168.09 62.8669C143.522 58.0509 121.1 62.1585 100.824 75.1898C82.572 86.9168 69.648 104.748 63.504 125.661C63.27 126.456 63.228 127.341 62.952 128.202C62.9191 128.306 62.9278 128.419 62.9761 128.515C63.0243 128.612 63.1084 128.686 63.21 128.72L64.566 129.171C64.898 129.284 65.11 129.171 65.202 128.834Z" stroke="#011127" stroke-width="2"/>
<path d="M66.594 149.302L55.752 166.351C55.604 166.583 55.668 166.702 55.944 166.706L68.322 166.778" stroke="#808080" stroke-width="2"/>
<path d="M68.322 166.778C68.042 167.613 68.086 168.737 68.454 170.149C70.654 178.621 73.816 186.365 77.94 193.38C78.084 193.625 78.278 193.675 78.522 193.531L82.068 191.406C82.1367 191.365 82.1968 191.311 82.2446 191.247C82.2924 191.182 82.3271 191.109 82.3466 191.031C82.3661 190.954 82.3701 190.873 82.3583 190.793C82.3465 190.714 82.3192 190.638 82.278 190.569C77.182 182.037 73.874 172.844 72.354 162.991C72.3305 162.838 72.2616 162.694 72.156 162.576L71.448 161.8" stroke="#011127" stroke-width="2"/>
<path d="M71.448 161.8L74.142 161.703" stroke="#808080" stroke-width="2"/>
<path d="M74.142 161.703C74.71 164.38 75.348 167.057 76.056 169.734C79.688 183.496 86.462 195.239 96.378 204.963C121.224 229.326 159.096 233.389 188.676 215.155C188.864 215.038 188.898 214.888 188.778 214.703L186.654 211.446C186.523 211.246 186.321 211.104 186.088 211.05C185.855 210.996 185.611 211.035 185.406 211.158C175.214 217.302 164.112 220.639 152.1 221.169C127.014 222.282 103.812 210.11 90.072 189.118C84.916 181.236 81.434 172.373 79.626 162.528C79.518 161.958 79.754 161.685 80.334 161.709L81.198 161.751C81.3125 161.755 81.4224 161.797 81.5096 161.872C81.5968 161.946 81.6562 162.048 81.678 162.161C82.914 168.092 84.496 173.28 86.424 177.722C97.626 203.53 122.712 219.435 150.93 219.134C151.037 219.133 151.143 219.109 151.242 219.066C151.34 219.022 151.428 218.959 151.502 218.88C151.575 218.802 151.632 218.709 151.669 218.608C151.706 218.507 151.722 218.399 151.716 218.291L151.506 214.131C151.501 214.058 151.47 213.989 151.417 213.939C151.365 213.888 151.296 213.86 151.224 213.861C130.656 214.053 113.862 206.562 100.842 191.388C93.742 183.112 89.114 173.228 86.958 161.733" stroke="#011127" stroke-width="2"/>
<path d="M86.958 161.733L90.918 161.788" stroke="#808080" stroke-width="2"/>
<path d="M90.918 161.788C91.35 166.178 92.634 170.647 94.77 175.194C104.85 196.637 124.914 210.182 148.71 210.351C148.906 210.351 149.05 210.265 149.142 210.092C149.494 209.434 149.514 208.778 149.202 208.123C149.102 207.915 148.936 207.806 148.704 207.798C129.392 207.132 114.122 199.222 102.894 184.068C99.21 179.095 96.396 173.376 94.452 166.911" stroke="#011127" stroke-width="2"/>
<path d="M94.452 166.911L99.408 166.886" stroke="#808080" stroke-width="2"/>
<path d="M99.408 166.886C103.632 178.963 110.914 188.3 121.254 194.898C149.484 212.921 187.266 199.72 198.378 168.253C198.526 167.84 198.49 167.348 198.27 166.778" stroke="#011127" stroke-width="2"/>
<path d="M198.27 166.778L199.602 166.742C199.802 166.734 199.904 166.63 199.908 166.429L199.956 160.584" stroke="#808080" stroke-width="2"/>
<path d="M199.956 160.584C200.448 160.283 200.716 159.982 200.76 159.681C201.708 152.866 202.248 143.451 199.434 137.25C199.098 136.516 199.278 135.191 198.954 134.258C194.434 121.054 186.106 111.033 173.97 104.194" stroke="#011127" stroke-width="2"/>
<path d="M173.97 104.194C175.31 103.347 176.402 102.204 177.246 100.763" stroke="#666667" stroke-width="2"/>
<path d="M177.246 100.763C178.674 101.666 180.384 102.442 181.656 103.357C195.088 113.021 203.12 126.141 205.752 142.716C205.784 142.917 205.888 143.067 206.064 143.168L206.472 143.408" stroke="#011127" stroke-width="2"/>
<path d="M206.472 143.408C204.054 148.706 207.42 152.691 212.562 153.877" stroke="#808080" stroke-width="2"/>
<path d="M212.562 153.877L212.106 156.917" stroke="#011127" stroke-width="2"/>
<path d="M212.106 156.917L206.16 156.929C205.912 156.929 205.818 157.05 205.878 157.291C206.658 160.361 208.284 162.733 210.756 164.406" stroke="#808080" stroke-width="2"/>
<path d="M210.756 164.406C205.58 184.914 193.508 199.607 174.54 208.485C174.418 208.542 174.322 208.643 174.27 208.768C174.218 208.892 174.214 209.031 174.258 209.159L175.404 212.422C175.463 212.59 175.557 212.744 175.68 212.874C175.802 213.004 175.951 213.106 176.115 213.174C176.279 213.242 176.456 213.275 176.633 213.27C176.81 213.265 176.984 213.222 177.144 213.144C193.784 205.085 205.59 192.676 212.562 175.916C213.722 173.135 214.744 169.987 215.628 166.471" stroke="#011127" stroke-width="2"/>
<path d="M215.628 166.471L217.812 166.959" stroke="#808080" stroke-width="2"/>
<path d="M217.812 166.959C217.016 169.371 216.212 171.747 215.4 174.086C211.216 186.162 204.272 196.34 194.568 204.62C194.386 204.774 194.273 204.994 194.252 205.233C194.232 205.471 194.307 205.707 194.46 205.89L196.86 208.768C196.898 208.813 196.945 208.851 196.997 208.878C197.05 208.906 197.108 208.922 197.167 208.927C197.226 208.932 197.285 208.926 197.342 208.908C197.398 208.889 197.451 208.86 197.496 208.822C210.468 197.881 218.942 184.072 222.918 167.392" stroke="#011127" stroke-width="2"/>
<path d="M222.918 167.392L224.814 167.404" stroke="#808080" stroke-width="2"/>
<path d="M224.814 167.404C224.634 168.53 224.616 169.68 224.316 170.733C218.704 190.607 207.422 205.944 190.47 216.744C187.058 218.919 183.522 220.786 179.862 222.343C150.486 234.87 117.03 228.495 94.218 205.986C94.1073 205.879 93.9594 205.82 93.8058 205.821C93.6521 205.822 93.5051 205.884 93.396 205.992L90.498 208.9C90.4548 208.943 90.4207 208.995 90.3977 209.051C90.3746 209.108 90.363 209.169 90.3636 209.231C90.3641 209.292 90.3768 209.353 90.4009 209.41C90.425 209.467 90.4601 209.519 90.504 209.562C120.06 238.675 165.588 242.136 198.756 217.304C215.388 204.855 225.982 188.115 230.538 167.085" stroke="#011127" stroke-width="2"/>
<path d="M230.538 167.085L233.88 166.405" stroke="#808080" stroke-width="2"/>
<path d="M233.88 166.405C232.176 176.105 229.19 184.774 224.922 192.411C214.17 211.645 196.68 226.22 175.71 233.239C170.926 234.836 166.578 235.872 162.666 236.345C158.334 236.863 153.792 237.627 149.652 237.615C109.41 237.447 74.904 210.188 65.1 171.233C64.83 170.167 64.332 169.752 63.234 170.161C62.9818 170.257 62.7722 170.439 62.6433 170.676C62.5144 170.912 62.4749 171.187 62.532 171.45C63.036 173.83 63.694 176.223 64.506 178.631C75.768 212.055 105.186 236.387 140.67 239.464C149.418 240.222 157.626 239.907 165.294 238.518C201.318 231.975 229.458 203.669 236.838 167.302C236.958 166.72 236.81 166.054 236.394 165.303" stroke="#011127" stroke-width="2"/>
<path d="M236.394 165.303C239.738 163.646 241.882 161.015 242.826 157.411C244.5 151.018 237.57 148.423 232.38 147.941" stroke="#808080" stroke-width="2"/>
<path d="M232.38 147.942L231.924 145.666" stroke="#011127" stroke-width="2"/>
<path d="M231.924 145.666L242.628 145.648C242.872 145.648 242.96 145.532 242.892 145.299C241.904 141.771 239.956 139.2 237.048 137.587" stroke="#808080" stroke-width="2"/>
<path d="M237.048 137.587C236.536 132.538 235.866 128.617 235.038 125.824C233.846 121.811 231.832 116.898 228.996 111.087C220.82 94.3475 208.64 81.3964 192.456 72.234C192.064 72.0133 191.516 71.7665 190.812 71.4935C190.62 71.4213 190.438 71.4414 190.266 71.5537C189.666 71.939 189.34 72.4567 189.288 73.1069C189.272 73.3276 189.36 73.4922 189.552 73.6005C214.288 87.4345 229.274 108.394 234.51 136.479" stroke="#011127" stroke-width="2"/>
<path d="M234.51 136.479L231.018 135.613" stroke="#808080" stroke-width="2"/>
<path d="M231.018 135.613C229.778 130.439 228.898 127.048 228.378 125.439C223.074 109.068 213.888 95.6618 200.82 85.2191C172.488 62.5899 131.886 60.7358 102.024 81.7937C83.572 94.809 72.026 112.644 67.386 135.299C66.822 138.069 66.744 141.362 66.342 144.366C66.234 145.196 66.228 146.019 66.324 146.834C66.416 147.612 66.506 148.435 66.594 149.302" stroke="#011127" stroke-width="2"/>
<path d="M231.018 135.613L225.468 135.095" stroke="#8090A6" stroke-width="2"/>
<path d="M225.468 135.095C221.996 118.171 213.924 103.961 201.252 92.4672C188.56 80.949 173.878 74.357 157.206 72.6915C116.946 68.6641 79.578 95.9588 72.696 136.365C72.576 137.063 72.274 137.908 71.79 138.899C71.246 140.015 71.018 141.083 71.106 142.102" stroke="#011127" stroke-width="2"/>
<path d="M71.106 142.102L66.594 149.302" stroke="#8090A6" stroke-width="2"/>
<path d="M102.474 166.814L99.408 166.886" stroke="#8090A6" stroke-width="2"/>
<path d="M94.452 166.911L90.918 161.788" stroke="#8090A6" stroke-width="2"/>
<path d="M86.958 161.734L74.142 161.703" stroke="#8090A6" stroke-width="2"/>
<path d="M71.448 161.8L68.322 166.778" stroke="#8090A6" stroke-width="2"/>
<path d="M225.468 135.095L223.278 135.156" stroke="#808080" stroke-width="2"/>
<path d="M223.278 135.155C220.162 120.567 213.42 107.917 203.052 97.2049C202.976 97.1262 202.871 97.0814 202.761 97.0803C202.651 97.0791 202.544 97.1218 202.464 97.1989L199.428 100.173C199.35 100.248 199.305 100.351 199.303 100.459C199.301 100.568 199.341 100.672 199.416 100.751C208.11 109.811 215.49 122.194 217.758 134.691C217.774 134.784 217.826 134.846 217.914 134.878C217.99 134.906 218.032 134.944 218.04 134.992C218.068 135.201 218.008 135.422 217.86 135.655" stroke="#011127" stroke-width="2"/>
<path d="M217.86 135.655C213.404 136.297 210.106 138.045 207.966 140.898" stroke="#808080" stroke-width="2"/>
<path d="M207.966 140.898C204.842 122.798 195.436 108.834 179.748 99.0049C179.136 98.6197 178.686 98.7039 178.038 98.8484" stroke="#011127" stroke-width="2"/>
<path d="M178.038 98.8484C178.518 96.4725 178.316 94.6846 177.432 93.4846" stroke="#666667" stroke-width="2"/>
<path d="M177.432 93.4846C190.876 100.693 200.762 111.26 207.09 125.186C207.17 125.367 207.304 125.421 207.492 125.348L211.212 123.849C211.3 123.814 211.38 123.761 211.447 123.694C211.515 123.627 211.568 123.547 211.604 123.459C211.639 123.37 211.657 123.276 211.656 123.181C211.655 123.085 211.634 122.992 211.596 122.904C207.558 113.766 201.774 105.723 194.238 99.1193C178.982 85.7509 161.116 80.1704 140.64 82.3777C136.608 82.8152 132.708 83.6479 128.94 84.876C106.332 92.2385 90.018 109.257 83.112 132.145C82.96 132.643 82.726 133.885 82.41 135.871" stroke="#011127" stroke-width="2"/>
<path d="M82.41 135.871L75.582 135.835C75.358 135.831 75.186 135.922 75.066 136.106L71.106 142.102" stroke="#808080" stroke-width="2"/>
<path d="M231.924 145.666C230.46 145.835 229.704 145.792 228.432 144.871C225.792 142.961 223.03 143.019 220.146 145.046C219.63 145.407 219.41 145.698 219.486 145.919C219.574 146.17 219.736 146.391 219.953 146.556C220.17 146.72 220.433 146.821 220.71 146.846L232.38 147.942" stroke="#8090A6" stroke-width="2"/>
<path d="M236.394 165.303L233.88 166.405" stroke="#8090A6" stroke-width="2"/>
<path d="M230.538 167.085L224.814 167.404" stroke="#8090A6" stroke-width="2"/>
<path d="M222.918 167.392L217.812 166.959" stroke="#8090A6" stroke-width="2"/>
<path d="M215.628 166.471L210.756 164.406" stroke="#8090A6" stroke-width="2"/>
<path d="M212.106 156.917L219.15 156.984C219.362 156.984 219.542 157.056 219.69 157.2C220.978 158.444 222.402 159.054 223.962 159.03" stroke="#8090A6" stroke-width="2"/>
<path d="M223.962 159.03C226.29 159.211 228.018 158.515 229.146 156.941C229.214 156.846 229.257 156.735 229.27 156.619C229.283 156.502 229.265 156.384 229.22 156.276C229.174 156.169 229.101 156.075 229.008 156.003C228.915 155.932 228.806 155.886 228.69 155.87L224.076 155.256" stroke="#808080" stroke-width="2"/>
<path d="M224.076 155.256C220.196 155.103 216.358 154.644 212.562 153.877" stroke="#8090A6" stroke-width="2"/>
<path d="M91.83 142.843L90.27 140.398" stroke="#8090A6" stroke-width="2"/>
<path d="M136.398 107.782C136.082 108.392 136.136 109.088 136.56 109.871C137.424 111.46 139.554 110.317 140.754 109.672" stroke="#011127" stroke-width="2"/>
<path d="M155.226 115.614C156.958 116.481 158.808 116.868 160.776 116.776" stroke="#011127" stroke-width="2"/>
<path d="M170.16 123.247C170.188 123.055 170.26 122.934 170.376 122.886C170.464 122.854 170.572 122.888 170.7 122.989C175.056 126.456 178.484 130.718 180.984 135.775" stroke="#011127" stroke-width="2"/>
<path d="M180.984 135.775L163.026 135.769C162.83 135.769 162.732 135.867 162.732 136.064V166.441C162.732 166.638 162.83 166.736 163.026 166.736L179.502 166.748" stroke="#808080" stroke-width="2"/>
<path d="M179.502 166.748C179.566 168.185 180.178 168.973 181.338 169.114C181.542 169.138 181.72 169.08 181.872 168.939C182.448 168.41 182.606 167.691 182.346 166.784" stroke="#011127" stroke-width="2"/>
<path d="M182.346 166.784L187.266 166.815" stroke="#808080" stroke-width="2"/>
<path d="M187.266 166.814C186.57 167.665 186.002 168.52 185.562 169.379C182.244 175.892 177.51 181.07 171.348 185.067C171.272 185.116 171.207 185.179 171.155 185.253C171.104 185.328 171.068 185.412 171.049 185.5C171.03 185.588 171.029 185.68 171.045 185.768C171.061 185.857 171.095 185.942 171.144 186.018L173.358 189.486C173.409 189.565 173.488 189.622 173.58 189.645C173.672 189.667 173.768 189.653 173.85 189.606C175.01 188.944 176.116 188.203 177.168 187.385C184.12 181.991 189.152 175.15 192.264 166.862" stroke="#011127" stroke-width="2"/>
<path d="M192.264 166.863L196.242 166.682" stroke="#808080" stroke-width="2"/>
<path d="M196.242 166.682C190.118 182.442 179.214 192.921 163.53 198.118C155.79 200.689 147.108 201.008 138.972 199.214C122.252 195.514 110.292 185.554 103.092 169.337C102.774 168.626 102.642 167.591 102.474 166.814" stroke="#011127" stroke-width="2"/>
<path d="M102.474 166.814L106.026 166.905" stroke="#808080" stroke-width="2"/>
<path d="M106.026 166.905C110.902 179.514 119.568 188.376 132.024 193.489C137.444 195.716 142.91 196.824 148.422 196.812C148.643 196.812 148.855 196.724 149.012 196.569C149.168 196.413 149.256 196.201 149.256 195.981L149.274 192.146C149.274 192.033 149.23 191.924 149.15 191.842C149.071 191.76 148.963 191.712 148.848 191.707C138.136 191.366 129.026 187.788 121.518 180.973C108.996 169.601 104.586 151.108 110.958 135.3C114.518 126.478 120.51 119.575 128.934 114.591C129.123 114.479 129.272 114.308 129.358 114.105C129.445 113.901 129.464 113.675 129.414 113.459C129.106 112.118 128.454 110.973 127.458 110.022C127.314 109.885 127.144 109.833 126.948 109.865C126.276 109.977 125.604 110.258 124.932 110.708C109.308 121.235 102.016 135.946 103.056 154.84C103.104 155.691 103.346 156.885 103.782 158.422C104.154 159.719 104.366 161.059 104.418 162.444" stroke="#011127" stroke-width="2"/>
<path d="M104.418 162.444L99.456 154.564" stroke="#808080" stroke-width="2"/>
<path d="M159.018 91.486C152.382 90.3221 145.91 90.2338 139.602 91.2211C139.435 91.247 139.275 91.3075 139.132 91.3989C138.99 91.4902 138.868 91.6104 138.774 91.7518C138.679 91.8932 138.615 92.0527 138.585 92.2204C138.556 92.3881 138.561 92.5603 138.6 92.7261C138.888 93.918 139.602 94.0204 140.748 93.8518C146.42 93.013 152.134 92.9368 157.89 93.6231" stroke="#011127" stroke-width="2"/>
<path d="M156.642 98.6136C152.146 97.6183 147.544 97.4859 142.836 98.2163" stroke="#011127" stroke-width="2"/>
<path d="M133.932 100.606C132.152 100.67 130.57 101.008 129.186 101.618C112.134 109.123 101.622 122.062 97.65 140.435C97.078 143.079 96.804 146.461 96.828 150.578" stroke="#011127" stroke-width="2"/>
<path d="M96.828 150.578L91.83 142.843" stroke="#808080" stroke-width="2"/>
<path d="M91.83 142.843L92.556 142.343C92.716 142.235 92.812 142.084 92.844 141.891C95.736 124.586 104.496 111.207 119.124 101.756C121.088 100.484 124.434 98.8364 129.162 96.8136C129.267 96.7684 129.352 96.6881 129.404 96.5868C129.455 96.4856 129.47 96.3698 129.444 96.2598L129.168 95.0197C129.138 94.8893 129.08 94.7669 128.999 94.6606C128.919 94.5543 128.816 94.4666 128.699 94.4033C128.582 94.34 128.453 94.3027 128.321 94.2937C128.189 94.2848 128.056 94.3045 127.932 94.3515C108.264 101.84 93.714 119.557 90.27 140.398" stroke="#011127" stroke-width="2"/>
<path d="M90.27 140.398L87.708 136.118" stroke="#808080" stroke-width="2"/>
<path d="M134.442 102.304C133.666 102.802 131.728 103.751 128.628 105.151C119.512 109.277 112.188 115.867 106.656 124.921C101.452 133.441 99.052 143.322 99.456 154.564" stroke="#011127" stroke-width="2"/>
<path d="M99.456 154.564L96.828 150.578" stroke="#8090A6" stroke-width="2"/>
<path d="M106.026 166.905C106.714 166.756 106.996 166.595 106.872 166.423C105.804 164.934 104.986 163.608 104.418 162.444" stroke="#8090A6" stroke-width="2"/>
<path d="M177.432 93.4846C174.536 86.9429 169.552 85.2472 162.48 88.3977" stroke="#67778D" stroke-width="2"/>
<path d="M162.48 88.3977C152.936 86.5154 143.91 86.5696 135.402 88.5602C115.694 93.1635 101.244 104.726 92.052 123.247C90.576 126.221 89.128 130.512 87.708 136.118" stroke="#011127" stroke-width="2"/>
<path d="M87.708 136.119L82.41 135.871" stroke="#8090A6" stroke-width="2"/>
<path d="M207.966 140.898L206.472 143.408" stroke="#8090A6" stroke-width="2"/>
<path d="M178.038 98.8484L177.246 100.763" stroke="#67778D" stroke-width="2"/>
<path d="M173.97 104.194L170.7 105.392" stroke="#67778D" stroke-width="2"/>
<path d="M170.7 105.392C168.42 105.159 166.488 104.162 164.904 102.4" stroke="#666667" stroke-width="2"/>
<path d="M164.904 102.4L163.95 100.57" stroke="#67778D" stroke-width="2"/>
<path d="M163.95 100.57C163.39 98.5354 163.624 96.6952 164.652 95.0498" stroke="#666667" stroke-width="2"/>
<path d="M164.652 95.0498L165.648 93.7976" stroke="#67778D" stroke-width="2"/>
<path d="M165.648 93.7976C168.78 91.7388 171.324 92.2124 173.28 95.2183C174.996 97.8551 172.926 101.467 169.902 101.226C164.67 100.817 168.324 92.6177 171 97.9213C171.021 97.9609 171.054 97.9924 171.094 98.0113C171.135 98.0301 171.18 98.0351 171.224 98.0256C171.267 98.016 171.307 97.9924 171.336 97.9583C171.364 97.9243 171.382 97.8817 171.384 97.837C171.444 96.5769 170.98 95.732 169.992 95.3026C166.14 93.6351 164.424 100.498 168.504 102.123C171.81 103.436 175.17 101.13 175.602 97.7106C176.05 94.1789 174.38 91.5542 170.592 89.8365" stroke="#666667" stroke-width="2"/>
<path d="M170.592 89.8371L166.812 89.6318" stroke="#67778D" stroke-width="2"/>
<path d="M166.812 89.6318C164.92 90.0813 163.306 91.0666 161.97 92.5876" stroke="#666667" stroke-width="2"/>
<path d="M161.97 92.5876L161.064 93.7254" stroke="#67778D" stroke-width="2"/>
<path d="M161.064 93.7254C159.852 95.3668 159.298 97.3133 159.402 99.5648" stroke="#666667" stroke-width="2"/>
<path d="M159.402 99.5648C159.354 100.48 159.45 101.196 159.69 101.714" stroke="#67778D" stroke-width="2"/>
<path d="M159.69 101.714C159.918 103.741 160.344 105.059 160.968 105.669" stroke="#666667" stroke-width="2"/>
<path d="M160.968 105.669L163.086 111.563" stroke="#67778D" stroke-width="2"/>
<path d="M163.086 111.563C163.586 113.072 164.182 114.565 164.874 116.042C165.882 118.185 167.358 117.842 169.338 117.811C169.55 117.807 169.714 117.896 169.83 118.076C170.126 118.542 170.26 119.064 170.232 119.641" stroke="#666667" stroke-width="2"/>
<path d="M170.232 119.641L170.16 123.247" stroke="#67778D" stroke-width="2"/>
<path d="M170.16 123.247C170.128 123.392 170.06 123.49 169.956 123.542C169.868 123.583 169.762 123.575 169.638 123.518C168.598 123.057 168.024 122.222 167.916 121.014C167.912 120.965 167.899 120.918 167.876 120.875C167.854 120.832 167.823 120.793 167.785 120.762C167.748 120.731 167.704 120.708 167.658 120.695C167.611 120.681 167.562 120.677 167.514 120.683C164.256 121.074 162.522 119.136 160.776 116.776" stroke="#666667" stroke-width="2"/>
<path d="M160.776 116.776L151.218 106.103C151.125 105.998 151.012 105.914 150.885 105.854C150.759 105.795 150.622 105.762 150.482 105.757C150.343 105.752 150.204 105.775 150.074 105.825C149.943 105.875 149.824 105.951 149.724 106.048L149.274 106.482C149.215 106.539 149.171 106.61 149.146 106.689C149.121 106.767 149.115 106.851 149.13 106.933L149.994 111.749C150.007 111.828 150.044 111.9 150.1 111.955C150.157 112.011 150.229 112.047 150.308 112.058C150.386 112.07 150.466 112.056 150.536 112.019C150.605 111.982 150.662 111.923 150.696 111.852C151.104 111.041 151.708 110.455 152.508 110.094C152.627 110.039 152.76 110.025 152.888 110.054C153.016 110.084 153.131 110.155 153.216 110.256L156 113.603C156.172 113.812 156.222 114.047 156.15 114.308C156.022 114.781 155.714 115.217 155.226 115.614" stroke="#67778D" stroke-width="2"/>
<path d="M155.226 115.614C154.35 115.959 153.962 116.451 154.062 117.089C154.374 119.096 154.512 121.155 154.476 123.266C154.471 123.596 154.336 123.912 154.101 124.144C153.865 124.376 153.547 124.506 153.216 124.506L150.912 124.494C150.732 124.495 150.558 124.432 150.422 124.315C150.285 124.198 150.195 124.035 150.169 123.857C150.143 123.678 150.182 123.496 150.278 123.345C150.375 123.193 150.524 123.081 150.696 123.031C152.136 122.585 152.286 121.809 151.908 120.418C151.248 118.034 150.7 115.652 150.264 113.272C150.252 113.208 150.222 113.149 150.177 113.102C150.132 113.055 150.074 113.022 150.011 113.008C149.947 112.994 149.881 112.999 149.821 113.022C149.76 113.046 149.708 113.087 149.67 113.14C148.198 115.187 146.738 117.274 145.29 119.401C144.444 120.641 144.408 121.73 144.426 123.175C144.43 123.388 144.324 123.492 144.108 123.488C140.988 123.44 142.884 118.191 143.85 116.343C145.23 113.712 142.416 111.298 140.754 109.672" stroke="#666667" stroke-width="2"/>
<path d="M140.754 109.672C139.91 107.955 138.458 107.325 136.398 107.782" stroke="#67778D" stroke-width="2"/>
<path d="M136.398 107.782C135.546 107.477 135.122 106.963 135.126 106.241C135.126 106.195 135.135 106.15 135.153 106.108C135.171 106.067 135.197 106.029 135.229 105.998C135.262 105.967 135.301 105.943 135.343 105.928C135.385 105.913 135.43 105.907 135.474 105.91C138.756 106.109 139.032 102.286 136.2 102.19C135.592 102.169 135.006 102.208 134.442 102.304" stroke="#666667" stroke-width="2"/>
<path d="M134.442 102.304C133.79 102.059 133.62 101.493 133.932 100.606" stroke="#67778D" stroke-width="2"/>
<path d="M133.932 100.606C135.936 100.201 137.802 100.347 139.53 101.046C139.694 101.114 139.766 101.06 139.746 100.883C139.512 99.0712 135.918 99.2397 134.442 99.3541C134.202 99.3701 134.116 99.2638 134.184 99.035C134.436 98.1601 134.952 97.4879 135.732 97.0183C138.356 95.4411 140.724 95.8404 142.836 98.2163" stroke="#666667" stroke-width="2"/>
<path d="M142.836 98.2163C143.388 99.0591 143.764 100.076 143.964 101.268C144 101.477 144.124 101.581 144.336 101.581C147.556 101.61 150.758 101.61 153.942 101.581C155.97 101.563 156.492 100.42 156.642 98.6136" stroke="#67778D" stroke-width="2"/>
<path d="M156.642 98.6136C156.674 96.6993 157.09 95.0357 157.89 93.623" stroke="#666667" stroke-width="2"/>
<path d="M157.89 93.623L159.018 91.4859" stroke="#67778D" stroke-width="2"/>
<path d="M159.018 91.486L162.48 88.3977" stroke="#666667" stroke-width="2"/>
<path d="M223.278 135.155L217.86 135.655" stroke="#8090A6" stroke-width="2"/>
<path d="M237.048 137.587L234.51 136.479" stroke="#8090A6" stroke-width="2"/>
<path d="M224.076 155.256C224.64 156.536 224.602 157.794 223.962 159.03" stroke="#011127" stroke-width="2"/>
<path d="M183.606 135.655L180.984 135.776" stroke="#8090A6" stroke-width="2"/>
<path d="M198.252 143.518L194.958 143.469" stroke="#808080" stroke-width="2"/>
<path d="M194.958 143.469L189.54 143.481" stroke="#8090A6" stroke-width="2"/>
<path d="M189.54 143.481L185.82 143.505" stroke="#808080" stroke-width="2"/>
<path d="M185.82 143.505L183.672 143.517" stroke="#8090A6" stroke-width="2"/>
<path d="M183.672 143.517L176.04 143.511C175.796 143.511 175.674 143.633 175.674 143.878L175.686 147.929C175.686 148.15 175.798 148.261 176.022 148.261L184.404 148.243" stroke="#808080" stroke-width="2"/>
<path d="M184.404 148.243L186.198 148.218" stroke="#8090A6" stroke-width="2"/>
<path d="M186.198 148.218L190.434 148.261" stroke="#808080" stroke-width="2"/>
<path d="M190.434 148.261L194.412 148.393C194.489 148.395 194.563 148.426 194.618 148.481C194.673 148.536 194.704 148.61 194.706 148.688L194.754 153.823C194.755 153.874 194.746 153.924 194.727 153.971C194.708 154.018 194.681 154.061 194.646 154.097C194.611 154.134 194.569 154.163 194.522 154.183C194.476 154.203 194.426 154.214 194.376 154.214L190.038 154.293" stroke="#8090A6" stroke-width="2"/>
<path d="M190.038 154.293L175.968 154.299C175.776 154.303 175.68 154.399 175.68 154.588V158.765C175.68 158.966 175.78 159.066 175.98 159.066L189.66 159.054" stroke="#808080" stroke-width="2"/>
<path d="M189.66 159.054H194.868" stroke="#8090A6" stroke-width="2"/>
<path d="M194.868 159.054L198.012 159.079" stroke="#808080" stroke-width="2"/>
<path d="M198.27 166.778L196.242 166.682" stroke="#8090A6" stroke-width="2"/>
<path d="M192.264 166.863L187.266 166.814" stroke="#8090A6" stroke-width="2"/>
<path d="M182.346 166.785L179.502 166.748" stroke="#8090A6" stroke-width="2"/>
<path d="M165.648 93.7976C165.364 92.4492 164.398 92.112 162.75 92.7863C162.274 92.9789 162.014 92.9127 161.97 92.5876" stroke="#011127" stroke-width="2"/>
<path d="M164.652 95.0498C163.338 94.8933 161.82 95.104 161.064 93.7254" stroke="#011127" stroke-width="2"/>
<path d="M170.7 105.392C183.556 112.09 192.178 122.174 196.566 135.643" stroke="#011127" stroke-width="2"/>
<path d="M196.566 135.643L192.858 135.673" stroke="#808080" stroke-width="2"/>
<path d="M192.858 135.673C191.366 131.35 189.612 127.682 187.596 124.668C181.264 115.209 172.388 108.876 160.968 105.669" stroke="#011127" stroke-width="2"/>
<path d="M164.904 102.4C164.56 102.966 163.996 103.076 163.212 102.731C162.316 102.334 161.142 101.995 159.69 101.714" stroke="#011127" stroke-width="2"/>
<path d="M163.95 100.57C162.362 99.2176 160.846 98.8825 159.402 99.5648" stroke="#011127" stroke-width="2"/>
<path d="M170.592 89.8371L166.812 89.6318" stroke="#011127" stroke-width="2"/>
<path d="M199.956 160.583L199.818 159.464C199.79 159.231 199.658 159.113 199.422 159.109L198.012 159.078" stroke="#8090A6" stroke-width="2"/>
<path d="M198.012 159.079C198.848 153.769 198.928 148.582 198.252 143.517" stroke="#011127" stroke-width="2"/>
<path d="M198.252 143.517L198.168 136.221C198.164 135.992 198.05 135.859 197.826 135.823L196.566 135.643" stroke="#8090A6" stroke-width="2"/>
<path d="M187.542 135.715L183.606 135.655" stroke="#808080" stroke-width="2"/>
<path d="M183.606 135.655C181.194 129.964 177.568 125.059 172.728 120.942C171.896 120.231 171.064 119.798 170.232 119.641" stroke="#011127" stroke-width="2"/>
<path d="M192.858 135.673L187.542 135.716" stroke="#8090A6" stroke-width="2"/>
<path d="M187.542 135.715C182.818 124.229 174.666 116.178 163.086 111.563" stroke="#011127" stroke-width="2"/>
<path d="M189.54 143.481L190.434 148.261" stroke="#011127" stroke-width="2"/>
<path d="M194.958 143.469C195.144 145.527 195.486 147.045 195.108 149.206C194.844 150.691 194.804 152.182 194.988 153.679C195.222 155.629 194.91 157.182 194.868 159.054" stroke="#011127" stroke-width="2"/>
<path d="M189.66 159.054L190.038 154.293" stroke="#011127" stroke-width="2"/>
<path d="M183.672 143.517C183.496 145.19 183.74 146.766 184.404 148.243" stroke="#011127" stroke-width="2"/>
<path d="M185.82 143.505C186.576 145.319 186.702 146.89 186.198 148.218" stroke="#011127" stroke-width="2"/>
<path d="M194.184 189.871C199.848 183.393 203.616 176.073 206.328 167.525C206.355 167.439 206.358 167.348 206.337 167.261C206.316 167.174 206.271 167.094 206.208 167.031C205.732 166.561 205.174 166.298 204.534 166.242C204.254 166.218 204.07 166.339 203.982 166.604C196.98 187.975 179.394 204.192 156.648 207.239C156.435 207.268 156.242 207.377 156.105 207.543C155.969 207.709 155.899 207.92 155.91 208.135L155.988 209.478C155.991 209.542 156.007 209.604 156.035 209.661C156.064 209.719 156.104 209.769 156.154 209.811C156.203 209.852 156.261 209.883 156.323 209.901C156.386 209.919 156.451 209.925 156.516 209.917C171.656 207.963 184.212 201.281 194.184 189.871Z" stroke="#011127" stroke-width="2"/>
<path d="M184.092 83.1001C161.622 71.2768 134.898 71.7403 113.028 83.666C97.644 92.0578 85.896 105.326 79.194 121.616C79.1662 121.683 79.1522 121.756 79.1529 121.829C79.1535 121.902 79.1688 121.974 79.1979 122.041C79.227 122.109 79.2692 122.17 79.3221 122.221C79.375 122.272 79.4375 122.312 79.506 122.338L82.914 123.639C83.1356 123.723 83.3811 123.718 83.5992 123.625C83.8172 123.532 83.991 123.358 84.084 123.139C92.538 103.526 108.438 88.6987 128.874 82.7028C146.774 77.4533 164.342 79.0426 181.578 87.4706C181.922 87.6351 182.188 87.5529 182.376 87.2238L184.302 83.8345C184.338 83.7728 184.361 83.7045 184.369 83.6337C184.378 83.5629 184.373 83.491 184.353 83.4224C184.333 83.3538 184.3 83.2899 184.255 83.2345C184.21 83.1791 184.155 83.1334 184.092 83.1001Z" stroke="#011127" stroke-width="2"/>
<path d="M137.003 103.997C137.002 103.913 136.984 103.829 136.951 103.751C136.918 103.674 136.869 103.603 136.809 103.544C136.749 103.485 136.677 103.439 136.599 103.408C136.52 103.376 136.437 103.361 136.352 103.362L134.445 103.389C134.274 103.391 134.112 103.461 133.993 103.584C133.875 103.706 133.809 103.871 133.812 104.042L133.813 104.102C133.814 104.187 133.832 104.27 133.865 104.348C133.898 104.426 133.946 104.496 134.007 104.555C134.067 104.614 134.139 104.66 134.217 104.692C134.295 104.723 134.379 104.738 134.463 104.737L136.371 104.711C136.542 104.708 136.704 104.638 136.823 104.516C136.941 104.393 137.007 104.228 137.004 104.057L137.003 103.997Z" stroke="#666667" stroke-width="2"/>
<path d="M138.762 114.789C137.61 114.633 136.354 114.848 134.994 115.434C128.594 118.191 123.314 122.164 119.154 127.353C116.81 130.279 115.514 133.038 115.266 135.631" stroke="#011127" stroke-width="2"/>
<path d="M115.266 135.631L113.448 135.793C113.22 135.813 113.104 135.94 113.1 136.172L113.01 143.384" stroke="#808080" stroke-width="2"/>
<path d="M113.01 143.384C111.402 144.847 111.63 146.027 111.54 147.978C111.432 150.197 111.474 152.412 111.666 154.624C111.798 156.189 112.62 157.501 113.04 159.042" stroke="#011127" stroke-width="2"/>
<path d="M113.04 159.042L113.088 166.441C113.088 166.65 113.194 166.754 113.406 166.754H125.718C125.93 166.754 126.036 166.648 126.036 166.435L126.024 158.163C126.024 157.931 126.14 157.816 126.372 157.82C133.112 157.969 137.988 157.895 141 157.598C148.206 156.887 156.21 154.582 155.124 145.624C154.044 136.732 143.79 135.908 136.932 135.829C130.468 135.757 123.948 135.733 117.372 135.757" stroke="#808080" stroke-width="2"/>
<path d="M117.372 135.757C119.64 131.993 121.646 129.111 123.39 127.112C127.174 122.778 131.914 119.475 137.61 117.203C137.651 117.186 137.695 117.177 137.74 117.178C137.785 117.178 137.829 117.188 137.871 117.206C137.912 117.223 137.949 117.25 137.981 117.282C138.012 117.315 138.037 117.354 138.054 117.396C138.11 117.528 138.106 117.721 138.042 117.974" stroke="#011127" stroke-width="2"/>
<path d="M138.042 117.974L136.71 122.092C136.677 122.189 136.619 122.276 136.541 122.343C136.462 122.41 136.367 122.454 136.266 122.471C134.832 122.688 133.542 122.224 133.128 124.024C133.118 124.065 133.117 124.107 133.124 124.148C133.131 124.19 133.146 124.229 133.168 124.265C133.19 124.3 133.22 124.33 133.254 124.354C133.288 124.378 133.327 124.395 133.368 124.403C135.904 124.957 137.848 124.171 139.2 122.043C140.084 120.655 141.152 118.777 142.404 116.409C143.484 114.38 142.44 113.182 140.862 112.05C140.733 111.959 140.583 111.899 140.426 111.878C140.269 111.857 140.11 111.873 139.961 111.927C139.812 111.981 139.678 112.07 139.57 112.187C139.463 112.304 139.385 112.445 139.344 112.598L138.762 114.789" stroke="#666667" stroke-width="2"/>
<path d="M138.042 117.974L138.762 114.789" stroke="#67778D" stroke-width="2"/>
<path d="M117.372 135.758L115.266 135.631" stroke="#8090A6" stroke-width="2"/>
<path d="M113.04 159.042L113.01 143.384" stroke="#8090A6" stroke-width="2"/>
<path d="M144.072 185.193C135.948 184.122 129.008 180.391 123.252 174.002C122.684 173.372 122.248 173.029 121.944 172.973C121.376 172.868 120.802 173.211 120.222 174.002C120.16 174.085 120.128 174.186 120.132 174.29C120.135 174.394 120.173 174.494 120.24 174.574C131.22 187.932 150.036 191.924 165.618 184.393C168.906 182.807 172.346 180.323 175.938 176.94C176.098 176.791 176.14 176.613 176.064 176.404C175.788 175.642 175.26 175.16 174.48 174.959C174.392 174.935 174.3 174.935 174.211 174.958C174.123 174.981 174.042 175.027 173.976 175.092C165.528 183.335 155.56 186.702 144.072 185.193Z" stroke="#011127" stroke-width="2"/>
<path d="M78.096 150.38L76.26 153.522C76.132 153.743 76.19 153.883 76.434 153.943C76.958 154.076 77.534 154.078 78.162 153.949" stroke="#8090A6" stroke-width="2"/>
<path d="M78.162 153.95L81.534 153.913" stroke="#808080" stroke-width="2"/>
<path d="M81.534 153.913L86.07 153.925C86.35 153.929 86.42 153.809 86.28 153.564L81.972 146.009" stroke="#8090A6" stroke-width="2"/>
<path d="M81.972 146.009L81.516 145.154C81.376 144.893 81.234 144.891 81.09 145.148L78.096 150.38" stroke="#808080" stroke-width="2"/>
<path d="M81.972 146.009L81.342 146.412C81.174 146.521 81.068 146.673 81.024 146.87C80.528 149.21 80.698 151.558 81.534 153.913" stroke="#011127" stroke-width="2"/>
<path d="M78.162 153.949C78.914 152.328 78.892 151.138 78.096 150.38" stroke="#011127" stroke-width="2"/>
<path d="M126.036 143.697L126.024 149.922C126.024 149.972 126.044 150.019 126.078 150.054C126.113 150.089 126.161 150.109 126.21 150.109L136.638 150.127C137.371 150.128 138.096 150.059 138.774 149.925C139.451 149.79 140.066 149.591 140.584 149.341C141.103 149.09 141.514 148.793 141.794 148.465C142.074 148.137 142.218 147.785 142.218 147.43V146.238C142.217 145.522 141.63 144.834 140.586 144.326C139.543 143.818 138.127 143.532 136.65 143.529L126.222 143.511C126.173 143.511 126.125 143.53 126.09 143.565C126.056 143.6 126.036 143.648 126.036 143.697Z" stroke="#808080" stroke-width="2"/>
<path d="M65.2712 128.622C65.1791 128.958 64.967 129.07 64.6348 128.958L63.2778 128.508C63.1761 128.475 63.092 128.402 63.0437 128.305C62.9954 128.209 62.9868 128.097 63.0197 127.993C63.2958 127.136 63.3379 126.255 63.572 125.464C69.7203 104.641 82.6533 86.8867 100.918 75.2105C121.208 62.2356 143.646 58.1458 168.231 62.9409C168.358 62.9652 168.479 63.0156 168.586 63.0889C168.694 63.1621 168.785 63.2567 168.854 63.3669C168.923 63.477 168.969 63.6003 168.989 63.7291C169.009 63.8579 169.002 63.9895 168.969 64.1157L168.801 64.7451C168.734 65.0024 168.572 65.2248 168.348 65.3672C168.124 65.5097 167.854 65.5615 167.594 65.5123C144.166 61.0888 122.713 64.8989 103.236 76.9427C84.3104 88.6429 71.2213 107.068 65.2712 128.622Z" fill="#01214D"/>
<path d="M231 135.35L225.476 134.834C222.02 117.959 213.985 103.791 201.372 92.3297C188.738 80.8448 174.124 74.2719 157.529 72.6112C117.455 68.5955 80.2602 95.8112 73.41 136.1C73.2905 136.797 72.9899 137.639 72.5082 138.628C71.9667 139.74 71.7398 140.804 71.8273 141.821L67.3362 149C67.2486 148.136 67.159 147.315 67.0675 146.539C66.9719 145.727 66.9779 144.906 67.0854 144.078C67.4855 141.083 67.5631 137.799 68.1245 135.038C72.7431 112.448 84.2357 94.6647 102.602 81.6871C132.326 60.6901 172.741 62.5389 200.942 85.1026C213.949 95.515 223.093 108.883 228.372 125.206C228.89 126.81 229.766 130.192 231 135.35Z" fill="#01214D"/>
<path d="M237 138L234.449 136.878C229.187 108.426 214.127 87.1922 189.267 73.1775C189.074 73.0677 188.986 72.901 189.002 72.6774C189.054 72.0187 189.382 71.4943 189.985 71.1039C190.158 70.9901 190.34 70.9698 190.533 71.043C191.241 71.3194 191.792 71.5695 192.186 71.7931C208.45 81.0752 220.691 94.1955 228.908 111.154C231.758 117.041 233.782 122.017 234.98 126.083C235.812 128.913 236.485 132.885 237 138Z" fill="#01214D"/>
<path d="M225 134.973L222.815 135.033C219.707 120.404 212.982 107.718 202.639 96.9767C202.563 96.8978 202.459 96.8529 202.349 96.8517C202.239 96.8506 202.133 96.8934 202.053 96.9707L199.024 99.9529C198.947 100.028 198.902 100.132 198.899 100.24C198.897 100.349 198.938 100.454 199.012 100.532C207.685 109.618 215.047 122.036 217.309 134.569C217.325 134.661 217.377 134.724 217.465 134.756C217.54 134.784 217.582 134.822 217.59 134.87C217.618 135.08 217.558 135.301 217.411 135.534C212.966 136.178 209.676 137.931 207.541 140.793C204.425 122.642 195.042 108.638 179.393 98.7818C178.782 98.3954 178.333 98.4799 177.687 98.6248C178.166 96.2423 177.964 94.4493 177.082 93.2459C190.493 100.474 200.355 111.071 206.667 125.036C206.747 125.217 206.881 125.272 207.068 125.199L210.779 123.696C210.867 123.66 210.947 123.607 211.014 123.54C211.081 123.473 211.134 123.392 211.17 123.304C211.205 123.216 211.223 123.121 211.222 123.025C211.221 122.93 211.2 122.836 211.162 122.748C207.134 113.584 201.364 105.519 193.847 98.8965C178.629 85.4905 160.807 79.8943 140.381 82.1078C136.359 82.5465 132.469 83.3816 128.71 84.6132C106.158 91.9963 89.8837 109.063 82.9948 132.015C82.8431 132.514 82.6097 133.76 82.2945 135.752L75.4833 135.716C75.2599 135.712 75.0883 135.802 74.9686 135.987L71.0183 142C70.9306 140.978 71.158 139.907 71.7006 138.788C72.1835 137.794 72.4847 136.947 72.6044 136.247C79.4695 95.7271 116.745 68.3558 156.906 72.3945C173.537 74.0647 188.183 80.6751 200.844 92.2257C213.484 103.752 221.537 118.001 225 134.973ZM183.726 82.8323C161.311 70.9758 134.653 71.4406 112.837 83.3997C97.4909 91.8152 85.7719 105.121 79.0864 121.456C79.0587 121.524 79.0447 121.597 79.0454 121.67C79.046 121.743 79.0613 121.815 79.0903 121.883C79.1193 121.95 79.1614 122.012 79.2142 122.063C79.267 122.114 79.3293 122.154 79.3976 122.181L82.7972 123.485C83.0183 123.569 83.2632 123.564 83.4807 123.471C83.6983 123.378 83.8716 123.203 83.9644 122.984C92.3975 103.316 108.258 88.4466 128.644 82.4338C146.5 77.1697 164.025 78.7634 181.218 87.2151C181.561 87.3801 181.827 87.2976 182.014 86.9676L183.935 83.5688C183.971 83.5069 183.994 83.4384 184.003 83.3674C184.011 83.2964 184.006 83.2243 183.986 83.1555C183.967 83.0867 183.934 83.0226 183.889 82.9671C183.844 82.9116 183.789 82.8657 183.726 82.8323Z" fill="black"/>
<path d="M112.804 83.3376C134.628 71.2244 161.296 70.7535 183.719 82.7628C183.782 82.7966 183.837 82.8431 183.882 82.8994C183.927 82.9556 183.96 83.0205 183.98 83.0902C183.999 83.1599 184.005 83.2329 183.996 83.3048C183.987 83.3767 183.964 83.4461 183.929 83.5088L182.007 86.9514C181.819 87.2856 181.554 87.3692 181.21 87.2021C164.011 78.6415 146.479 77.0272 128.617 82.3592C108.224 88.4495 92.3571 103.51 83.9208 123.432C83.828 123.654 83.6546 123.831 83.437 123.925C83.2194 124.02 82.9744 124.025 82.7533 123.939L79.3524 122.618C79.2841 122.591 79.2217 122.551 79.1689 122.499C79.1161 122.447 79.074 122.385 79.045 122.317C79.016 122.248 79.0007 122.175 79 122.101C78.9994 122.027 79.0133 121.953 79.0411 121.885C85.729 105.338 97.4524 91.8615 112.804 83.3376Z" fill="#01214D"/>
<path d="M177.841 93.5313C174.951 87.0149 169.976 85.3258 162.918 88.4641C153.392 86.5891 144.383 86.6431 135.891 88.626C116.221 93.2115 101.798 104.729 92.6236 123.179C91.1505 126.141 89.7052 130.415 88.2879 136L83 135.754C83.3154 133.775 83.549 132.538 83.7007 132.042C90.5935 109.243 106.876 92.29 129.441 84.956C133.202 83.7327 137.095 82.9032 141.119 82.4674C161.556 80.2686 179.388 85.8276 194.615 99.1442C202.137 105.723 207.91 113.734 211.94 122.837C211.978 122.924 211.999 123.018 212 123.112C212.001 123.207 211.983 123.301 211.948 123.389C211.912 123.477 211.859 123.557 211.792 123.624C211.725 123.691 211.645 123.743 211.557 123.779L207.844 125.272C207.656 125.344 207.523 125.29 207.443 125.11C201.127 111.238 191.26 100.711 177.841 93.5313Z" fill="#01214D"/>
<path d="M177.15 93.6856C178.024 94.897 178.224 96.7018 177.75 99.1002L176.967 101.033C176.132 102.487 175.053 103.642 173.728 104.496L170.496 105.706C168.242 105.471 166.332 104.464 164.766 102.686L163.823 100.838C163.27 98.7842 163.501 96.9266 164.517 95.2656L165.502 94.0016C168.598 91.9233 171.113 92.4014 173.046 95.4358C174.742 98.0975 172.696 101.744 169.707 101.501C164.535 101.087 168.147 92.8105 170.792 98.1643C170.813 98.2042 170.846 98.2361 170.886 98.2551C170.926 98.2741 170.971 98.2792 171.014 98.2695C171.057 98.2599 171.095 98.2361 171.124 98.2017C171.153 98.1673 171.169 98.1243 171.172 98.0792C171.231 96.8071 170.773 95.9543 169.796 95.5209C165.988 93.8375 164.292 100.765 168.325 102.406C171.593 103.731 174.914 101.403 175.341 97.9516C175.784 94.3865 174.134 91.737 170.389 90.003L166.652 89.7964C164.782 90.2501 163.187 91.2447 161.866 92.7802L160.97 93.9287C159.772 95.5857 159.225 97.5505 159.327 99.8233C159.28 100.747 159.375 101.47 159.612 101.993C159.837 104.039 160.259 105.37 160.875 105.985L162.969 111.935C163.463 113.458 164.053 114.965 164.737 116.456C165.733 118.619 167.192 118.273 169.149 118.242C169.359 118.238 169.521 118.328 169.636 118.51C169.928 118.98 170.061 119.506 170.033 120.09L169.962 123.73C169.93 123.876 169.863 123.975 169.76 124.028C169.673 124.068 169.569 124.06 169.446 124.003C168.418 123.537 167.85 122.695 167.744 121.475C167.74 121.426 167.727 121.378 167.705 121.335C167.682 121.291 167.652 121.253 167.615 121.221C167.578 121.19 167.535 121.167 167.488 121.153C167.442 121.139 167.394 121.135 167.346 121.141C164.126 121.536 162.412 119.579 160.686 117.197L151.237 106.423C151.145 106.318 151.033 106.232 150.909 106.172C150.784 106.112 150.648 106.079 150.51 106.074C150.372 106.069 150.235 106.092 150.106 106.143C149.977 106.193 149.86 106.27 149.76 106.368L149.316 106.806C149.257 106.863 149.214 106.935 149.189 107.015C149.164 107.094 149.159 107.179 149.173 107.261L150.027 112.123C150.04 112.202 150.077 112.275 150.133 112.331C150.188 112.387 150.26 112.424 150.337 112.435C150.415 112.447 150.494 112.433 150.563 112.395C150.632 112.357 150.687 112.298 150.721 112.226C151.125 111.408 151.722 110.816 152.513 110.452C152.63 110.396 152.762 110.382 152.888 110.412C153.015 110.442 153.129 110.513 153.212 110.616L155.964 113.995C156.134 114.205 156.184 114.442 156.113 114.706C155.986 115.184 155.682 115.623 155.199 116.024C154.333 116.373 153.95 116.869 154.049 117.513C154.357 119.539 154.494 121.617 154.458 123.748C154.453 124.082 154.32 124.4 154.087 124.634C153.854 124.869 153.54 125 153.212 125L150.935 124.988C150.757 124.99 150.585 124.925 150.45 124.807C150.315 124.689 150.226 124.525 150.2 124.345C150.174 124.165 150.213 123.981 150.309 123.828C150.404 123.675 150.551 123.562 150.721 123.511C152.145 123.061 152.293 122.278 151.919 120.874C151.267 118.467 150.725 116.063 150.294 113.66C150.283 113.596 150.253 113.536 150.208 113.488C150.164 113.441 150.107 113.408 150.044 113.394C149.981 113.379 149.916 113.384 149.856 113.408C149.796 113.432 149.744 113.473 149.707 113.527C148.252 115.593 146.809 117.7 145.377 119.847C144.541 121.099 144.506 122.199 144.523 123.657C144.527 123.872 144.422 123.977 144.209 123.973C141.125 123.924 142.999 118.625 143.954 116.76C145.318 114.104 142.536 111.667 140.893 110.026C140.059 108.293 138.624 107.656 136.587 108.118C135.745 107.81 135.326 107.292 135.33 106.563C135.33 106.517 135.339 106.471 135.357 106.429C135.374 106.387 135.4 106.349 135.432 106.317C135.465 106.286 135.503 106.262 135.544 106.246C135.586 106.231 135.63 106.225 135.674 106.228C138.918 106.429 139.191 102.57 136.392 102.473C135.791 102.453 135.211 102.491 134.654 102.588C134.009 102.341 133.841 101.77 134.15 100.875C136.131 100.465 137.975 100.613 139.683 101.318C139.846 101.387 139.917 101.332 139.897 101.154C139.666 99.325 136.113 99.4952 134.654 99.6106C134.417 99.6268 134.332 99.5195 134.399 99.2885C134.648 98.4054 135.158 97.7268 135.929 97.2528C138.523 95.6606 140.864 96.0637 142.952 98.4621C143.497 99.3128 143.869 100.34 144.067 101.543C144.102 101.754 144.225 101.859 144.434 101.859C147.617 101.887 150.783 101.887 153.93 101.859C155.935 101.841 156.451 100.686 156.599 98.8632C156.631 96.9307 157.042 95.2514 157.833 93.8254L158.948 91.6681L162.37 88.5506C169.361 85.3704 174.288 87.082 177.15 93.6856Z" fill="#CCCCCD"/>
<path d="M163 88.3603L159.481 91.4217C152.736 90.2679 146.158 90.1804 139.746 91.1591C139.576 91.1848 139.414 91.2448 139.269 91.3353C139.124 91.4259 139 91.545 138.904 91.6852C138.809 91.8253 138.743 91.9835 138.713 92.1497C138.683 92.316 138.688 92.4866 138.728 92.651C139.021 93.8326 139.746 93.934 140.911 93.7669C146.676 92.9354 152.484 92.8599 158.335 93.5402C157.521 94.9406 157.099 96.5896 157.066 98.4873C152.496 97.5007 147.819 97.3694 143.033 98.0935C140.887 95.7382 138.48 95.3424 135.813 96.9059C135.02 97.3714 134.495 98.0378 134.239 98.9051C134.17 99.1318 134.258 99.2373 134.502 99.2214C136.002 99.108 139.655 98.9409 139.893 100.737C139.913 100.912 139.84 100.966 139.673 100.898C137.917 100.206 136.02 100.061 133.983 100.463C132.174 100.526 130.566 100.86 129.159 101.465C111.827 108.905 101.143 121.731 97.1053 139.945C96.5239 142.566 96.2454 145.918 96.2698 150L91.1897 142.332L91.9276 141.836C92.0902 141.729 92.1878 141.58 92.2204 141.389C95.1599 124.234 104.064 110.972 118.932 101.602C120.928 100.341 124.329 98.7081 129.135 96.703C129.241 96.6581 129.328 96.5786 129.381 96.4782C129.433 96.3778 129.447 96.2631 129.421 96.154L129.141 94.9247C129.11 94.7955 129.052 94.6741 128.97 94.5687C128.887 94.4634 128.783 94.3764 128.664 94.3137C128.546 94.2509 128.414 94.2139 128.28 94.205C128.145 94.1962 128.011 94.2157 127.885 94.2622C107.894 101.686 93.1046 119.249 89.6041 139.909L87 135.666C88.4433 130.108 89.9151 125.855 91.4153 122.907C100.758 104.546 115.446 93.0846 135.477 88.5214C144.125 86.5481 153.299 86.4944 163 88.3603Z" fill="black"/>
<path d="M166.947 89L170.809 89.2227C174.679 91.092 176.385 93.9482 175.927 97.7915C175.486 101.513 172.053 104.022 168.676 102.593C164.507 100.825 166.26 93.3565 170.196 95.1711C171.205 95.6384 171.679 96.5578 171.618 97.9291C171.615 97.9777 171.598 98.0241 171.569 98.0611C171.539 98.0982 171.499 98.1238 171.454 98.1343C171.41 98.1447 171.363 98.1392 171.322 98.1187C171.281 98.0982 171.247 98.0638 171.226 98.0208C168.492 92.2493 164.759 101.172 170.104 101.617C173.193 101.879 175.308 97.9488 173.555 95.0794C171.557 91.8082 168.958 91.2929 165.758 93.5333C165.468 92.0659 164.481 91.699 162.797 92.4328C162.311 92.6424 162.045 92.5703 162 92.2166C163.365 90.5613 165.014 89.4891 166.947 89Z" fill="black"/>
<path d="M159 91.8399L157.897 93.7403C152.268 93.13 146.68 93.1978 141.134 93.9437C140.013 94.0936 139.315 94.0026 139.033 92.9426C138.994 92.7952 138.99 92.6421 139.019 92.493C139.048 92.3439 139.111 92.202 139.203 92.0763C139.295 91.9505 139.414 91.8437 139.554 91.7625C139.693 91.6813 139.849 91.6274 140.013 91.6044C146.182 90.7265 152.511 90.805 159 91.8399Z" fill="#01214D"/>
<path d="M166 93.5556L164.914 95C163.48 94.8194 161.825 95.0625 161 93.4722L161.988 92.1597C162.036 92.5347 162.32 92.6111 162.839 92.3889C164.637 91.6111 165.69 92 166 93.5556Z" fill="#01214D"/>
<path d="M161.273 94C161.847 95.2084 163.001 95.0237 164 95.1609C163.219 96.6033 163.041 98.2164 163.466 100C162.259 98.8144 161.107 98.5207 160.009 99.1187C159.93 97.1451 160.351 95.4389 161.273 94Z" fill="black"/>
<path d="M92.5128 143L91 140.533C94.3397 119.499 108.449 101.619 127.522 94.0604C127.642 94.013 127.771 93.9931 127.899 94.0021C128.027 94.0111 128.152 94.0489 128.266 94.1127C128.379 94.1766 128.479 94.2651 128.557 94.3724C128.635 94.4797 128.691 94.6032 128.72 94.7348L128.988 95.9864C129.013 96.0974 128.999 96.2142 128.949 96.3164C128.899 96.4186 128.816 96.4996 128.714 96.5453C124.13 98.5868 120.885 100.249 118.98 101.533C104.795 111.072 96.3005 124.574 93.4961 142.04C93.465 142.234 93.3719 142.386 93.2168 142.496L92.5128 143Z" fill="#01214D"/>
<path d="M223 135.495L217.576 136C217.725 135.765 217.785 135.541 217.757 135.33C217.749 135.282 217.707 135.243 217.63 135.215C217.542 135.182 217.49 135.12 217.474 135.026C215.204 122.391 207.816 109.871 199.113 100.711C199.039 100.632 198.998 100.526 199 100.416C199.002 100.307 199.047 100.203 199.125 100.127L202.164 97.12C202.245 97.042 202.351 96.9989 202.462 97C202.572 97.0012 202.677 97.0465 202.753 97.1261C213.132 107.956 219.881 120.745 223 135.495Z" fill="#01214D"/>
<path d="M156 98.8946C155.859 100.771 155.367 101.959 153.458 101.978C150.46 102.007 147.444 102.007 144.412 101.978C144.213 101.978 144.096 101.87 144.062 101.653C143.874 100.414 143.52 99.3574 143 98.4818C147.433 97.7229 151.766 97.8605 156 98.8946Z" fill="#01214D"/>
<path d="M208 140.528L206.492 143L206.081 142.763C205.903 142.664 205.798 142.516 205.766 142.318C203.11 125.996 195.005 113.076 181.45 103.56C180.167 102.659 178.441 101.894 177 101.005L177.799 99.1195C178.453 98.9772 178.907 98.8942 179.525 99.2736C195.356 108.952 204.848 122.704 208 140.528Z" fill="#01214D"/>
<path d="M164.135 101.092L165 102.573C164.688 103.031 164.177 103.121 163.466 102.841C162.653 102.52 161.589 102.245 160.272 102.018C160.054 101.598 159.967 101.019 160.011 100.278C161.32 99.7255 162.695 99.9968 164.135 101.092Z" fill="#01214D"/>
<path d="M134.485 100C134.17 100.888 134.341 101.454 135 101.699C134.216 102.197 132.258 103.147 129.127 104.549C119.917 108.678 112.518 115.273 106.93 124.334C101.673 132.861 99.2482 142.75 99.6563 154L97.0015 150.012C96.9772 145.891 97.254 142.507 97.8319 139.86C101.844 121.472 112.464 108.523 129.69 101.012C131.088 100.402 132.687 100.064 134.485 100Z" fill="#01214D"/>
<path d="M165.232 102.687C166.821 104.451 168.759 105.45 171.047 105.683C183.946 112.389 192.597 122.485 197 135.97L193.28 136C191.783 131.672 190.023 128 188 124.982C181.647 115.511 172.741 109.17 161.282 105.96C160.656 105.349 160.229 104.029 160 102C161.457 102.281 162.635 102.621 163.534 103.019C164.32 103.364 164.886 103.254 165.232 102.687Z" fill="black"/>
<path d="M136.433 107.646C136.113 108.261 136.168 108.963 136.597 109.752C137.471 111.355 139.627 110.202 140.841 109.552C142.523 111.191 145.371 113.626 143.975 116.279C142.997 118.143 141.078 123.437 144.236 123.486C144.454 123.49 144.562 123.385 144.558 123.17C144.54 121.713 144.576 120.614 145.432 119.363C146.898 117.218 148.375 115.113 149.865 113.049C149.903 112.995 149.956 112.954 150.018 112.931C150.079 112.907 150.146 112.902 150.21 112.916C150.274 112.93 150.333 112.963 150.378 113.011C150.424 113.058 150.455 113.118 150.466 113.183C150.908 115.583 151.462 117.985 152.13 120.39C152.513 121.792 152.361 122.575 150.904 123.025C150.729 123.076 150.579 123.188 150.481 123.341C150.383 123.494 150.344 123.678 150.37 123.857C150.397 124.037 150.488 124.201 150.626 124.319C150.764 124.437 150.94 124.502 151.122 124.5L153.454 124.512C153.789 124.512 154.111 124.381 154.349 124.147C154.588 123.913 154.724 123.595 154.729 123.261C154.766 121.132 154.626 119.056 154.31 117.032C154.209 116.388 154.602 115.893 155.488 115.545C157.241 116.419 159.114 116.809 161.105 116.716C162.872 119.096 164.627 121.051 167.925 120.657C167.974 120.651 168.023 120.655 168.07 120.669C168.118 120.682 168.161 120.706 168.2 120.737C168.238 120.768 168.269 120.807 168.292 120.85C168.314 120.894 168.328 120.942 168.332 120.991C168.441 122.209 169.022 123.051 170.074 123.516C170.2 123.573 170.307 123.581 170.396 123.541C170.502 123.488 170.57 123.389 170.603 123.243C170.631 123.049 170.704 122.927 170.821 122.879C170.91 122.846 171.02 122.881 171.149 122.982C175.558 126.479 179.027 130.778 181.558 135.878L163.383 135.872C163.184 135.872 163.085 135.971 163.085 136.169V166.806C163.085 167.004 163.184 167.103 163.383 167.103L180.058 167.115C180.122 168.564 180.742 169.36 181.916 169.501C182.122 169.526 182.302 169.467 182.456 169.325C183.039 168.791 183.199 168.066 182.936 167.152L187.915 167.182C187.211 168.04 186.636 168.902 186.191 169.768C182.833 176.338 178.042 181.559 171.805 185.591C171.728 185.64 171.662 185.704 171.61 185.779C171.558 185.854 171.522 185.938 171.502 186.027C171.483 186.116 171.482 186.208 171.498 186.298C171.515 186.388 171.549 186.473 171.599 186.55L173.839 190.047C173.891 190.127 173.971 190.185 174.064 190.208C174.157 190.23 174.255 190.216 174.337 190.168C175.511 189.501 176.631 188.754 177.695 187.928C184.731 182.488 189.824 175.589 192.974 167.231L197 167.048C190.802 182.943 179.766 193.512 163.893 198.753C156.059 201.346 147.272 201.668 139.038 199.858C122.116 196.126 110.011 186.082 102.724 169.726C102.402 169.009 102.269 167.965 102.099 167.182L105.694 167.273C110.629 179.991 119.399 188.928 132.006 194.084C137.491 196.331 143.023 197.448 148.602 197.436C148.826 197.436 149.041 197.348 149.199 197.19C149.357 197.033 149.446 196.82 149.446 196.598L149.464 192.731C149.464 192.616 149.419 192.506 149.339 192.423C149.259 192.341 149.149 192.292 149.033 192.287C138.192 191.943 128.972 188.335 121.373 181.462C108.699 169.993 104.236 151.342 110.685 135.398C114.288 126.501 120.353 119.54 128.878 114.512C129.07 114.399 129.221 114.228 129.308 114.022C129.395 113.817 129.415 113.589 129.364 113.371C129.053 112.019 128.393 110.863 127.385 109.904C127.239 109.767 127.067 109.714 126.868 109.746C126.188 109.86 125.508 110.143 124.828 110.596C109.015 121.213 101.635 136.05 102.688 155.106C102.736 155.964 102.981 157.168 103.422 158.718C103.799 160.026 104.014 161.378 104.066 162.774L99.0442 154.827C98.6353 143.489 101.064 133.524 106.331 124.931C111.93 115.8 119.343 109.153 128.569 104.992C131.706 103.58 133.668 102.622 134.453 102.121C135.024 102.023 135.617 101.985 136.232 102.005C139.099 102.102 138.819 105.958 135.498 105.757C135.452 105.754 135.407 105.76 135.365 105.775C135.322 105.791 135.283 105.815 135.25 105.846C135.217 105.877 135.191 105.915 135.173 105.958C135.155 106 135.145 106.045 135.145 106.091C135.141 106.82 135.57 107.338 136.433 107.646ZM137.045 103.828C137.044 103.743 137.026 103.659 136.992 103.581C136.959 103.502 136.91 103.431 136.849 103.372C136.788 103.312 136.715 103.265 136.636 103.234C136.557 103.202 136.472 103.187 136.387 103.188L134.456 103.215C134.283 103.217 134.119 103.288 133.999 103.412C133.879 103.535 133.813 103.701 133.815 103.873L133.816 103.934C133.817 104.019 133.835 104.104 133.869 104.182C133.903 104.26 133.952 104.331 134.013 104.391C134.074 104.45 134.146 104.497 134.225 104.529C134.305 104.56 134.389 104.576 134.475 104.575L136.406 104.548C136.578 104.545 136.742 104.475 136.862 104.351C136.983 104.228 137.049 104.061 137.046 103.889L137.045 103.828ZM138.825 114.713C137.659 114.555 136.388 114.771 135.012 115.362C128.534 118.143 123.191 122.15 118.98 127.384C116.608 130.335 115.296 133.117 115.045 135.732L113.205 135.896C112.975 135.916 112.857 136.044 112.853 136.278L112.762 143.552C111.135 145.027 111.365 146.217 111.274 148.184C111.165 150.423 111.207 152.657 111.402 154.887C111.535 156.466 112.367 157.789 112.792 159.344L112.841 166.806C112.841 167.016 112.948 167.121 113.163 167.121H125.624C125.838 167.121 125.945 167.014 125.945 166.799L125.933 158.457C125.933 158.223 126.051 158.107 126.286 158.111C133.107 158.261 138.042 158.186 141.09 157.887C148.383 157.17 156.484 154.845 155.385 145.811C154.292 136.843 143.914 136.011 136.973 135.932C130.431 135.86 123.832 135.835 117.177 135.859C119.472 132.063 121.502 129.157 123.267 127.141C127.097 122.77 131.894 119.438 137.659 117.147C137.701 117.13 137.746 117.121 137.791 117.122C137.836 117.122 137.881 117.131 137.923 117.15C137.965 117.168 138.003 117.194 138.035 117.227C138.067 117.26 138.092 117.299 138.109 117.342C138.165 117.475 138.161 117.67 138.097 117.925L136.748 122.077C136.716 122.176 136.656 122.264 136.577 122.331C136.498 122.399 136.402 122.443 136.299 122.46C134.848 122.678 133.542 122.211 133.123 124.026C133.113 124.067 133.112 124.11 133.119 124.152C133.126 124.193 133.141 124.233 133.164 124.269C133.186 124.305 133.216 124.335 133.251 124.359C133.285 124.383 133.325 124.4 133.366 124.409C135.933 124.967 137.9 124.174 139.269 122.029C140.163 120.628 141.244 118.734 142.511 116.346C143.604 114.3 142.548 113.092 140.951 111.95C140.82 111.858 140.669 111.798 140.51 111.776C140.351 111.755 140.189 111.772 140.038 111.826C139.888 111.88 139.752 111.97 139.644 112.088C139.535 112.206 139.456 112.348 139.414 112.503L138.825 114.713ZM144.199 185.718C135.977 184.637 128.953 180.875 123.128 174.431C122.553 173.796 122.112 173.45 121.804 173.393C121.229 173.288 120.648 173.634 120.061 174.431C119.999 174.515 119.966 174.617 119.97 174.722C119.973 174.826 120.012 174.927 120.079 175.008C131.192 188.481 150.236 192.506 166.006 184.911C169.334 183.312 172.815 180.806 176.451 177.394C176.613 177.244 176.655 177.064 176.578 176.854C176.299 176.085 175.764 175.599 174.975 175.397C174.886 175.372 174.792 175.372 174.703 175.395C174.613 175.419 174.531 175.465 174.465 175.53C165.915 183.844 155.826 187.24 144.199 185.718Z" fill="black"/>
<path d="M136.353 103.362L134.445 103.389C134.09 103.394 133.807 103.686 133.812 104.042L133.813 104.102C133.818 104.458 134.109 104.742 134.463 104.737L136.371 104.71C136.726 104.706 137.009 104.413 137.004 104.057L137.003 103.997C136.998 103.642 136.707 103.357 136.353 103.362Z" fill="#CCCCCD"/>
<path d="M174.183 104C185.994 110.913 194.1 121.043 198.499 134.389C198.814 135.333 198.639 136.671 198.966 137.414C201.705 143.682 201.179 153.199 200.257 160.087C200.214 160.391 199.953 160.696 199.474 161L199.34 159.868C199.313 159.633 199.184 159.513 198.955 159.509L197.582 159.479C198.396 154.112 198.474 148.868 197.816 143.748L197.734 136.373C197.73 136.142 197.619 136.008 197.401 135.972L196.175 135.789C191.904 122.174 183.512 111.982 171 105.211L174.183 104Z" fill="#01214D"/>
<path d="M160 116.987C158.142 117.079 156.396 116.693 154.761 115.828C155.222 115.432 155.513 114.998 155.634 114.526C155.702 114.266 155.654 114.032 155.492 113.824L152.864 110.487C152.784 110.385 152.676 110.315 152.555 110.285C152.434 110.256 152.308 110.27 152.196 110.325C151.441 110.685 150.871 111.269 150.486 112.077C150.453 112.148 150.4 112.207 150.334 112.244C150.268 112.281 150.193 112.295 150.119 112.283C150.045 112.272 149.977 112.236 149.924 112.181C149.87 112.125 149.835 112.053 149.823 111.975L149.008 107.174C148.994 107.092 148.999 107.008 149.023 106.93C149.046 106.851 149.088 106.78 149.144 106.723L149.568 106.291C149.663 106.194 149.775 106.119 149.898 106.069C150.021 106.019 150.153 105.996 150.284 106.001C150.416 106.006 150.545 106.039 150.664 106.098C150.784 106.157 150.891 106.241 150.978 106.345L160 116.987Z" fill="#01214D"/>
<path d="M193 135.958L187.666 136C182.925 124.531 174.745 116.493 163.125 111.885L161 106C172.459 109.202 181.366 115.525 187.72 124.97C189.743 127.98 191.503 131.642 193 135.958Z" fill="#01214D"/>
<path d="M136.178 107.19C137.985 106.588 139.259 107.417 140 109.678C138.947 110.526 137.078 112.032 136.32 109.94C135.948 108.91 135.9 107.993 136.178 107.19Z" fill="#01214D"/>
<path d="M106.046 167.077C106.73 166.929 107.01 166.768 106.887 166.596C105.826 165.106 105.014 163.779 104.449 162.614C104.398 161.229 104.187 159.888 103.818 158.591C103.385 157.053 103.144 155.859 103.097 155.007C102.064 136.103 109.306 121.385 124.824 110.852C125.491 110.403 126.159 110.122 126.826 110.009C127.021 109.977 127.19 110.029 127.333 110.166C128.322 111.117 128.969 112.264 129.275 113.605C129.325 113.821 129.306 114.048 129.22 114.251C129.134 114.455 128.987 114.625 128.798 114.737C120.432 119.724 114.481 126.631 110.945 135.457C104.616 151.273 108.996 169.776 121.433 181.153C128.89 187.971 137.938 191.551 148.577 191.892C148.691 191.897 148.798 191.945 148.877 192.027C148.956 192.109 149 192.219 149 192.332L148.982 196.169C148.982 196.389 148.895 196.601 148.74 196.756C148.584 196.912 148.373 197 148.154 197C142.679 197.012 137.251 195.904 131.867 193.675C119.496 188.56 110.889 179.694 106.046 167.077Z" fill="#01214D"/>
<path d="M163 111C174.838 115.777 183.171 124.111 188 136L183.976 135.938C181.511 130.047 177.804 124.971 172.856 120.708C172.006 119.973 171.155 119.524 170.305 119.362C170.334 118.764 170.197 118.224 169.894 117.742C169.775 117.555 169.608 117.464 169.391 117.468C167.367 117.499 165.858 117.854 164.828 115.636C164.12 114.107 163.511 112.562 163 111Z" fill="black"/>
<path d="M138.061 118.246L138.801 114.988L139.399 112.746C139.442 112.589 139.522 112.445 139.632 112.325C139.742 112.206 139.88 112.115 140.033 112.06C140.186 112.005 140.351 111.987 140.512 112.009C140.673 112.031 140.827 112.092 140.96 112.185C142.582 113.343 143.655 114.569 142.545 116.645C141.258 119.067 140.16 120.989 139.251 122.41C137.861 124.586 135.863 125.391 133.256 124.824C133.213 124.816 133.174 124.799 133.138 124.774C133.103 124.75 133.073 124.719 133.05 124.682C133.027 124.646 133.011 124.606 133.004 124.564C132.997 124.521 132.999 124.478 133.009 124.436C133.434 122.595 134.761 123.069 136.235 122.847C136.339 122.83 136.437 122.785 136.517 122.717C136.598 122.648 136.658 122.559 136.691 122.459L138.061 118.246Z" fill="#CCCCCD"/>
<path d="M139 114.052L138.295 117.385C138.358 117.121 138.362 116.919 138.307 116.78C138.291 116.736 138.266 116.696 138.235 116.661C138.205 116.627 138.168 116.6 138.127 116.581C138.087 116.562 138.044 116.552 138 116.552C137.956 116.552 137.913 116.561 137.872 116.579C132.297 118.956 127.657 122.414 123.952 126.951C122.245 129.043 120.282 132.059 118.062 136L116 135.868C116.243 133.154 117.511 130.266 119.806 127.203C123.878 121.771 129.047 117.612 135.312 114.726C136.643 114.113 137.872 113.888 139 114.052Z" fill="#01214D"/>
<path d="M170.075 120C170.941 120.155 171.808 120.585 172.674 121.29C177.713 125.373 181.489 130.237 184 135.881L181.27 136C178.667 130.985 175.098 126.758 170.562 123.319C170.429 123.22 170.317 123.186 170.225 123.218C170.104 123.266 170.029 123.385 170 123.576L170.075 120Z" fill="#01214D"/>
<path d="M222.884 135.061L225.109 135L230.746 135.529L234.294 136.414L236.872 137.546C239.826 139.193 241.805 141.819 242.808 145.422C242.877 145.66 242.788 145.779 242.54 145.779L231.667 145.797C230.18 145.969 229.412 145.926 228.119 144.985C225.438 143.034 222.632 143.094 219.702 145.164C219.178 145.533 218.955 145.83 219.032 146.055C219.121 146.312 219.286 146.538 219.507 146.706C219.727 146.874 219.994 146.977 220.275 147.002L232.13 148.121C237.402 148.613 244.442 151.263 242.741 157.793C241.782 161.474 239.604 164.161 236.207 165.854L233.654 166.979L230.259 167.674L224.444 168L222.518 167.988L217.331 167.545L215.113 167.047L210.164 164.938C207.653 163.229 206.001 160.806 205.209 157.67C205.148 157.424 205.243 157.301 205.495 157.301L211.535 157.289L218.691 157.357C218.906 157.357 219.089 157.43 219.239 157.578C220.548 158.849 221.994 159.472 223.579 159.447C225.944 159.632 227.699 158.92 228.845 157.314C228.914 157.216 228.958 157.103 228.971 156.984C228.984 156.865 228.966 156.744 228.92 156.634C228.873 156.524 228.799 156.428 228.705 156.355C228.61 156.283 228.499 156.236 228.382 156.219L223.695 155.592C219.753 155.436 215.854 154.967 211.998 154.184C206.775 152.973 203.356 148.902 205.812 143.491L207.33 140.927C209.504 138.013 212.854 136.228 217.38 135.572L222.884 135.061Z" fill="white"/>
<path d="M82.1395 136.036L87.5176 136.282L90.1183 140.552L91.7019 142.99L96.7754 150.707L99.4431 154.683L104.48 162.544C105.057 163.705 105.887 165.028 106.971 166.514C107.097 166.686 106.811 166.846 106.112 166.994L102.507 166.904L99.3944 166.976L94.3635 167L90.7761 161.889L86.7562 161.835L73.7466 161.805L71.0119 161.901L67.8386 166.868L55.2736 166.796C54.9934 166.792 54.9284 166.674 55.0787 166.441L66.0845 149.434L70.6647 142.252L74.6845 136.27C74.8063 136.086 74.9809 135.996 75.2083 136L82.1395 136.036ZM77.7603 150.509L75.8966 153.644C75.7666 153.864 75.8255 154.004 76.0732 154.064C76.6051 154.196 77.1898 154.198 77.8273 154.07L81.2503 154.034L85.8548 154.046C86.139 154.05 86.2101 153.93 86.068 153.686L81.6949 146.149L81.232 145.296C81.0899 145.036 80.9457 145.034 80.7996 145.29L77.7603 150.509Z" fill="white"/>
<path d="M115.298 136L117.443 136.126C124.142 136.102 130.783 136.126 137.368 136.198C144.353 136.276 154.798 137.097 155.899 145.954C157.005 154.876 148.852 157.172 141.511 157.88C138.443 158.176 133.477 158.25 126.611 158.102C126.375 158.098 126.256 158.212 126.256 158.444L126.269 166.682C126.269 166.894 126.161 167 125.945 167H113.403C113.187 167 113.079 166.896 113.079 166.688L113.031 159.319L113 143.723L113.092 136.54C113.096 136.308 113.214 136.182 113.446 136.162L115.298 136ZM126.269 144.035L126.256 150.235C126.256 150.284 126.276 150.331 126.312 150.366C126.347 150.401 126.396 150.421 126.446 150.421L137.068 150.439C137.815 150.44 138.554 150.372 139.244 150.237C139.933 150.103 140.56 149.905 141.088 149.656C141.616 149.406 142.035 149.11 142.32 148.783C142.606 148.457 142.753 148.106 142.752 147.752V146.565C142.751 145.852 142.154 145.167 141.09 144.661C140.027 144.155 138.585 143.87 137.08 143.867L126.458 143.849C126.408 143.849 126.36 143.869 126.324 143.903C126.289 143.938 126.269 143.986 126.269 144.035Z" fill="white"/>
<path d="M181.142 136.131L183.748 136.012L187.661 136.072L192.945 136.03L196.63 136L197.883 136.179C198.105 136.215 198.219 136.347 198.223 136.574L198.306 143.819L195.032 143.771L189.647 143.783L185.949 143.807L183.814 143.819L176.228 143.813C175.985 143.813 175.864 143.934 175.864 144.177L175.876 148.2C175.876 148.42 175.987 148.529 176.21 148.529L184.542 148.511L186.325 148.487L190.535 148.529L194.489 148.661C194.566 148.662 194.64 148.694 194.694 148.748C194.749 148.803 194.78 148.876 194.782 148.954L194.829 154.052C194.83 154.103 194.821 154.153 194.803 154.199C194.784 154.246 194.757 154.289 194.722 154.325C194.687 154.361 194.645 154.39 194.599 154.41C194.553 154.43 194.504 154.44 194.454 154.441L190.142 154.519L176.156 154.525C175.966 154.529 175.87 154.624 175.87 154.812V158.96C175.87 159.159 175.969 159.259 176.168 159.259L189.766 159.247H194.943L198.068 159.271L199.469 159.301C199.704 159.305 199.835 159.422 199.863 159.654L200 160.765L199.952 166.57C199.948 166.769 199.847 166.872 199.648 166.88L198.324 166.916L196.308 166.821L192.354 167L187.386 166.952L182.496 166.922L179.669 166.886L163.292 166.874C163.097 166.874 163 166.777 163 166.582V136.418C163 136.223 163.097 136.126 163.292 136.126L181.142 136.131Z" fill="white"/>
<path d="M112.962 143L113 159C112.461 157.425 111.406 156.084 111.237 154.485C110.99 152.225 110.936 149.961 111.075 147.694C111.19 145.701 110.898 144.495 112.962 143Z" fill="#01214D"/>
<path d="M126.012 143.197C126.012 143.145 126.031 143.095 126.066 143.058C126.1 143.021 126.147 143 126.196 143L136.499 143.019C137.958 143.022 139.357 143.325 140.388 143.863C141.419 144.4 141.999 145.128 142 145.885V147.146C142 147.522 141.858 147.895 141.581 148.241C141.304 148.588 140.898 148.903 140.386 149.168C139.874 149.434 139.266 149.643 138.597 149.786C137.928 149.929 137.211 150.001 136.487 150L126.184 149.981C126.135 149.981 126.088 149.96 126.054 149.923C126.019 149.886 126 149.836 126 149.783L126.012 143.197Z" fill="black"/>
<path d="M183.329 143.006C183.168 144.768 183.392 146.426 184 147.981L176.319 148C176.114 148 176.011 147.884 176.011 147.651L176 143.387C176 143.129 176.112 143 176.335 143L183.329 143.006Z" fill="black"/>
<path d="M186.292 143C187.079 144.914 187.21 146.573 186.685 147.975L184.819 148C184.128 146.441 183.874 144.779 184.058 143.013L186.292 143Z" fill="#01214D"/>
<path d="M186 143.025L189.225 143L190 148L186.328 147.956C186.765 146.566 186.655 144.923 186 143.025Z" fill="black"/>
<path d="M189 143.012L194.665 143C194.859 145.114 195.217 146.671 194.822 148.89C194.546 150.414 194.504 151.945 194.696 153.481C194.941 155.484 194.615 157.078 194.571 159H189.125L189.521 154.112L194.056 154.031C194.109 154.03 194.161 154.019 194.21 153.999C194.258 153.978 194.302 153.948 194.338 153.911C194.375 153.874 194.404 153.83 194.423 153.781C194.443 153.733 194.452 153.682 194.452 153.63L194.401 148.358C194.4 148.278 194.367 148.202 194.31 148.146C194.252 148.089 194.175 148.057 194.094 148.055L189.935 147.919L189 143.012Z" fill="#01214D"/>
<path d="M195.094 143L198.527 143.049C199.232 148.241 199.149 153.558 198.277 159L195 158.975C195.044 157.056 195.369 155.464 195.125 153.465C194.933 151.931 194.975 150.402 195.25 148.88C195.644 146.665 195.288 145.11 195.094 143Z" fill="black"/>
<path d="M232.541 145.449L233 148L221.247 146.772C220.968 146.744 220.704 146.631 220.485 146.447C220.267 146.262 220.103 146.014 220.015 145.733C219.938 145.485 220.16 145.159 220.679 144.754C223.584 142.482 226.365 142.417 229.024 144.559C230.305 145.591 231.066 145.638 232.541 145.449Z" fill="#01214D"/>
<path d="M82 146.053L81.3499 146.457C81.1765 146.565 81.0671 146.718 81.0217 146.914C80.5098 149.256 80.6852 151.606 81.548 153.964L78.0681 154C78.8442 152.377 78.8215 151.186 78 150.427L81.0898 145.191C81.2384 144.934 81.3849 144.936 81.5294 145.197L82 146.053Z" fill="black"/>
<path d="M82.3118 146L86.925 153.635C87.075 153.882 87 154.004 86.7002 154L81.8428 153.988C80.9476 151.607 80.7655 149.234 81.2967 146.87C81.3438 146.671 81.4573 146.517 81.6372 146.408L82.3118 146Z" fill="#01214D"/>
<path d="M78.2679 150C79.217 150.828 79.2433 152.127 78.3466 153.896C77.5978 154.037 76.911 154.034 76.2862 153.89C75.9953 153.824 75.9262 153.671 76.0788 153.43L78.2679 150Z" fill="#01214D"/>
<path d="M212.479 154C216.47 154.744 220.505 155.189 224.583 155.337C225.176 156.579 225.136 157.8 224.464 158.999C222.824 159.023 221.327 158.431 219.973 157.224C219.817 157.084 219.628 157.014 219.405 157.014L212 156.949L212.479 154Z" fill="#01214D"/>
<path d="M190 154L189.631 158.987L176.293 159C176.098 159 176 158.895 176 158.685V154.309C176 154.111 176.094 154.011 176.281 154.006L190 154Z" fill="black"/>
<path d="M224.107 155L228.45 155.646C228.559 155.663 228.662 155.711 228.75 155.786C228.837 155.861 228.906 155.96 228.949 156.074C228.992 156.187 229.008 156.311 228.996 156.434C228.984 156.556 228.944 156.673 228.879 156.773C227.818 158.428 226.191 159.161 224 158.971C224.602 157.67 224.638 156.347 224.107 155Z" fill="black"/>
<path d="M74 161L86.8488 161.031C89.0104 172.742 93.6502 182.814 100.768 191.246C113.822 206.707 130.659 214.339 151.279 214.143C151.351 214.143 151.421 214.172 151.473 214.223C151.526 214.274 151.558 214.344 151.562 214.419L151.773 218.657C151.778 218.767 151.762 218.877 151.725 218.98C151.689 219.083 151.632 219.178 151.558 219.258C151.484 219.338 151.396 219.402 151.297 219.447C151.199 219.491 151.092 219.515 150.985 219.516C122.694 219.823 97.5442 203.617 86.3135 177.322C84.3805 172.795 82.7945 167.51 81.5553 161.466C81.5335 161.351 81.4739 161.247 81.3865 161.172C81.299 161.096 81.1888 161.053 81.0741 161.049L80.2079 161.006C79.6264 160.982 79.3898 161.26 79.4981 161.84C81.3107 171.871 84.8016 180.902 89.9708 188.933C103.746 210.322 127.007 222.724 152.158 221.589C164.2 221.05 175.331 217.649 185.549 211.389C185.755 211.264 186 211.224 186.233 211.279C186.466 211.334 186.669 211.479 186.8 211.683L188.93 215.002C189.05 215.19 189.016 215.343 188.827 215.462C159.172 234.041 121.203 229.901 96.293 205.077C86.3516 195.169 79.5602 183.204 75.9189 169.182C75.2091 166.455 74.5695 163.727 74 161Z" fill="#01214D"/>
<path d="M71.4878 161L72.2344 161.806C72.3458 161.928 72.4184 162.077 72.4432 162.236C74.0461 172.457 77.5345 181.993 82.9083 190.844C82.9518 190.915 82.9806 190.994 82.993 191.077C83.0054 191.159 83.0012 191.243 82.9807 191.324C82.9601 191.404 82.9235 191.48 82.8731 191.547C82.8227 191.614 82.7594 191.67 82.6869 191.712L78.9475 193.917C78.6902 194.066 78.4856 194.014 78.3338 193.76C73.9849 186.483 70.6505 178.45 68.3306 169.662C67.9425 168.196 67.8961 167.03 68.1914 166.164L71.4878 161Z" fill="#01214D"/>
<path d="M91 161L94.5036 166.169C96.4308 172.693 99.2206 178.463 102.873 183.48C114.004 198.771 129.143 206.752 148.288 207.425C148.518 207.433 148.683 207.542 148.782 207.753C149.091 208.413 149.071 209.075 148.723 209.739C148.631 209.913 148.489 210 148.294 210C124.703 209.83 104.812 196.163 94.8188 174.527C92.7012 169.939 91.4283 165.43 91 161Z" fill="#01214D"/>
<path d="M211.057 165L216 167.028C215.103 170.482 214.066 173.575 212.89 176.307C205.817 192.77 193.839 204.96 176.958 212.876C176.796 212.952 176.62 212.994 176.44 212.999C176.26 213.005 176.081 212.973 175.914 212.906C175.748 212.839 175.597 212.738 175.473 212.611C175.349 212.483 175.253 212.332 175.193 212.166L174.03 208.961C173.986 208.836 173.99 208.699 174.043 208.577C174.096 208.455 174.193 208.356 174.317 208.299C193.559 199.578 205.806 185.145 211.057 165Z" fill="#01214D"/>
<path d="M236.517 165C236.932 165.755 237.08 166.425 236.96 167.01C229.596 203.591 201.516 232.063 165.568 238.645C157.917 240.042 149.726 240.359 140.997 239.596C105.588 236.501 76.2332 212.026 64.9952 178.407C64.185 175.984 63.5284 173.576 63.0254 171.182C62.9685 170.918 63.0079 170.642 63.1365 170.404C63.2651 170.166 63.4744 169.982 63.7259 169.887C64.8216 169.475 65.3185 169.893 65.588 170.965C75.3711 210.149 109.803 237.567 149.96 237.737C154.091 237.749 158.623 236.98 162.946 236.459C166.85 235.983 171.188 234.941 175.962 233.334C196.887 226.274 214.34 211.614 225.069 192.267C229.328 184.585 232.308 175.865 234.008 166.108L236.517 165Z" fill="#01214D"/>
<path d="M205.977 167.295C203.289 175.905 199.554 183.279 193.94 189.804C184.055 201.297 171.609 208.028 156.602 209.997C156.538 210.004 156.473 209.999 156.411 209.98C156.349 209.962 156.292 209.931 156.243 209.889C156.193 209.848 156.153 209.796 156.125 209.739C156.097 209.681 156.081 209.618 156.078 209.554L156.001 208.202C155.99 207.985 156.059 207.772 156.195 207.605C156.33 207.438 156.522 207.328 156.733 207.298C179.279 204.23 196.711 187.894 203.652 166.367C203.739 166.1 203.921 165.979 204.199 166.003C204.833 166.06 205.386 166.324 205.858 166.797C205.921 166.861 205.965 166.941 205.986 167.029C206.007 167.117 206.004 167.209 205.977 167.295Z" fill="#01214D"/>
<path d="M99 167.203L102.064 167.131C102.232 167.9 102.364 168.925 102.682 169.628C109.877 185.685 121.83 195.545 138.54 199.208C146.671 200.984 155.348 200.669 163.084 198.124C178.758 192.978 189.656 182.603 195.776 167L197.803 167.095C198.023 167.66 198.059 168.146 197.911 168.556C186.805 199.709 149.046 212.779 120.833 194.935C110.499 188.403 103.221 179.159 99 167.203Z" fill="#01214D"/>
<path d="M180 167L181.918 167.03C182.094 167.796 181.987 168.401 181.598 168.848C181.496 168.967 181.376 169.016 181.238 168.996C180.456 168.877 180.043 168.212 180 167Z" fill="#01214D"/>
<path d="M187.821 167L193 167.048C189.775 175.394 184.561 182.282 177.357 187.713C176.267 188.538 175.12 189.283 173.918 189.95C173.834 189.998 173.734 190.012 173.639 189.989C173.544 189.967 173.461 189.909 173.409 189.829L171.114 186.337C171.063 186.261 171.029 186.176 171.012 186.086C170.995 185.997 170.996 185.905 171.016 185.816C171.036 185.727 171.073 185.642 171.126 185.567C171.179 185.493 171.247 185.429 171.326 185.38C177.711 181.355 182.617 176.141 186.055 169.582C186.511 168.718 187.1 167.857 187.821 167Z" fill="#01214D"/>
<path d="M217.835 167L223 167.434C218.978 184.125 210.406 197.945 197.284 208.893C197.239 208.931 197.186 208.96 197.128 208.979C197.071 208.997 197.011 209.003 196.951 208.998C196.891 208.993 196.833 208.977 196.78 208.949C196.727 208.922 196.68 208.884 196.641 208.838L194.213 205.959C194.058 205.776 193.983 205.539 194.003 205.301C194.024 205.063 194.139 204.842 194.323 204.688C204.139 196.402 211.163 186.217 215.395 174.133C216.217 171.791 217.03 169.414 217.835 167Z" fill="#01214D"/>
<path d="M230 167C225.482 188.094 214.977 204.885 198.484 217.373C165.594 242.281 120.448 238.809 91.1393 209.607C91.0957 209.564 91.061 209.512 91.0371 209.455C91.0132 209.398 91.0006 209.336 91 209.275C90.9995 209.213 91.011 209.152 91.0338 209.095C91.0567 209.038 91.0905 208.986 91.1333 208.943L94.007 206.027C94.1152 205.918 94.261 205.856 94.4134 205.855C94.5657 205.854 94.7124 205.913 94.8221 206.021C117.443 228.598 150.619 234.993 179.749 222.427C183.378 220.865 186.884 218.993 190.268 216.811C207.078 205.978 218.265 190.594 223.83 170.659C224.128 169.603 224.145 168.449 224.324 167.32L230 167Z" fill="#01214D"/>
<path d="M143.954 185.071C155.448 186.559 165.421 183.238 173.874 175.108C173.94 175.045 174.021 174.999 174.109 174.976C174.198 174.953 174.291 174.954 174.378 174.977C175.159 175.175 175.687 175.65 175.963 176.402C176.039 176.608 175.997 176.784 175.837 176.931C172.243 180.268 168.801 182.718 165.512 184.281C149.921 191.709 131.095 187.772 120.109 174.597C120.042 174.518 120.003 174.42 120 174.317C119.997 174.215 120.029 174.115 120.091 174.033C120.671 173.254 121.245 172.915 121.814 173.018C122.118 173.073 122.554 173.412 123.122 174.033C128.881 180.335 135.825 184.014 143.954 185.071Z" fill="#01214D"/>
</svg>
