<svg width="428" height="430" viewBox="0 0 428 430" fill="none" xmlns="http://www.w3.org/2000/svg">
<rect width="428" height="430" fill="transparent"/>
<ellipse cx="213.051" cy="214.523" rx="133.335" ry="127.761" fill="transparent"/>
<path d="M93.0215 184.049C101.504 153.123 120.165 126.687 147.146 109.899C174.915 92.6191 205.5 87.1524 238.901 93.4992C239.272 93.5698 239.656 93.4954 239.976 93.291C240.295 93.0867 240.526 92.7676 240.622 92.3984L240.861 91.4954C240.908 91.3143 240.918 91.1255 240.89 90.9407C240.861 90.7558 240.796 90.579 240.697 90.421C240.598 90.2629 240.469 90.1272 240.316 90.022C240.163 89.9169 239.99 89.8447 239.808 89.8098C204.758 82.9298 172.769 88.7979 143.842 107.414C117.803 124.167 99.3644 149.64 90.599 179.516C90.2652 180.652 90.2052 181.916 89.8115 183.146C89.7646 183.294 89.7769 183.455 89.8458 183.593C89.9147 183.732 90.0345 183.837 90.1796 183.885L92.1141 184.53C92.5878 184.691 92.8902 184.53 93.0215 184.049Z" stroke="#011127" stroke-width="2"/>
<path d="M95.0074 213.289L79.5395 237.644C79.3284 237.976 79.4197 238.145 79.8134 238.151L97.4727 238.254" stroke="#808080" stroke-width="2"/>
<path d="M97.4727 238.254C97.0732 239.447 97.136 241.052 97.661 243.07C100.8 255.173 105.311 266.236 111.194 276.258C111.4 276.608 111.677 276.679 112.025 276.473L117.084 273.437C117.182 273.379 117.267 273.301 117.336 273.209C117.404 273.118 117.453 273.013 117.481 272.902C117.509 272.791 117.515 272.675 117.498 272.562C117.481 272.449 117.442 272.34 117.383 272.242C110.113 260.053 105.394 246.92 103.225 232.845C103.191 232.626 103.093 232.42 102.943 232.252L101.932 231.142" stroke="#011127" stroke-width="2"/>
<path d="M101.932 231.143L105.776 231.005" stroke="#808080" stroke-width="2"/>
<path d="M105.776 231.005C106.586 234.829 107.496 238.653 108.507 242.477C113.688 262.137 123.352 278.912 137.499 292.804C172.946 327.608 226.977 333.413 269.178 307.364C269.446 307.198 269.494 306.983 269.323 306.719L266.293 302.066C266.107 301.78 265.817 301.577 265.486 301.5C265.154 301.423 264.805 301.478 264.513 301.654C249.972 310.431 234.133 315.199 216.996 315.955C181.207 317.546 148.105 300.157 128.503 270.169C121.147 258.909 116.179 246.247 113.6 232.183C113.446 231.369 113.782 230.979 114.61 231.013L115.842 231.073C116.006 231.078 116.163 231.139 116.287 231.245C116.411 231.351 116.496 231.497 116.527 231.658C118.291 240.132 120.548 247.542 123.298 253.889C139.28 290.757 175.069 313.479 215.327 313.049C215.48 313.046 215.631 313.013 215.771 312.951C215.912 312.889 216.038 312.799 216.143 312.686C216.247 312.574 216.328 312.441 216.381 312.297C216.433 312.152 216.456 311.998 216.448 311.845L216.149 305.902C216.142 305.797 216.097 305.699 216.022 305.627C215.947 305.555 215.849 305.515 215.746 305.515C186.403 305.79 162.443 295.089 143.868 273.411C133.739 261.589 127.136 247.468 124.06 231.048" stroke="#011127" stroke-width="2"/>
<path d="M124.06 231.048L129.71 231.126" stroke="#808080" stroke-width="2"/>
<path d="M129.71 231.125C130.326 237.397 132.158 243.781 135.205 250.277C149.586 280.91 178.211 300.26 212.16 300.501C212.439 300.501 212.645 300.378 212.776 300.131C213.278 299.191 213.307 298.254 212.862 297.319C212.719 297.021 212.482 296.866 212.151 296.855C184.599 295.903 162.814 284.603 146.795 262.954C141.54 255.85 137.525 247.68 134.752 238.444" stroke="#011127" stroke-width="2"/>
<path d="M134.751 238.444L141.822 238.409" stroke="#808080" stroke-width="2"/>
<path d="M141.822 238.409C147.848 255.661 158.237 268.999 172.989 278.425C213.264 304.173 267.166 285.314 283.019 240.361C283.23 239.771 283.179 239.069 282.865 238.254" stroke="#011127" stroke-width="2"/>
<path d="M282.865 238.254L284.766 238.203C285.051 238.191 285.196 238.042 285.202 237.756L285.271 229.405" stroke="#808080" stroke-width="2"/>
<path d="M285.271 229.405C285.972 228.975 286.355 228.545 286.418 228.115C287.77 218.38 288.54 204.929 284.526 196.071C284.046 195.022 284.303 193.13 283.841 191.797C277.392 172.935 265.511 158.618 248.197 148.849" stroke="#011127" stroke-width="2"/>
<path d="M248.197 148.849C250.109 147.639 251.667 146.005 252.871 143.947" stroke="#666667" stroke-width="2"/>
<path d="M252.871 143.947C254.908 145.237 257.348 146.346 259.162 147.653C278.325 161.459 289.784 180.202 293.539 203.88C293.585 204.167 293.733 204.382 293.985 204.525L294.567 204.869" stroke="#011127" stroke-width="2"/>
<path d="M294.567 204.869C291.117 212.437 295.919 218.13 303.255 219.825" stroke="#808080" stroke-width="2"/>
<path d="M303.255 219.825L302.605 224.168" stroke="#011127" stroke-width="2"/>
<path d="M302.605 224.168L294.122 224.185C293.768 224.185 293.634 224.357 293.719 224.701C294.832 229.087 297.152 232.475 300.679 234.866" stroke="#808080" stroke-width="2"/>
<path d="M300.679 234.866C293.294 264.163 276.071 285.153 249.01 297.835C248.837 297.918 248.7 298.062 248.626 298.239C248.552 298.417 248.545 298.616 248.608 298.798L250.243 303.46C250.328 303.7 250.462 303.921 250.637 304.106C250.811 304.291 251.023 304.437 251.257 304.534C251.491 304.632 251.743 304.678 251.996 304.671C252.249 304.664 252.498 304.602 252.725 304.492C276.465 292.979 293.308 275.252 303.255 251.309C304.91 247.336 306.368 242.838 307.629 237.816" stroke="#011127" stroke-width="2"/>
<path d="M307.629 237.816L310.745 238.512" stroke="#808080" stroke-width="2"/>
<path d="M310.745 238.512C309.609 241.958 308.462 245.352 307.304 248.695C301.335 265.946 291.428 280.486 277.584 292.314C277.324 292.534 277.162 292.849 277.133 293.189C277.105 293.529 277.211 293.867 277.43 294.129L280.854 298.239C280.908 298.305 280.975 298.358 281.05 298.397C281.125 298.437 281.207 298.46 281.291 298.468C281.376 298.475 281.46 298.465 281.541 298.439C281.622 298.413 281.696 298.372 281.761 298.317C300.268 282.688 312.357 262.959 318.03 239.132" stroke="#011127" stroke-width="2"/>
<path d="M318.03 239.132L320.735 239.149" stroke="#808080" stroke-width="2"/>
<path d="M320.735 239.149C320.478 240.757 320.452 242.4 320.024 243.905C312.018 272.296 295.922 294.206 271.737 309.634C266.869 312.742 261.825 315.408 256.603 317.632C214.693 335.529 166.963 326.422 134.418 294.266C134.26 294.113 134.049 294.029 133.83 294.03C133.61 294.032 133.401 294.12 133.245 294.275L129.11 298.429C129.049 298.49 129 298.564 128.967 298.645C128.934 298.726 128.918 298.813 128.919 298.901C128.919 298.989 128.938 299.076 128.972 299.157C129.006 299.239 129.056 299.312 129.119 299.375C171.286 340.964 236.239 345.909 283.559 310.434C307.287 292.649 322.401 268.736 328.901 238.693" stroke="#011127" stroke-width="2"/>
<path d="M328.901 238.693L333.669 237.721" stroke="#808080" stroke-width="2"/>
<path d="M333.669 237.721C331.238 251.579 326.978 263.963 320.889 274.873C305.549 302.35 280.597 323.171 250.68 333.198C243.854 335.48 237.651 336.959 232.07 337.636C225.89 338.376 219.41 339.468 213.503 339.451C156.092 339.21 106.863 300.269 92.876 244.618C92.4908 243.096 91.7803 242.503 90.2138 243.088C89.8541 243.224 89.555 243.484 89.3711 243.822C89.1872 244.16 89.1309 244.553 89.2123 244.928C89.9313 248.328 90.8701 251.748 92.0285 255.188C108.096 302.935 150.065 337.696 200.689 342.091C213.17 343.174 224.88 342.724 235.819 340.741C287.214 331.392 327.36 290.955 337.889 239.003C338.06 238.171 337.849 237.22 337.255 236.147" stroke="#011127" stroke-width="2"/>
<path d="M337.255 236.147C342.026 233.78 345.085 230.021 346.432 224.873C348.82 215.74 338.933 212.033 331.529 211.345" stroke="#808080" stroke-width="2"/>
<path d="M331.529 211.345L330.878 208.094" stroke="#011127" stroke-width="2"/>
<path d="M330.878 208.094L346.149 208.068C346.497 208.068 346.623 207.902 346.526 207.57C345.116 202.53 342.337 198.858 338.188 196.553" stroke="#808080" stroke-width="2"/>
<path d="M338.188 196.553C337.458 189.34 336.502 183.739 335.321 179.749C333.62 174.015 330.747 166.998 326.701 158.696C315.037 134.782 297.66 116.281 274.571 103.191C274.011 102.876 273.229 102.523 272.225 102.134C271.951 102.03 271.692 102.059 271.446 102.22C270.59 102.77 270.125 103.51 270.051 104.438C270.028 104.754 270.154 104.989 270.428 105.144C305.718 124.906 327.098 154.849 334.568 194.971" stroke="#011127" stroke-width="2"/>
<path d="M334.568 194.971L329.586 193.732" stroke="#808080" stroke-width="2"/>
<path d="M329.586 193.732C327.817 186.342 326.561 181.497 325.819 179.198C318.252 155.812 305.147 136.66 286.503 121.742C246.083 89.4142 188.157 86.7654 145.554 116.848C119.229 135.441 102.757 160.92 96.1373 193.285C95.3327 197.241 95.2214 201.945 94.6479 206.237C94.4938 207.423 94.4853 208.599 94.6222 209.763C94.7535 210.875 94.8819 212.05 95.0074 213.289" stroke="#011127" stroke-width="2"/>
<path d="M329.586 193.732L321.668 192.993" stroke="#8090A6" stroke-width="2"/>
<path d="M321.668 192.993C316.714 168.815 305.198 148.516 287.12 132.096C269.012 115.641 248.066 106.224 224.281 103.845C166.843 98.0916 113.531 137.084 103.713 194.807C103.542 195.805 103.111 197.012 102.42 198.428C101.644 200.022 101.319 201.547 101.445 203.003" stroke="#011127" stroke-width="2"/>
<path d="M101.445 203.003L95.0074 213.289" stroke="#8090A6" stroke-width="2"/>
<path d="M146.196 238.306L141.822 238.409" stroke="#8090A6" stroke-width="2"/>
<path d="M134.752 238.444L129.71 231.125" stroke="#8090A6" stroke-width="2"/>
<path d="M124.06 231.048L105.776 231.005" stroke="#8090A6" stroke-width="2"/>
<path d="M101.932 231.142L97.4727 238.254" stroke="#8090A6" stroke-width="2"/>
<path d="M321.668 192.993L318.543 193.08" stroke="#808080" stroke-width="2"/>
<path d="M318.543 193.079C314.098 172.238 304.479 154.166 289.688 138.864C289.579 138.752 289.429 138.688 289.272 138.686C289.115 138.684 288.963 138.745 288.849 138.856L284.517 143.104C284.406 143.211 284.342 143.358 284.339 143.513C284.336 143.668 284.394 143.818 284.5 143.93C296.904 156.873 307.432 174.563 310.668 192.416C310.691 192.548 310.765 192.637 310.891 192.683C310.999 192.723 311.059 192.778 311.07 192.846C311.11 193.145 311.025 193.46 310.814 193.792" stroke="#011127" stroke-width="2"/>
<path d="M310.814 193.792C304.456 194.71 299.751 197.207 296.698 201.283" stroke="#808080" stroke-width="2"/>
<path d="M296.698 201.283C292.241 175.426 278.822 155.477 256.44 141.436C255.567 140.885 254.925 141.006 254.001 141.212" stroke="#011127" stroke-width="2"/>
<path d="M254.001 141.212C254.686 137.818 254.397 135.264 253.136 133.549" stroke="#666667" stroke-width="2"/>
<path d="M253.136 133.549C272.316 143.846 286.42 158.942 295.448 178.837C295.562 179.095 295.754 179.172 296.022 179.069L301.329 176.928C301.455 176.877 301.569 176.801 301.665 176.706C301.761 176.61 301.837 176.495 301.888 176.369C301.939 176.243 301.964 176.108 301.962 175.972C301.96 175.836 301.931 175.702 301.877 175.578C296.116 162.523 287.864 151.033 277.113 141.599C255.348 122.501 229.859 114.529 200.646 117.682C194.894 118.307 189.33 119.497 183.954 121.251C151.7 131.769 128.426 156.081 118.573 188.779C118.356 189.49 118.022 191.264 117.572 194.102" stroke="#011127" stroke-width="2"/>
<path d="M117.572 194.102L107.83 194.05C107.511 194.045 107.265 194.174 107.094 194.437L101.445 203.003" stroke="#808080" stroke-width="2"/>
<path d="M330.878 208.094C328.79 208.335 327.711 208.275 325.896 206.959C322.13 204.23 318.189 204.313 314.075 207.208C313.339 207.724 313.025 208.14 313.133 208.455C313.259 208.815 313.49 209.13 313.8 209.365C314.11 209.6 314.484 209.744 314.88 209.78L331.529 211.345" stroke="#8090A6" stroke-width="2"/>
<path d="M337.255 236.147L333.669 237.721" stroke="#8090A6" stroke-width="2"/>
<path d="M328.901 238.693L320.735 239.149" stroke="#8090A6" stroke-width="2"/>
<path d="M318.03 239.132L310.745 238.512" stroke="#8090A6" stroke-width="2"/>
<path d="M307.629 237.816L300.679 234.866" stroke="#8090A6" stroke-width="2"/>
<path d="M302.605 224.168L312.654 224.262C312.956 224.262 313.213 224.365 313.424 224.572C315.262 226.349 317.293 227.221 319.519 227.186" stroke="#8090A6" stroke-width="2"/>
<path d="M319.519 227.186C322.84 227.444 325.306 226.449 326.915 224.202C327.012 224.066 327.073 223.907 327.092 223.741C327.11 223.574 327.085 223.406 327.02 223.252C326.954 223.098 326.851 222.964 326.718 222.862C326.586 222.76 326.429 222.694 326.264 222.671L319.682 221.794" stroke="#808080" stroke-width="2"/>
<path d="M319.682 221.794C314.146 221.576 308.671 220.92 303.255 219.825" stroke="#8090A6" stroke-width="2"/>
<path d="M131.011 204.061L128.785 200.569" stroke="#8090A6" stroke-width="2"/>
<path d="M194.594 153.974C194.144 154.846 194.221 155.841 194.826 156.959C196.058 159.229 199.097 157.595 200.809 156.675" stroke="#011127" stroke-width="2"/>
<path d="M221.456 165.163C223.927 166.401 226.566 166.955 229.374 166.823" stroke="#011127" stroke-width="2"/>
<path d="M242.762 176.068C242.801 175.793 242.904 175.621 243.07 175.552C243.195 175.506 243.349 175.555 243.532 175.698C249.746 180.652 254.637 186.74 258.204 193.964" stroke="#011127" stroke-width="2"/>
<path d="M258.204 193.964L232.584 193.956C232.304 193.956 232.164 194.096 232.164 194.377V237.773C232.164 238.054 232.304 238.194 232.584 238.194L256.089 238.211" stroke="#808080" stroke-width="2"/>
<path d="M256.089 238.211C256.181 240.264 257.054 241.391 258.709 241.591C259 241.626 259.254 241.542 259.471 241.342C260.292 240.585 260.518 239.559 260.147 238.263" stroke="#011127" stroke-width="2"/>
<path d="M260.147 238.263L267.166 238.307" stroke="#808080" stroke-width="2"/>
<path d="M267.166 238.306C266.173 239.521 265.363 240.743 264.735 241.97C260.001 251.275 253.248 258.671 244.456 264.381C244.348 264.451 244.255 264.542 244.182 264.648C244.108 264.754 244.057 264.874 244.03 265C244.003 265.126 244.001 265.256 244.024 265.384C244.047 265.511 244.095 265.632 244.165 265.74L247.324 270.694C247.396 270.808 247.51 270.889 247.641 270.921C247.771 270.953 247.909 270.933 248.026 270.866C249.681 269.92 251.259 268.862 252.76 267.692C262.678 259.987 269.857 250.214 274.297 238.375" stroke="#011127" stroke-width="2"/>
<path d="M274.297 238.376L279.972 238.117" stroke="#808080" stroke-width="2"/>
<path d="M279.972 238.117C271.235 260.632 255.679 275.601 233.303 283.026C222.26 286.698 209.874 287.154 198.267 284.591C174.413 279.305 157.35 265.078 147.078 241.909C146.624 240.895 146.436 239.415 146.196 238.306" stroke="#011127" stroke-width="2"/>
<path d="M146.196 238.306L151.264 238.435" stroke="#808080" stroke-width="2"/>
<path d="M151.264 238.435C158.22 256.449 170.584 269.108 188.354 276.413C196.087 279.595 203.885 281.177 211.749 281.16C212.064 281.16 212.367 281.035 212.59 280.812C212.813 280.59 212.939 280.288 212.939 279.973L212.964 274.495C212.964 274.333 212.901 274.177 212.788 274.06C212.674 273.943 212.52 273.874 212.356 273.867C197.074 273.38 184.077 268.268 173.366 258.533C155.501 242.288 149.209 215.869 158.3 193.285C163.379 180.683 171.928 170.822 183.946 163.701C184.216 163.541 184.428 163.298 184.551 163.007C184.675 162.716 184.702 162.393 184.631 162.084C184.191 160.169 183.261 158.532 181.84 157.174C181.635 156.979 181.392 156.904 181.112 156.95C180.154 157.111 179.195 157.512 178.236 158.154C155.946 173.193 145.543 194.208 147.027 221.201C147.095 222.416 147.44 224.122 148.062 226.318C148.593 228.169 148.895 230.084 148.97 232.062" stroke="#011127" stroke-width="2"/>
<path d="M148.97 232.062L141.891 220.805" stroke="#808080" stroke-width="2"/>
<path d="M226.866 130.694C217.398 129.032 208.165 128.905 199.165 130.316C198.927 130.353 198.699 130.439 198.496 130.57C198.292 130.7 198.118 130.872 197.984 131.074C197.849 131.276 197.758 131.504 197.715 131.743C197.673 131.983 197.68 132.229 197.736 132.466C198.147 134.169 199.165 134.315 200.8 134.074C208.893 132.876 217.044 132.767 225.256 133.747" stroke="#011127" stroke-width="2"/>
<path d="M223.476 140.877C217.062 139.455 210.496 139.266 203.779 140.309" stroke="#011127" stroke-width="2"/>
<path d="M191.076 143.723C188.537 143.815 186.28 144.297 184.305 145.168C159.978 155.889 144.981 174.374 139.314 200.621C138.498 204.399 138.107 209.229 138.141 215.112" stroke="#011127" stroke-width="2"/>
<path d="M138.141 215.112L131.011 204.061" stroke="#808080" stroke-width="2"/>
<path d="M131.011 204.061L132.047 203.347C132.275 203.192 132.412 202.977 132.457 202.702C136.583 177.98 149.081 158.868 169.95 145.366C172.752 143.548 177.526 141.195 184.271 138.305C184.42 138.241 184.543 138.126 184.616 137.981C184.69 137.837 184.71 137.671 184.673 137.514L184.28 135.742C184.237 135.556 184.155 135.381 184.039 135.229C183.924 135.078 183.778 134.952 183.611 134.862C183.444 134.771 183.26 134.718 183.071 134.705C182.882 134.693 182.693 134.721 182.516 134.788C154.457 145.486 133.699 170.796 128.785 200.569" stroke="#011127" stroke-width="2"/>
<path d="M128.785 200.569L125.13 194.455" stroke="#808080" stroke-width="2"/>
<path d="M191.804 146.148C190.697 146.859 187.932 148.215 183.509 150.216C170.504 156.11 160.055 165.524 152.163 178.459C144.738 190.63 141.314 204.746 141.891 220.805" stroke="#011127" stroke-width="2"/>
<path d="M141.891 220.805L138.141 215.112" stroke="#8090A6" stroke-width="2"/>
<path d="M151.264 238.435C152.245 238.223 152.648 237.994 152.471 237.747C150.947 235.62 149.78 233.725 148.97 232.062" stroke="#8090A6" stroke-width="2"/>
<path d="M253.136 133.549C249.005 124.204 241.894 121.782 231.805 126.282" stroke="#67778D" stroke-width="2"/>
<path d="M231.805 126.282C218.189 123.593 205.312 123.671 193.174 126.515C165.057 133.091 144.441 149.608 131.328 176.068C129.222 180.316 127.156 186.445 125.13 194.455" stroke="#011127" stroke-width="2"/>
<path d="M125.13 194.456L117.572 194.102" stroke="#8090A6" stroke-width="2"/>
<path d="M296.698 201.283L294.567 204.869" stroke="#8090A6" stroke-width="2"/>
<path d="M254.001 141.212L252.871 143.947" stroke="#67778D" stroke-width="2"/>
<path d="M248.197 148.849L243.532 150.56" stroke="#67778D" stroke-width="2"/>
<path d="M243.532 150.56C240.279 150.228 237.523 148.803 235.263 146.286" stroke="#666667" stroke-width="2"/>
<path d="M235.263 146.286L233.902 143.672" stroke="#67778D" stroke-width="2"/>
<path d="M233.902 143.672C233.103 140.765 233.437 138.136 234.903 135.785" stroke="#666667" stroke-width="2"/>
<path d="M234.903 135.785L236.324 133.997" stroke="#67778D" stroke-width="2"/>
<path d="M236.324 133.997C240.793 131.055 244.422 131.732 247.213 136.026C249.661 139.793 246.708 144.953 242.393 144.609C234.929 144.024 240.142 132.311 243.96 139.888C243.99 139.944 244.037 139.989 244.095 140.016C244.152 140.043 244.217 140.05 244.279 140.036C244.342 140.023 244.397 139.989 244.439 139.94C244.48 139.892 244.504 139.831 244.508 139.767C244.593 137.967 243.931 136.76 242.522 136.147C237.026 133.764 234.578 143.568 240.399 145.89C245.116 147.765 249.909 144.471 250.525 139.587C251.165 134.541 248.782 130.792 243.378 128.338" stroke="#666667" stroke-width="2"/>
<path d="M243.378 128.339L237.985 128.045" stroke="#67778D" stroke-width="2"/>
<path d="M237.985 128.045C235.286 128.688 232.983 130.095 231.077 132.268" stroke="#666667" stroke-width="2"/>
<path d="M231.077 132.268L229.785 133.893" stroke="#67778D" stroke-width="2"/>
<path d="M229.785 133.893C228.056 136.238 227.265 139.019 227.414 142.235" stroke="#666667" stroke-width="2"/>
<path d="M227.414 142.235C227.345 143.543 227.482 144.566 227.824 145.306" stroke="#67778D" stroke-width="2"/>
<path d="M227.824 145.306C228.15 148.201 228.757 150.084 229.648 150.956" stroke="#666667" stroke-width="2"/>
<path d="M229.648 150.956L232.669 159.375" stroke="#67778D" stroke-width="2"/>
<path d="M232.669 159.375C233.383 161.531 234.233 163.664 235.22 165.774C236.658 168.835 238.764 168.345 241.589 168.302C241.891 168.296 242.125 168.422 242.291 168.68C242.713 169.345 242.904 170.091 242.864 170.916" stroke="#666667" stroke-width="2"/>
<path d="M242.864 170.916L242.762 176.068" stroke="#67778D" stroke-width="2"/>
<path d="M242.762 176.068C242.716 176.274 242.619 176.415 242.471 176.489C242.345 176.547 242.194 176.535 242.017 176.455C240.533 175.795 239.714 174.603 239.56 172.877C239.555 172.808 239.536 172.74 239.504 172.678C239.472 172.616 239.427 172.562 239.374 172.518C239.32 172.473 239.258 172.441 239.192 172.421C239.125 172.402 239.055 172.396 238.987 172.404C234.339 172.963 231.865 170.194 229.374 166.823" stroke="#666667" stroke-width="2"/>
<path d="M229.374 166.823L215.738 151.575C215.605 151.426 215.443 151.306 215.263 151.221C215.083 151.136 214.887 151.088 214.688 151.081C214.489 151.074 214.291 151.107 214.105 151.179C213.919 151.25 213.749 151.359 213.606 151.498L212.964 152.117C212.88 152.198 212.817 152.3 212.781 152.412C212.746 152.525 212.738 152.645 212.759 152.762L213.991 159.642C214.01 159.754 214.063 159.857 214.143 159.936C214.224 160.016 214.327 160.067 214.439 160.083C214.55 160.1 214.664 160.08 214.764 160.027C214.864 159.974 214.944 159.89 214.993 159.788C215.575 158.63 216.437 157.793 217.578 157.277C217.747 157.198 217.938 157.178 218.121 157.22C218.303 157.262 218.468 157.364 218.588 157.509L222.56 162.291C222.805 162.589 222.877 162.924 222.774 163.297C222.591 163.973 222.152 164.595 221.456 165.163" stroke="#67778D" stroke-width="2"/>
<path d="M221.456 165.163C220.206 165.656 219.652 166.358 219.795 167.27C220.24 170.137 220.437 173.078 220.386 176.094C220.379 176.566 220.187 177.016 219.85 177.348C219.514 177.679 219.06 177.865 218.588 177.865L215.301 177.848C215.045 177.85 214.796 177.76 214.602 177.592C214.407 177.425 214.279 177.193 214.241 176.938C214.204 176.683 214.259 176.423 214.397 176.207C214.535 175.99 214.747 175.831 214.993 175.758C217.047 175.122 217.261 174.012 216.722 172.026C215.78 168.62 214.999 165.217 214.377 161.818C214.36 161.726 214.317 161.641 214.253 161.574C214.189 161.507 214.106 161.46 214.015 161.44C213.925 161.42 213.831 161.427 213.744 161.46C213.658 161.494 213.583 161.552 213.529 161.628C211.429 164.552 209.346 167.534 207.28 170.572C206.073 172.344 206.022 173.901 206.048 175.965C206.053 176.268 205.902 176.418 205.594 176.412C201.143 176.343 203.848 168.844 205.226 166.204C207.195 162.445 203.18 158.997 200.809 156.675" stroke="#666667" stroke-width="2"/>
<path d="M200.809 156.675C199.605 154.221 197.533 153.321 194.594 153.974" stroke="#67778D" stroke-width="2"/>
<path d="M194.594 153.974C193.379 153.539 192.774 152.805 192.78 151.773C192.78 151.708 192.793 151.643 192.818 151.583C192.843 151.524 192.881 151.47 192.927 151.426C192.974 151.381 193.029 151.347 193.089 151.325C193.149 151.304 193.213 151.295 193.276 151.3C197.959 151.584 198.352 146.123 194.312 145.985C193.445 145.956 192.609 146.011 191.804 146.148" stroke="#666667" stroke-width="2"/>
<path d="M191.804 146.148C190.874 145.799 190.631 144.99 191.076 143.723" stroke="#67778D" stroke-width="2"/>
<path d="M191.076 143.723C193.935 143.144 196.597 143.353 199.063 144.351C199.297 144.448 199.399 144.371 199.371 144.119C199.037 141.53 193.91 141.771 191.804 141.934C191.461 141.957 191.339 141.805 191.436 141.479C191.795 140.229 192.531 139.268 193.644 138.598C197.388 136.344 200.766 136.915 203.779 140.309" stroke="#666667" stroke-width="2"/>
<path d="M203.779 140.309C204.567 141.513 205.103 142.966 205.389 144.669C205.44 144.967 205.617 145.116 205.919 145.116C210.513 145.157 215.081 145.157 219.624 145.116C222.517 145.091 223.262 143.457 223.476 140.877" stroke="#67778D" stroke-width="2"/>
<path d="M223.476 140.877C223.522 138.142 224.115 135.765 225.256 133.747" stroke="#666667" stroke-width="2"/>
<path d="M225.256 133.747L226.866 130.694" stroke="#67778D" stroke-width="2"/>
<path d="M226.866 130.694L231.805 126.282" stroke="#666667" stroke-width="2"/>
<path d="M318.543 193.079L310.814 193.792" stroke="#8090A6" stroke-width="2"/>
<path d="M338.188 196.553L334.568 194.971" stroke="#8090A6" stroke-width="2"/>
<path d="M319.682 221.794C320.486 223.623 320.432 225.42 319.519 227.186" stroke="#011127" stroke-width="2"/>
<path d="M261.945 193.792L258.204 193.966" stroke="#8090A6" stroke-width="2"/>
<path d="M282.839 205.025L278.14 204.955" stroke="#808080" stroke-width="2"/>
<path d="M278.14 204.955L270.41 204.973" stroke="#8090A6" stroke-width="2"/>
<path d="M270.41 204.972L265.103 205.007" stroke="#808080" stroke-width="2"/>
<path d="M265.103 205.007L262.039 205.024" stroke="#8090A6" stroke-width="2"/>
<path d="M262.039 205.024L251.15 205.015C250.802 205.015 250.628 205.19 250.628 205.54L250.645 211.328C250.645 211.643 250.805 211.801 251.125 211.801L263.083 211.775" stroke="#808080" stroke-width="2"/>
<path d="M263.083 211.776L265.642 211.741" stroke="#8090A6" stroke-width="2"/>
<path d="M265.642 211.741L271.686 211.802" stroke="#808080" stroke-width="2"/>
<path d="M271.686 211.801L277.361 211.99C277.472 211.992 277.577 212.037 277.655 212.116C277.733 212.194 277.778 212.3 277.781 212.411L277.849 219.747C277.85 219.819 277.837 219.891 277.811 219.958C277.784 220.026 277.745 220.087 277.695 220.139C277.645 220.191 277.585 220.232 277.519 220.261C277.453 220.29 277.382 220.305 277.31 220.306L271.121 220.418" stroke="#8090A6" stroke-width="2"/>
<path d="M271.121 220.418L251.048 220.427C250.774 220.432 250.637 220.57 250.637 220.839V226.808C250.637 227.094 250.779 227.238 251.065 227.238L270.582 227.221" stroke="#808080" stroke-width="2"/>
<path d="M270.582 227.221H278.012" stroke="#8090A6" stroke-width="2"/>
<path d="M278.012 227.221L282.497 227.256" stroke="#808080" stroke-width="2"/>
<path d="M282.865 238.255L279.972 238.117" stroke="#8090A6" stroke-width="2"/>
<path d="M274.297 238.376L267.166 238.306" stroke="#8090A6" stroke-width="2"/>
<path d="M260.147 238.264L256.089 238.211" stroke="#8090A6" stroke-width="2"/>
<path d="M236.324 133.997C235.919 132.07 234.541 131.589 232.19 132.552C231.511 132.827 231.14 132.732 231.077 132.268" stroke="#011127" stroke-width="2"/>
<path d="M234.904 135.785C233.029 135.562 230.863 135.863 229.785 133.893" stroke="#011127" stroke-width="2"/>
<path d="M243.532 150.56C261.873 160.129 274.174 174.534 280.434 193.775" stroke="#011127" stroke-width="2"/>
<path d="M280.434 193.775L275.144 193.819" stroke="#808080" stroke-width="2"/>
<path d="M275.144 193.818C273.015 187.643 270.513 182.403 267.637 178.097C258.603 164.584 245.94 155.537 229.648 150.956" stroke="#011127" stroke-width="2"/>
<path d="M235.263 146.286C234.772 147.094 233.968 147.252 232.849 146.759C231.571 146.191 229.896 145.707 227.824 145.306" stroke="#011127" stroke-width="2"/>
<path d="M233.902 143.672C231.636 141.739 229.474 141.261 227.413 142.235" stroke="#011127" stroke-width="2"/>
<path d="M243.378 128.339L237.985 128.045" stroke="#011127" stroke-width="2"/>
<path d="M285.271 229.405L285.074 227.805C285.034 227.473 284.845 227.304 284.509 227.298L282.497 227.255" stroke="#8090A6" stroke-width="2"/>
<path d="M282.497 227.255C283.69 219.67 283.804 212.259 282.839 205.024" stroke="#011127" stroke-width="2"/>
<path d="M282.84 205.024L282.72 194.601C282.714 194.274 282.551 194.085 282.232 194.033L280.434 193.775" stroke="#8090A6" stroke-width="2"/>
<path d="M267.56 193.878L261.945 193.792" stroke="#808080" stroke-width="2"/>
<path d="M261.945 193.792C258.503 185.663 253.33 178.656 246.425 172.774C245.238 171.759 244.051 171.14 242.864 170.916" stroke="#011127" stroke-width="2"/>
<path d="M275.144 193.818L267.56 193.879" stroke="#8090A6" stroke-width="2"/>
<path d="M267.56 193.878C260.82 177.47 249.19 165.969 232.669 159.375" stroke="#011127" stroke-width="2"/>
<path d="M270.41 204.972L271.686 211.801" stroke="#011127" stroke-width="2"/>
<path d="M278.14 204.955C278.405 207.896 278.893 210.064 278.354 213.151C277.977 215.272 277.92 217.402 278.183 219.541C278.517 222.327 278.072 224.546 278.012 227.221" stroke="#011127" stroke-width="2"/>
<path d="M270.582 227.221L271.121 220.418" stroke="#011127" stroke-width="2"/>
<path d="M262.039 205.024C261.788 207.415 262.136 209.665 263.083 211.775" stroke="#011127" stroke-width="2"/>
<path d="M265.103 205.007C266.182 207.598 266.361 209.843 265.642 211.741" stroke="#011127" stroke-width="2"/>
<path d="M277.036 271.244C285.116 261.99 290.492 251.533 294.361 239.321C294.4 239.199 294.404 239.068 294.374 238.944C294.344 238.82 294.28 238.706 294.19 238.616C293.511 237.945 292.715 237.569 291.802 237.489C291.402 237.455 291.14 237.627 291.014 238.005C281.025 268.535 255.935 291.703 223.484 296.055C223.181 296.098 222.905 296.253 222.71 296.49C222.515 296.727 222.416 297.029 222.432 297.336L222.543 299.254C222.547 299.345 222.57 299.434 222.61 299.516C222.651 299.598 222.708 299.671 222.779 299.73C222.85 299.789 222.932 299.832 223.021 299.859C223.11 299.885 223.204 299.893 223.296 299.882C244.896 297.09 262.809 287.544 277.036 271.244Z" stroke="#011127" stroke-width="2"/>
<path d="M262.638 118.714C230.581 101.824 192.454 102.486 161.253 119.523C139.305 131.511 122.545 150.466 112.983 173.737C112.944 173.833 112.924 173.937 112.925 174.041C112.926 174.145 112.948 174.249 112.989 174.345C113.03 174.441 113.091 174.528 113.166 174.601C113.242 174.674 113.331 174.731 113.429 174.769L118.291 176.627C118.607 176.747 118.957 176.74 119.268 176.607C119.579 176.474 119.827 176.225 119.96 175.913C132.021 147.894 154.705 126.712 183.86 118.147C209.398 110.648 234.461 112.918 259.051 124.958C259.542 125.193 259.922 125.075 260.19 124.605L262.938 119.764C262.988 119.675 263.021 119.578 263.034 119.477C263.046 119.375 263.038 119.273 263.01 119.175C262.982 119.077 262.935 118.986 262.871 118.906C262.807 118.827 262.728 118.762 262.638 118.714Z" stroke="#011127" stroke-width="2"/>
<path d="M195.458 148.567C195.456 148.447 195.431 148.327 195.384 148.216C195.336 148.105 195.267 148.005 195.181 147.921C195.095 147.836 194.993 147.77 194.881 147.725C194.769 147.681 194.65 147.659 194.53 147.66L191.808 147.698C191.565 147.702 191.333 147.802 191.164 147.977C190.995 148.152 190.901 148.387 190.905 148.631L190.906 148.717C190.908 148.838 190.933 148.957 190.98 149.068C191.028 149.179 191.097 149.28 191.183 149.364C191.269 149.448 191.371 149.515 191.483 149.559C191.595 149.604 191.714 149.626 191.834 149.625L194.556 149.586C194.799 149.583 195.031 149.483 195.2 149.308C195.369 149.133 195.463 148.898 195.459 148.653L195.458 148.567Z" stroke="#666667" stroke-width="2"/>
<path d="M197.967 163.985C196.324 163.761 194.532 164.068 192.591 164.905C183.461 168.844 175.928 174.52 169.993 181.933C166.649 186.113 164.8 190.054 164.446 193.758" stroke="#011127" stroke-width="2"/>
<path d="M164.446 193.758L161.852 193.99C161.527 194.019 161.362 194.199 161.356 194.532L161.228 204.835" stroke="#808080" stroke-width="2"/>
<path d="M161.228 204.835C158.933 206.925 159.259 208.61 159.13 211.397C158.976 214.567 159.036 217.732 159.31 220.891C159.498 223.127 160.671 225.002 161.27 227.203" stroke="#011127" stroke-width="2"/>
<path d="M161.27 227.203L161.339 237.773C161.339 238.071 161.49 238.22 161.793 238.22H179.358C179.66 238.22 179.811 238.068 179.811 237.764L179.794 225.948C179.794 225.615 179.96 225.452 180.291 225.458C189.906 225.67 196.863 225.564 201.16 225.139C211.441 224.125 222.86 220.831 221.31 208.034C219.769 195.332 205.14 194.154 195.356 194.042C186.134 193.939 176.832 193.904 167.451 193.939" stroke="#808080" stroke-width="2"/>
<path d="M167.451 193.939C170.686 188.561 173.548 184.444 176.036 181.589C181.435 175.397 188.197 170.678 196.324 167.433C196.382 167.409 196.445 167.396 196.509 167.397C196.573 167.397 196.636 167.411 196.695 167.436C196.754 167.462 196.808 167.499 196.853 167.546C196.898 167.593 196.933 167.648 196.957 167.709C197.037 167.898 197.031 168.173 196.94 168.534" stroke="#011127" stroke-width="2"/>
<path d="M196.94 168.534L195.04 174.417C194.993 174.556 194.91 174.681 194.798 174.776C194.686 174.872 194.551 174.935 194.406 174.958C192.36 175.268 190.52 174.606 189.929 177.177C189.915 177.235 189.913 177.296 189.923 177.355C189.933 177.414 189.954 177.47 189.986 177.521C190.018 177.571 190.06 177.615 190.109 177.649C190.158 177.683 190.213 177.707 190.272 177.719C193.89 178.51 196.663 177.386 198.592 174.348C199.853 172.364 201.377 169.681 203.163 166.298C204.704 163.4 203.214 161.689 200.963 160.072C200.779 159.941 200.565 159.856 200.342 159.826C200.118 159.795 199.89 159.819 199.677 159.896C199.465 159.973 199.274 160.1 199.121 160.267C198.967 160.434 198.857 160.635 198.797 160.854L197.967 163.985" stroke="#666667" stroke-width="2"/>
<path d="M196.94 168.534L197.967 163.985" stroke="#67778D" stroke-width="2"/>
<path d="M167.451 193.94L164.446 193.758" stroke="#8090A6" stroke-width="2"/>
<path d="M161.269 227.203L161.228 204.835" stroke="#8090A6" stroke-width="2"/>
<path d="M205.543 264.562C193.952 263.031 184.051 257.702 175.839 248.574C175.029 247.674 174.407 247.184 173.973 247.104C173.163 246.955 172.344 247.445 171.517 248.574C171.429 248.692 171.383 248.837 171.388 248.986C171.393 249.134 171.447 249.277 171.542 249.391C187.207 268.475 214.051 274.177 236.282 263.418C240.973 261.153 245.88 257.604 251.005 252.771C251.233 252.559 251.293 252.304 251.185 252.006C250.791 250.916 250.038 250.228 248.925 249.942C248.8 249.908 248.667 249.907 248.541 249.94C248.415 249.973 248.3 250.039 248.206 250.131C236.153 261.907 221.932 266.718 205.543 264.562Z" stroke="#011127" stroke-width="2"/>
<path d="M111.417 214.828L108.798 219.317C108.615 219.633 108.698 219.833 109.046 219.919C109.793 220.108 110.615 220.111 111.511 219.928" stroke="#8090A6" stroke-width="2"/>
<path d="M111.511 219.929L116.322 219.876" stroke="#808080" stroke-width="2"/>
<path d="M116.322 219.876L122.793 219.893C123.193 219.899 123.293 219.727 123.093 219.377L116.947 208.584" stroke="#8090A6" stroke-width="2"/>
<path d="M116.947 208.584L116.296 207.363C116.096 206.991 115.894 206.988 115.688 207.355L111.417 214.828" stroke="#808080" stroke-width="2"/>
<path d="M116.947 208.584L116.048 209.161C115.808 209.315 115.657 209.533 115.594 209.814C114.887 213.157 115.129 216.511 116.322 219.876" stroke="#011127" stroke-width="2"/>
<path d="M111.511 219.928C112.584 217.612 112.553 215.912 111.417 214.828" stroke="#011127" stroke-width="2"/>
<path d="M179.811 205.282L179.794 214.174C179.794 214.245 179.822 214.313 179.872 214.363C179.922 214.413 179.989 214.441 180.06 214.441L194.937 214.467C195.982 214.469 197.018 214.371 197.984 214.178C198.95 213.985 199.828 213.702 200.567 213.344C201.306 212.986 201.893 212.561 202.293 212.092C202.693 211.624 202.898 211.122 202.898 210.614V208.911C202.897 207.888 202.059 206.906 200.57 206.18C199.081 205.455 197.061 205.045 194.954 205.041L180.077 205.015C180.006 205.015 179.939 205.043 179.889 205.093C179.839 205.143 179.811 205.211 179.811 205.282Z" stroke="#808080" stroke-width="2"/>
<path d="M92.4596 183.479C92.3277 183.954 92.0239 184.112 91.5479 183.954L89.6042 183.317C89.4585 183.269 89.338 183.166 89.2688 183.029C89.1996 182.893 89.1872 182.734 89.2344 182.587C89.63 181.373 89.6902 180.126 90.0256 179.005C98.8327 149.517 117.359 124.375 143.522 107.84C172.587 89.466 204.727 83.6742 239.944 90.4648C240.127 90.4992 240.301 90.5705 240.454 90.6743C240.608 90.778 240.738 90.912 240.837 91.068C240.936 91.224 241.002 91.3985 241.031 91.581C241.059 91.7634 241.049 91.9497 241.002 92.1285L240.761 93.0197C240.665 93.3842 240.433 93.6991 240.112 93.9008C239.791 94.1025 239.405 94.1759 239.033 94.1062C205.473 87.8419 174.742 93.2376 146.842 110.293C119.732 126.862 100.983 152.955 92.4596 183.479Z" fill="#01214D"/>
<path d="M329.304 193.89L321.408 193.145C316.468 168.815 304.984 148.388 286.956 131.864C268.9 115.305 248.012 105.828 224.293 103.434C167.016 97.644 113.853 136.883 104.062 194.972C103.891 195.975 103.462 197.19 102.773 198.615C101.999 200.219 101.675 201.754 101.8 203.219L95.3808 213.57C95.2556 212.324 95.1275 211.141 94.9966 210.022C94.8601 208.85 94.8686 207.668 95.0222 206.473C95.5942 202.155 95.7051 197.421 96.5075 193.44C103.109 160.87 119.535 135.23 145.786 116.519C188.27 86.2462 246.034 88.9117 286.342 121.444C304.933 136.456 318.002 155.73 325.548 179.264C326.288 181.577 327.54 186.453 329.304 193.89Z" fill="#01214D"/>
<path d="M338.794 197.361L335.113 195.765C327.518 155.276 305.781 125.06 269.902 105.116C269.624 104.96 269.496 104.723 269.519 104.405C269.595 103.467 270.068 102.721 270.938 102.166C271.187 102.004 271.451 101.975 271.73 102.079C272.751 102.472 273.546 102.828 274.114 103.146C297.589 116.355 315.256 135.026 327.115 159.158C331.228 167.536 334.149 174.618 335.878 180.403C337.079 184.43 338.051 190.083 338.794 197.361Z" fill="#01214D"/>
<path d="M320.763 192.175L317.653 192.26C313.228 171.537 303.655 153.568 288.932 138.352C288.824 138.24 288.675 138.176 288.519 138.174C288.362 138.173 288.211 138.234 288.097 138.343L283.786 142.567C283.676 142.674 283.612 142.821 283.608 142.974C283.605 143.128 283.663 143.277 283.769 143.388C296.114 156.258 306.594 173.849 309.815 191.602C309.837 191.733 309.911 191.821 310.036 191.867C310.144 191.907 310.204 191.961 310.215 192.029C310.255 192.326 310.17 192.639 309.959 192.97C303.632 193.882 298.949 196.365 295.91 200.418C291.474 174.707 278.117 154.87 255.841 140.909C254.971 140.361 254.333 140.481 253.412 140.686C254.094 137.311 253.807 134.771 252.552 133.067C271.642 143.306 285.68 158.316 294.666 178.099C294.78 178.355 294.97 178.432 295.237 178.33L300.519 176.2C300.644 176.15 300.758 176.075 300.853 175.979C300.949 175.884 301.024 175.77 301.075 175.645C301.126 175.52 301.151 175.386 301.15 175.25C301.148 175.115 301.119 174.982 301.065 174.858C295.331 161.877 287.117 150.452 276.416 141.071C254.753 122.081 229.383 114.154 200.307 117.289C194.582 117.911 189.044 119.094 183.693 120.838C151.59 131.297 128.424 155.472 118.618 187.984C118.402 188.691 118.07 190.456 117.621 193.278L107.925 193.226C107.607 193.221 107.363 193.349 107.193 193.611L101.569 202.129C101.444 200.681 101.768 199.164 102.541 197.579C103.228 196.171 103.657 194.971 103.827 193.979C113.6 136.581 166.662 97.809 223.831 103.53C247.505 105.896 268.354 115.26 286.376 131.622C304.37 147.949 315.833 168.134 320.763 192.175ZM262.009 118.315C230.102 101.52 192.154 102.179 161.098 119.119C139.253 131.04 122.571 149.888 113.054 173.028C113.015 173.124 112.995 173.226 112.996 173.33C112.997 173.434 113.019 173.537 113.06 173.632C113.101 173.728 113.161 173.814 113.236 173.887C113.311 173.959 113.4 174.016 113.497 174.054L118.337 175.901C118.651 176.021 119 176.014 119.31 175.882C119.619 175.749 119.866 175.502 119.998 175.191C132.003 147.331 154.581 126.268 183.6 117.751C209.018 110.294 233.964 112.552 258.439 124.524C258.928 124.758 259.305 124.641 259.572 124.173L262.307 119.359C262.358 119.271 262.39 119.174 262.403 119.073C262.415 118.973 262.407 118.871 262.379 118.773C262.352 118.676 262.304 118.585 262.241 118.506C262.177 118.428 262.098 118.363 262.009 118.315Z" fill="black"/>
<path d="M160.899 119.186C191.867 101.862 229.708 101.189 261.526 118.364C261.615 118.412 261.694 118.478 261.757 118.559C261.821 118.639 261.868 118.732 261.896 118.832C261.923 118.932 261.931 119.036 261.919 119.139C261.907 119.242 261.874 119.341 261.824 119.431L259.096 124.354C258.83 124.832 258.453 124.952 257.966 124.712C233.56 112.47 208.683 110.161 183.337 117.786C154.399 126.496 131.885 148.035 119.914 176.526C119.782 176.844 119.536 177.097 119.227 177.232C118.919 177.368 118.571 177.375 118.257 177.252L113.431 175.363C113.334 175.324 113.246 175.266 113.171 175.192C113.096 175.118 113.036 175.03 112.995 174.932C112.954 174.834 112.932 174.729 112.931 174.623C112.93 174.517 112.95 174.412 112.99 174.314C122.48 150.65 139.115 131.376 160.899 119.186Z" fill="#01214D"/>
<path d="M253.534 134.514C249.452 125.31 242.425 122.924 232.455 127.357C219 124.708 206.276 124.785 194.281 127.585C166.497 134.062 146.126 150.331 133.167 176.392C131.087 180.576 129.045 186.612 127.043 194.501L119.574 194.154C120.02 191.359 120.35 189.611 120.564 188.911C130.3 156.706 153.299 132.761 185.171 122.402C190.483 120.674 195.982 119.502 201.666 118.886C230.532 115.781 255.72 123.633 277.227 142.442C287.851 151.734 296.006 163.051 301.698 175.909C301.752 176.031 301.781 176.164 301.783 176.298C301.784 176.431 301.759 176.564 301.709 176.688C301.658 176.813 301.583 176.925 301.489 177.02C301.394 177.114 301.281 177.189 301.157 177.239L295.912 179.348C295.647 179.449 295.459 179.373 295.346 179.119C286.425 159.524 272.488 144.656 253.534 134.514Z" fill="#01214D"/>
<path d="M253.123 134.294C254.367 135.996 254.652 138.532 253.976 141.902L252.862 144.617C251.674 146.661 250.137 148.283 248.252 149.484L243.65 151.183C240.442 150.853 237.723 149.438 235.494 146.939L234.152 144.344C233.364 141.458 233.693 138.848 235.14 136.514L236.541 134.738C240.949 131.818 244.528 132.489 247.281 136.753C249.695 140.493 246.783 145.616 242.527 145.274C235.165 144.694 240.307 133.064 244.072 140.587C244.102 140.643 244.148 140.688 244.205 140.714C244.262 140.741 244.326 140.748 244.388 140.735C244.449 140.721 244.504 140.688 244.545 140.639C244.585 140.591 244.609 140.531 244.613 140.467C244.697 138.68 244.044 137.482 242.654 136.873C237.234 134.507 234.819 144.241 240.56 146.547C245.212 148.408 249.94 145.138 250.548 140.288C251.179 135.279 248.829 131.556 243.498 129.12L238.179 128.829C235.517 129.467 233.246 130.864 231.366 133.022L230.091 134.635C228.385 136.964 227.606 139.724 227.752 142.918C227.685 144.216 227.82 145.232 228.157 145.966C228.478 148.841 229.078 150.711 229.956 151.576L232.936 159.935C233.64 162.075 234.478 164.193 235.452 166.288C236.871 169.327 238.948 168.841 241.734 168.798C242.032 168.792 242.263 168.917 242.426 169.174C242.843 169.834 243.031 170.574 242.992 171.394L242.89 176.508C242.845 176.713 242.75 176.853 242.603 176.927C242.48 176.983 242.33 176.972 242.156 176.892C240.692 176.238 239.885 175.054 239.733 173.34C239.728 173.271 239.709 173.204 239.677 173.143C239.645 173.082 239.602 173.027 239.549 172.983C239.496 172.94 239.435 172.907 239.369 172.888C239.304 172.868 239.235 172.862 239.167 172.871C234.582 173.426 232.142 170.676 229.686 167.329L216.236 152.191C216.105 152.043 215.946 151.923 215.768 151.839C215.59 151.755 215.397 151.707 215.201 151.7C215.005 151.693 214.809 151.726 214.626 151.797C214.442 151.868 214.275 151.976 214.134 152.114L213.5 152.729C213.417 152.81 213.355 152.91 213.32 153.022C213.285 153.134 213.277 153.253 213.298 153.369L214.514 160.2C214.531 160.311 214.584 160.413 214.663 160.492C214.743 160.571 214.845 160.622 214.955 160.638C215.065 160.654 215.177 160.635 215.276 160.582C215.374 160.529 215.453 160.446 215.501 160.345C216.075 159.195 216.925 158.364 218.051 157.852C218.218 157.774 218.406 157.754 218.586 157.796C218.766 157.837 218.928 157.938 219.047 158.082L222.965 162.83C223.207 163.126 223.277 163.459 223.176 163.829C222.996 164.5 222.562 165.118 221.876 165.681C220.643 166.171 220.097 166.868 220.238 167.773C220.677 170.619 220.871 173.54 220.82 176.534C220.814 177.003 220.624 177.45 220.292 177.779C219.96 178.108 219.513 178.293 219.047 178.293L215.805 178.276C215.553 178.278 215.307 178.188 215.115 178.022C214.923 177.856 214.797 177.625 214.76 177.372C214.723 177.119 214.777 176.861 214.914 176.646C215.05 176.431 215.259 176.273 215.501 176.201C217.528 175.569 217.739 174.467 217.207 172.495C216.278 169.114 215.507 165.735 214.893 162.36C214.877 162.269 214.835 162.185 214.771 162.118C214.708 162.051 214.626 162.005 214.537 161.985C214.448 161.965 214.355 161.972 214.269 162.005C214.184 162.039 214.11 162.097 214.058 162.172C211.986 165.075 209.932 168.035 207.894 171.052C206.704 172.811 206.653 174.356 206.678 176.406C206.684 176.707 206.535 176.855 206.231 176.85C201.841 176.781 204.509 169.336 205.868 166.715C207.81 162.983 203.85 159.559 201.511 157.254C200.324 154.818 198.28 153.924 195.382 154.573C194.183 154.14 193.586 153.412 193.592 152.387C193.592 152.322 193.605 152.258 193.63 152.199C193.655 152.14 193.691 152.086 193.737 152.042C193.783 151.998 193.837 151.964 193.897 151.943C193.956 151.921 194.019 151.913 194.081 151.917C198.7 152.199 199.088 146.777 195.103 146.641C194.247 146.612 193.423 146.666 192.629 146.803C191.712 146.456 191.473 145.653 191.912 144.395C194.732 143.82 197.357 144.028 199.789 145.018C200.02 145.115 200.121 145.038 200.093 144.788C199.764 142.218 194.706 142.457 192.629 142.619C192.292 142.642 192.171 142.491 192.266 142.166C192.621 140.925 193.347 139.972 194.444 139.306C198.137 137.069 201.469 137.635 204.441 141.005C205.218 142.201 205.747 143.644 206.028 145.334C206.079 145.63 206.253 145.778 206.552 145.778C211.083 145.818 215.589 145.818 220.069 145.778C222.923 145.753 223.657 144.13 223.868 141.569C223.913 138.853 224.499 136.494 225.624 134.49L227.212 131.459L232.083 127.079C242.035 122.61 249.048 125.015 253.123 134.294Z" fill="#CCCCCD"/>
<path d="M232.506 126.835L227.453 131.19C217.767 129.549 208.32 129.425 199.113 130.817C198.87 130.853 198.636 130.939 198.428 131.068C198.22 131.196 198.042 131.366 197.904 131.565C197.767 131.765 197.673 131.99 197.63 132.226C197.586 132.463 197.593 132.705 197.651 132.939C198.071 134.62 199.113 134.764 200.786 134.527C209.065 133.344 217.405 133.236 225.806 134.204C224.638 136.196 224.031 138.542 223.985 141.242C217.422 139.838 210.705 139.652 203.834 140.682C200.751 137.331 197.295 136.768 193.465 138.992C192.326 139.654 191.573 140.602 191.205 141.836C191.106 142.159 191.232 142.309 191.582 142.286C193.736 142.125 198.982 141.887 199.324 144.443C199.353 144.692 199.248 144.768 199.008 144.672C196.486 143.687 193.763 143.48 190.838 144.052C188.24 144.143 185.931 144.618 183.911 145.478C159.022 156.062 143.679 174.309 137.881 200.218C137.047 203.948 136.647 208.716 136.682 214.523L129.387 203.614L130.446 202.91C130.68 202.757 130.82 202.545 130.867 202.273C135.088 177.868 147.874 159.002 169.224 145.673C172.091 143.879 176.975 141.556 183.875 138.704C184.028 138.64 184.153 138.527 184.228 138.384C184.304 138.241 184.324 138.078 184.287 137.923L183.884 136.174C183.84 135.99 183.756 135.817 183.638 135.667C183.52 135.517 183.371 135.394 183.2 135.305C183.029 135.215 182.841 135.163 182.648 135.15C182.455 135.137 182.261 135.165 182.08 135.231C153.373 145.792 132.136 170.777 127.11 200.168L123.37 194.132C125.443 186.225 127.556 180.175 129.711 175.981C143.127 149.862 164.218 133.556 192.983 127.065C205.401 124.257 218.575 124.181 232.506 126.835Z" fill="black"/>
<path d="M238.263 126.807L243.499 127.126C248.746 129.799 251.059 133.884 250.438 139.38C249.84 144.702 245.186 148.29 240.607 146.248C234.956 143.718 237.332 133.038 242.668 135.633C244.036 136.301 244.679 137.616 244.596 139.577C244.592 139.647 244.569 139.713 244.529 139.766C244.489 139.819 244.434 139.856 244.374 139.87C244.314 139.885 244.251 139.878 244.195 139.848C244.139 139.819 244.093 139.77 244.064 139.708C240.357 131.454 235.296 144.215 242.543 144.852C246.732 145.227 249.599 139.605 247.222 135.502C244.513 130.823 240.989 130.086 236.651 133.29C236.258 131.192 234.92 130.667 232.637 131.716C231.978 132.016 231.617 131.913 231.557 131.407C233.407 129.04 235.643 127.507 238.263 126.807Z" fill="black"/>
<path d="M227.761 131.422L226.138 133.234C217.858 132.652 209.639 132.716 201.48 133.427C199.831 133.57 198.804 133.484 198.39 132.473C198.333 132.332 198.326 132.187 198.369 132.044C198.412 131.902 198.504 131.767 198.64 131.647C198.775 131.527 198.951 131.425 199.156 131.348C199.361 131.27 199.591 131.219 199.831 131.197C208.905 130.36 218.215 130.435 227.761 131.422Z" fill="#01214D"/>
<path d="M236.302 133.552L234.858 135.388C232.954 135.158 230.754 135.467 229.659 133.446L230.972 131.777C231.035 132.254 231.412 132.351 232.102 132.069C234.49 131.08 235.89 131.574 236.302 133.552Z" fill="#01214D"/>
<path d="M230.521 133.481C231.339 135.401 232.982 135.108 234.404 135.326C233.291 137.618 233.038 140.181 233.644 143.016C231.926 141.132 230.285 140.665 228.723 141.615C228.61 138.479 229.21 135.768 230.521 133.481Z" fill="black"/>
<path d="M131.293 204.035L129.064 200.484C133.985 170.197 154.775 144.451 182.877 133.568C183.054 133.5 183.244 133.471 183.433 133.484C183.622 133.497 183.806 133.551 183.974 133.643C184.141 133.735 184.287 133.863 184.403 134.017C184.518 134.172 184.6 134.35 184.643 134.539L185.038 136.341C185.074 136.501 185.054 136.669 184.98 136.817C184.907 136.964 184.784 137.08 184.635 137.146C177.879 140.086 173.098 142.48 170.292 144.328C149.391 158.063 136.874 177.505 132.742 202.653C132.696 202.933 132.559 203.152 132.331 203.309L131.293 204.035Z" fill="#01214D"/>
<path d="M318.865 193.785L310.715 194.501C310.938 194.167 311.028 193.851 310.986 193.552C310.974 193.483 310.911 193.428 310.797 193.388C310.664 193.342 310.586 193.253 310.562 193.12C307.15 175.204 296.05 157.452 282.973 144.464C282.861 144.351 282.799 144.201 282.803 144.046C282.806 143.891 282.874 143.743 282.991 143.635L287.557 139.372C287.678 139.261 287.838 139.2 288.004 139.202C288.17 139.203 288.327 139.268 288.442 139.381C304.037 154.736 314.178 172.871 318.865 193.785Z" fill="#01214D"/>
<path d="M222.067 141.435C221.881 144.118 221.235 145.818 218.726 145.845C214.786 145.886 210.824 145.886 206.84 145.845C206.578 145.845 206.425 145.689 206.38 145.379C206.133 143.608 205.667 142.097 204.984 140.844C210.81 139.759 216.504 139.956 222.067 141.435Z" fill="#01214D"/>
<path d="M296.089 200.5L294.012 204.035L293.445 203.696C293.2 203.555 293.055 203.343 293.011 203.06C289.352 179.717 278.186 161.24 259.514 147.63C257.746 146.341 255.369 145.247 253.384 143.976L254.485 141.28C255.385 141.076 256.011 140.957 256.862 141.5C278.67 155.342 291.746 175.009 296.089 200.5Z" fill="#01214D"/>
<path d="M234.203 144.403L235.353 146.287C234.938 146.869 234.259 146.983 233.314 146.627C232.235 146.219 230.82 145.87 229.071 145.58C228.782 145.048 228.666 144.31 228.724 143.369C230.464 142.667 232.29 143.011 234.203 144.403Z" fill="#01214D"/>
<path d="M191.914 143.016C191.465 144.285 191.71 145.095 192.647 145.445C191.532 146.158 188.745 147.516 184.287 149.521C171.177 155.426 160.645 164.858 152.69 177.817C145.206 190.012 141.755 204.154 142.336 220.244L138.556 214.54C138.522 208.646 138.916 203.807 139.738 200.021C145.45 173.724 160.567 155.205 185.089 144.463C187.079 143.59 189.354 143.107 191.914 143.016Z" fill="#01214D"/>
<path d="M236.09 146.859C238.332 149.381 241.066 150.809 244.293 151.143C262.49 160.734 274.694 175.172 280.905 194.458L275.656 194.501C273.544 188.312 271.062 183.06 268.208 178.744C259.246 165.199 246.683 156.131 230.518 151.539C229.635 150.666 229.032 148.778 228.71 145.876C230.765 146.278 232.426 146.764 233.695 147.333C234.804 147.827 235.603 147.669 236.09 146.859Z" fill="black"/>
<path d="M194.687 153.923C194.232 154.8 194.309 155.801 194.92 156.926C196.165 159.21 199.234 157.566 200.963 156.64C203.357 158.977 207.411 162.447 205.423 166.228C204.031 168.885 201.3 176.431 205.795 176.501C206.106 176.506 206.259 176.356 206.253 176.051C206.227 173.974 206.279 172.407 207.498 170.625C209.584 167.567 211.687 164.567 213.808 161.625C213.862 161.548 213.938 161.489 214.025 161.456C214.112 161.422 214.208 161.415 214.299 161.435C214.39 161.455 214.474 161.502 214.539 161.57C214.604 161.638 214.647 161.723 214.664 161.815C215.292 165.236 216.081 168.66 217.032 172.087C217.577 174.086 217.361 175.203 215.286 175.843C215.038 175.916 214.824 176.076 214.685 176.294C214.545 176.512 214.489 176.774 214.527 177.03C214.565 177.286 214.694 177.52 214.891 177.688C215.088 177.857 215.339 177.948 215.597 177.946L218.917 177.963C219.394 177.963 219.852 177.776 220.191 177.443C220.531 177.109 220.725 176.656 220.732 176.18C220.784 173.146 220.585 170.186 220.136 167.302C219.991 166.384 220.55 165.678 221.813 165.181C224.308 166.428 226.973 166.984 229.808 166.852C232.324 170.244 234.822 173.03 239.516 172.468C239.586 172.46 239.656 172.465 239.723 172.485C239.79 172.505 239.853 172.538 239.907 172.582C239.961 172.627 240.006 172.682 240.038 172.744C240.07 172.806 240.09 172.874 240.095 172.944C240.251 174.68 241.078 175.88 242.576 176.544C242.755 176.625 242.907 176.636 243.034 176.578C243.184 176.503 243.282 176.362 243.328 176.154C243.368 175.878 243.472 175.704 243.639 175.635C243.766 175.589 243.922 175.638 244.106 175.782C250.382 180.767 255.321 186.894 258.922 194.163L233.05 194.154C232.768 194.154 232.627 194.296 232.627 194.578V238.246C232.627 238.528 232.768 238.67 233.05 238.67L256.787 238.687C256.879 240.752 257.761 241.886 259.432 242.088C259.726 242.123 259.983 242.039 260.202 241.837C261.032 241.076 261.259 240.043 260.885 238.739L267.973 238.782C266.97 240.005 266.152 241.234 265.518 242.469C260.738 251.832 253.917 259.275 245.04 265.021C244.93 265.091 244.836 265.182 244.762 265.289C244.688 265.396 244.636 265.516 244.609 265.643C244.582 265.77 244.58 265.902 244.603 266.029C244.627 266.157 244.675 266.279 244.746 266.388L247.935 271.373C248.009 271.487 248.123 271.57 248.255 271.602C248.387 271.634 248.527 271.614 248.644 271.546C250.316 270.594 251.909 269.529 253.425 268.352C263.44 260.599 270.69 250.765 275.174 238.852L280.905 238.592C272.082 261.248 256.372 276.311 233.776 283.782C222.625 287.477 210.117 287.936 198.395 285.357C174.307 280.038 157.076 265.722 146.703 242.408C146.245 241.387 146.054 239.899 145.812 238.782L150.93 238.912C157.955 257.039 170.44 269.777 188.385 277.127C196.194 280.329 204.069 281.922 212.01 281.904C212.329 281.904 212.634 281.779 212.86 281.555C213.085 281.331 213.212 281.027 213.212 280.71L213.237 275.198C213.237 275.035 213.174 274.878 213.059 274.76C212.945 274.642 212.789 274.573 212.624 274.566C197.191 274.076 184.066 268.932 173.249 259.136C155.209 242.789 148.855 216.204 158.035 193.479C163.164 180.799 171.797 170.876 183.933 163.71C184.206 163.549 184.421 163.304 184.545 163.012C184.669 162.719 184.697 162.394 184.625 162.083C184.181 160.156 183.242 158.509 181.807 157.142C181.599 156.946 181.355 156.871 181.072 156.917C180.104 157.078 179.136 157.482 178.168 158.128C155.658 173.261 145.152 194.408 146.651 221.57C146.72 222.793 147.069 224.509 147.697 226.719C148.233 228.582 148.538 230.509 148.613 232.5L141.464 221.172C140.882 205.012 144.34 190.808 151.837 178.56C159.807 165.545 170.359 156.072 183.493 150.141C187.959 148.128 190.751 146.763 191.869 146.048C192.681 145.909 193.526 145.854 194.402 145.883C198.482 146.022 198.084 151.517 193.356 151.231C193.292 151.227 193.227 151.235 193.167 151.257C193.106 151.279 193.05 151.313 193.003 151.358C192.956 151.403 192.919 151.457 192.893 151.517C192.867 151.577 192.854 151.642 192.854 151.707C192.849 152.746 193.459 153.484 194.687 153.923ZM195.559 148.482C195.557 148.36 195.532 148.24 195.484 148.129C195.436 148.017 195.366 147.916 195.279 147.831C195.192 147.746 195.089 147.679 194.976 147.635C194.863 147.59 194.743 147.567 194.621 147.569L191.873 147.607C191.627 147.611 191.394 147.712 191.223 147.888C191.052 148.064 190.957 148.301 190.961 148.546L190.962 148.633C190.964 148.754 190.989 148.874 191.037 148.986C191.085 149.098 191.155 149.199 191.242 149.284C191.329 149.368 191.432 149.435 191.545 149.48C191.658 149.525 191.778 149.547 191.9 149.546L194.648 149.507C194.894 149.504 195.128 149.403 195.299 149.227C195.47 149.051 195.564 148.814 195.56 148.568L195.559 148.482ZM198.093 163.996C196.433 163.771 194.624 164.079 192.664 164.922C183.444 168.885 175.837 174.597 169.843 182.056C166.466 186.262 164.599 190.228 164.242 193.955L161.623 194.189C161.294 194.218 161.127 194.4 161.121 194.734L160.992 205.102C158.675 207.204 159.003 208.901 158.874 211.704C158.718 214.895 158.779 218.079 159.055 221.258C159.245 223.508 160.43 225.395 161.035 227.61L161.104 238.246C161.104 238.546 161.257 238.696 161.562 238.696H179.3C179.606 238.696 179.758 238.543 179.758 238.237L179.741 226.347C179.741 226.012 179.908 225.848 180.242 225.853C189.953 226.067 196.978 225.96 201.317 225.533C211.699 224.512 223.23 221.198 221.666 208.321C220.11 195.539 205.337 194.353 195.456 194.241C186.143 194.137 176.75 194.102 167.276 194.137C170.543 188.726 173.434 184.583 175.946 181.71C181.398 175.479 188.227 170.731 196.433 167.466C196.492 167.441 196.556 167.429 196.621 167.429C196.685 167.43 196.749 167.443 196.809 167.469C196.868 167.495 196.922 167.532 196.967 167.579C197.013 167.626 197.049 167.682 197.073 167.743C197.153 167.933 197.148 168.21 197.055 168.574L195.136 174.493C195.09 174.633 195.005 174.759 194.892 174.855C194.78 174.951 194.643 175.014 194.497 175.038C192.431 175.35 190.572 174.683 189.976 177.271C189.962 177.329 189.96 177.39 189.97 177.45C189.98 177.509 190.001 177.566 190.033 177.617C190.066 177.667 190.108 177.711 190.157 177.746C190.207 177.78 190.263 177.804 190.322 177.816C193.975 178.612 196.776 177.481 198.724 174.424C199.997 172.428 201.536 169.728 203.34 166.324C204.896 163.407 203.392 161.685 201.118 160.058C200.932 159.926 200.717 159.841 200.491 159.811C200.265 159.78 200.034 159.804 199.82 159.881C199.605 159.959 199.412 160.087 199.257 160.255C199.103 160.423 198.991 160.625 198.931 160.846L198.093 163.996ZM205.743 265.202C194.039 263.662 184.04 258.3 175.747 249.115C174.929 248.209 174.301 247.716 173.863 247.635C173.045 247.485 172.218 247.978 171.382 249.115C171.293 249.234 171.247 249.379 171.252 249.529C171.257 249.678 171.312 249.822 171.408 249.937C187.227 269.14 214.335 274.877 236.784 264.052C241.521 261.773 246.478 258.202 251.653 253.338C251.883 253.125 251.944 252.868 251.834 252.568C251.436 251.472 250.676 250.779 249.552 250.491C249.426 250.456 249.292 250.456 249.165 250.489C249.037 250.523 248.921 250.589 248.826 250.681C236.655 262.531 222.294 267.372 205.743 265.202Z" fill="black"/>
<path d="M194.53 147.66L191.808 147.698C191.302 147.705 190.898 148.123 190.905 148.631L190.906 148.717C190.913 149.225 191.329 149.632 191.835 149.625L194.556 149.586C195.062 149.579 195.466 149.162 195.459 148.653L195.458 148.567C195.451 148.059 195.035 147.653 194.53 147.66Z" fill="#CCCCCD"/>
<path d="M247.576 147.783C264.763 157.727 276.558 172.299 282.959 191.498C283.418 192.855 283.163 194.781 283.639 195.849C287.625 204.865 286.86 218.556 285.517 228.465C285.455 228.903 285.075 229.341 284.379 229.778L284.183 228.15C284.143 227.812 283.956 227.639 283.622 227.634L281.625 227.59C282.809 219.869 282.923 212.326 281.965 204.962L281.846 194.352C281.841 194.02 281.679 193.827 281.362 193.774L279.577 193.512C273.363 173.927 261.152 159.265 242.945 149.525L247.576 147.783Z" fill="#01214D"/>
<path d="M228.71 167.784C225.985 167.928 223.424 167.325 221.027 165.977C221.702 165.359 222.128 164.682 222.306 163.945C222.405 163.539 222.336 163.174 222.098 162.849L218.244 157.643C218.127 157.485 217.968 157.374 217.79 157.329C217.613 157.283 217.428 157.305 217.264 157.39C216.156 157.952 215.32 158.863 214.756 160.124C214.708 160.236 214.63 160.327 214.533 160.384C214.437 160.442 214.326 160.464 214.218 160.446C214.11 160.428 214.009 160.372 213.931 160.286C213.853 160.199 213.801 160.087 213.784 159.965L212.588 152.474C212.567 152.347 212.575 152.216 212.61 152.094C212.644 151.971 212.705 151.861 212.787 151.772L213.41 151.098C213.549 150.946 213.714 150.828 213.894 150.75C214.074 150.672 214.267 150.636 214.46 150.644C214.653 150.652 214.843 150.704 215.018 150.796C215.193 150.888 215.349 151.02 215.478 151.182L228.71 167.784Z" fill="#01214D"/>
<path d="M275.211 194.44L267.617 194.501C260.869 177.735 249.225 165.983 232.684 159.246L229.659 150.643C245.971 155.324 258.65 164.568 267.694 178.376C270.574 182.776 273.079 188.13 275.211 194.44Z" fill="#01214D"/>
<path d="M193.849 153.73C196.422 153.012 198.236 154.001 199.29 156.695C197.792 157.706 195.131 159.5 194.052 157.007C193.522 155.779 193.455 154.687 193.849 153.73Z" fill="#01214D"/>
<path d="M151.432 239.259C152.405 239.046 152.803 238.816 152.628 238.568C151.118 236.429 149.962 234.524 149.159 232.852C149.085 230.863 148.785 228.938 148.259 227.076C147.643 224.868 147.301 223.153 147.233 221.931C145.763 194.791 156.072 173.661 178.162 158.541C179.112 157.895 180.062 157.492 181.012 157.33C181.289 157.284 181.529 157.359 181.733 157.555C183.141 158.921 184.063 160.567 184.498 162.492C184.569 162.803 184.542 163.128 184.42 163.42C184.298 163.713 184.087 163.957 183.82 164.118C171.91 171.278 163.438 181.193 158.405 193.863C149.396 216.57 155.631 243.133 173.335 259.467C183.95 269.255 196.829 274.395 211.974 274.885C212.136 274.891 212.289 274.961 212.402 275.078C212.514 275.196 212.577 275.353 212.576 275.516L212.551 281.024C212.551 281.34 212.427 281.644 212.206 281.868C211.985 282.091 211.685 282.217 211.372 282.217C203.579 282.234 195.851 280.643 188.188 277.444C170.578 270.1 158.326 257.372 151.432 239.259Z" fill="#01214D"/>
<path d="M232.506 158.271C249.581 165.194 261.602 177.271 268.568 194.501L262.764 194.411C259.207 185.874 253.86 178.517 246.723 172.34C245.497 171.275 244.27 170.624 243.043 170.39C243.084 169.523 242.887 168.74 242.45 168.042C242.279 167.771 242.037 167.638 241.725 167.644C238.805 167.689 236.628 168.204 235.142 164.989C234.122 162.774 233.243 160.534 232.506 158.271Z" fill="black"/>
<path d="M197.484 168.881L198.608 164.341L199.517 161.217C199.582 160.998 199.703 160.797 199.87 160.631C200.038 160.464 200.247 160.337 200.48 160.26C200.712 160.184 200.962 160.16 201.206 160.19C201.451 160.221 201.685 160.305 201.886 160.436C204.35 162.049 205.979 163.757 204.294 166.65C202.339 170.026 200.672 172.704 199.292 174.683C197.182 177.716 194.147 178.838 190.188 178.048C190.125 178.036 190.064 178.012 190.01 177.978C189.957 177.944 189.911 177.901 189.876 177.85C189.841 177.8 189.818 177.743 189.807 177.685C189.796 177.626 189.799 177.565 189.814 177.507C190.46 174.941 192.474 175.602 194.712 175.293C194.87 175.269 195.019 175.206 195.141 175.111C195.263 175.016 195.354 174.892 195.405 174.752L197.484 168.881Z" fill="#CCCCCD"/>
<path d="M198.341 163.112L197.353 167.879C197.441 167.501 197.446 167.212 197.369 167.014C197.346 166.951 197.312 166.893 197.269 166.844C197.226 166.795 197.174 166.756 197.117 166.729C197.061 166.702 197 166.688 196.938 166.687C196.877 166.687 196.816 166.7 196.759 166.726C188.937 170.126 182.428 175.071 177.232 181.56C174.837 184.552 172.082 188.866 168.967 194.501L166.075 194.312C166.416 190.431 168.196 186.3 171.415 181.92C177.127 174.152 184.378 168.204 193.167 164.076C195.035 163.199 196.759 162.877 198.341 163.112Z" fill="#01214D"/>
<path d="M242.102 171.619C243.335 171.841 244.569 172.455 245.802 173.463C252.975 179.303 258.35 186.259 261.925 194.33L258.038 194.501C254.333 187.329 249.252 181.284 242.796 176.366C242.606 176.224 242.446 176.175 242.316 176.221C242.144 176.289 242.037 176.46 241.996 176.733L242.102 171.619Z" fill="#01214D"/>
<path d="M318.253 192.681L321.364 192.594L329.249 193.343L334.21 194.596L337.815 196.198C341.947 198.531 344.714 202.248 346.118 207.349C346.214 207.685 346.089 207.854 345.743 207.854L330.536 207.88C328.456 208.124 327.382 208.063 325.575 206.731C321.824 203.968 317.901 204.053 313.803 206.983C313.07 207.505 312.758 207.926 312.866 208.245C312.991 208.609 313.221 208.929 313.53 209.166C313.838 209.404 314.211 209.55 314.605 209.586L331.184 211.17C338.557 211.867 348.402 215.618 346.024 224.863C344.683 230.074 341.637 233.878 336.886 236.275L333.315 237.868L328.567 238.851L320.435 239.313L317.742 239.295L310.488 238.668L307.385 237.963L300.463 234.978C296.952 232.558 294.642 229.128 293.534 224.689C293.448 224.34 293.582 224.166 293.934 224.166L302.381 224.149L312.388 224.245C312.69 224.245 312.945 224.349 313.156 224.558C314.985 226.357 317.008 227.239 319.225 227.204C322.532 227.465 324.987 226.459 326.589 224.184C326.686 224.046 326.747 223.886 326.765 223.717C326.784 223.549 326.759 223.378 326.694 223.222C326.629 223.066 326.525 222.93 326.393 222.827C326.262 222.724 326.106 222.658 325.942 222.634L319.387 221.746C313.874 221.526 308.422 220.861 303.029 219.753C295.724 218.038 290.942 212.276 294.377 204.616L296.5 200.986C299.54 196.86 304.225 194.332 310.556 193.404L318.253 192.681Z" fill="white"/>
<path d="M117.4 194.552L125.056 194.901L128.758 200.941L131.012 204.391L138.235 215.309L142.032 220.933L149.202 232.055C150.023 233.698 151.205 235.57 152.748 237.671C152.927 237.915 152.52 238.141 151.526 238.351L146.393 238.223L141.963 238.325L134.801 238.359L129.695 231.129L123.972 231.052L105.453 231.01L101.56 231.146L97.043 238.172L79.1566 238.07C78.7578 238.065 78.6653 237.898 78.8792 237.569L94.546 213.508L101.066 203.346L106.788 194.884C106.962 194.623 107.21 194.496 107.534 194.501L117.4 194.552ZM111.167 215.028L108.514 219.463C108.329 219.775 108.412 219.973 108.765 220.058C109.522 220.245 110.354 220.248 111.262 220.067L116.135 220.016L122.689 220.033C123.094 220.038 123.195 219.868 122.993 219.523L116.767 208.86L116.109 207.654C115.906 207.285 115.701 207.283 115.493 207.645L111.167 215.028Z" fill="white"/>
<path d="M164.576 194.501L167.606 194.679C177.068 194.645 186.449 194.679 195.749 194.781C205.616 194.891 220.369 196.054 221.923 208.583C223.486 221.206 211.97 224.455 201.602 225.456C197.268 225.875 190.253 225.979 180.555 225.77C180.222 225.764 180.055 225.926 180.055 226.254L180.072 237.91C180.072 238.209 179.919 238.359 179.614 238.359H161.9C161.595 238.359 161.443 238.212 161.443 237.918L161.374 227.492L161.33 205.427L161.46 195.265C161.466 194.937 161.633 194.758 161.961 194.73L164.576 194.501ZM180.072 205.869L180.055 214.64C180.055 214.71 180.083 214.777 180.133 214.826C180.183 214.875 180.251 214.903 180.322 214.903L195.326 214.929C196.38 214.931 197.424 214.834 198.399 214.644C199.373 214.454 200.258 214.174 201.004 213.821C201.75 213.468 202.341 213.049 202.744 212.587C203.148 212.124 203.355 211.629 203.354 211.128V209.448C203.353 208.439 202.509 207.471 201.007 206.755C199.505 206.039 197.468 205.635 195.343 205.631L180.34 205.606C180.269 205.606 180.201 205.633 180.15 205.683C180.1 205.732 180.072 205.799 180.072 205.869Z" fill="white"/>
<path d="M258.564 194.687L262.307 194.518L267.926 194.603L275.516 194.543L280.81 194.501L282.609 194.755C282.928 194.806 283.091 194.992 283.097 195.313L283.217 205.563L278.514 205.495L270.779 205.512L265.468 205.546L262.401 205.563L251.505 205.554C251.157 205.554 250.983 205.726 250.983 206.07L251 211.762C251 212.072 251.16 212.227 251.479 212.227L263.446 212.202L266.008 212.168L272.055 212.227L277.735 212.413C277.845 212.415 277.951 212.46 278.029 212.537C278.107 212.614 278.152 212.718 278.154 212.827L278.223 220.041C278.224 220.112 278.211 220.183 278.184 220.249C278.158 220.315 278.118 220.375 278.068 220.427C278.018 220.478 277.958 220.518 277.892 220.547C277.826 220.575 277.755 220.59 277.683 220.591L271.49 220.701L251.402 220.709C251.128 220.715 250.991 220.85 250.991 221.115V226.985C250.991 227.266 251.134 227.407 251.419 227.407L270.95 227.39H278.386L282.874 227.424L284.887 227.467C285.224 227.472 285.413 227.639 285.453 227.966L285.65 229.539L285.581 237.75C285.575 238.032 285.43 238.179 285.144 238.19L283.243 238.241L280.347 238.106L274.668 238.359L267.532 238.292L260.508 238.249L256.448 238.199L232.925 238.182C232.645 238.182 232.506 238.043 232.506 237.767V195.093C232.506 194.817 232.645 194.679 232.925 194.679L258.564 194.687Z" fill="white"/>
<path d="M161.276 204.035L161.33 227.871C160.563 225.525 159.061 223.528 158.82 221.145C158.469 217.779 158.393 214.406 158.59 211.028C158.754 208.059 158.338 206.262 161.276 204.035Z" fill="#01214D"/>
<path d="M179.378 204.331C179.378 204.253 179.406 204.178 179.455 204.122C179.504 204.067 179.571 204.035 179.64 204.035L194.306 204.064C196.383 204.068 198.375 204.523 199.843 205.328C201.311 206.133 202.136 207.223 202.137 208.358V210.248C202.138 210.811 201.935 211.369 201.541 211.889C201.147 212.408 200.569 212.88 199.84 213.277C199.111 213.675 198.246 213.989 197.293 214.203C196.341 214.417 195.32 214.525 194.289 214.523L179.623 214.495C179.554 214.495 179.487 214.463 179.438 214.408C179.389 214.352 179.361 214.277 179.361 214.199L179.378 204.331Z" fill="black"/>
<path d="M260.97 204.046C260.74 207.07 261.058 209.916 261.925 212.584L250.991 212.616C250.698 212.616 250.552 212.417 250.552 212.018L250.537 204.699C250.537 204.257 250.696 204.035 251.014 204.035L260.97 204.046Z" fill="black"/>
<path d="M265.55 204.035C266.794 207.321 267.001 210.167 266.172 212.573L263.22 212.616C262.127 209.941 261.726 207.088 262.016 204.057L265.55 204.035Z" fill="#01214D"/>
<path d="M265.721 204.079L269.546 204.035L270.466 212.616L266.109 212.541C266.628 210.156 266.498 207.335 265.721 204.079Z" fill="black"/>
<path d="M269.517 204.054L278.477 204.035C278.784 207.184 279.35 209.504 278.725 212.809C278.288 215.08 278.222 217.361 278.526 219.65C278.913 222.633 278.397 225.008 278.328 227.871H269.715L270.34 220.589L277.514 220.469C277.598 220.468 277.68 220.452 277.756 220.421C277.833 220.39 277.902 220.346 277.96 220.29C278.018 220.235 278.064 220.169 278.095 220.097C278.125 220.025 278.141 219.948 278.139 219.871L278.06 212.018C278.057 211.899 278.005 211.785 277.915 211.701C277.824 211.617 277.702 211.569 277.574 211.566L270.995 211.364L269.517 204.054Z" fill="#01214D"/>
<path d="M279.096 204.035L282.354 204.109C283.023 211.843 282.944 219.764 282.117 227.871L279.007 227.835C279.048 224.976 279.357 222.604 279.125 219.626C278.943 217.34 278.983 215.063 279.244 212.796C279.618 209.496 279.28 207.179 279.096 204.035Z" fill="black"/>
<path d="M332.429 208.239L333.1 212.616L315.941 210.509C315.534 210.461 315.147 210.267 314.828 209.951C314.509 209.634 314.271 209.209 314.141 208.725C314.029 208.301 314.353 207.741 315.112 207.046C319.352 203.147 323.413 203.035 327.295 206.71C329.165 208.482 330.277 208.563 332.429 208.239Z" fill="#01214D"/>
<path d="M115.778 209.299L115.007 209.855C114.801 210.005 114.672 210.215 114.618 210.486C114.011 213.711 114.219 216.947 115.242 220.194L111.114 220.244C112.035 218.009 112.008 216.369 111.033 215.323L114.699 208.113C114.875 207.759 115.049 207.761 115.22 208.121L115.778 209.299Z" fill="black"/>
<path d="M116.697 208.803L123.264 219.722C123.477 220.076 123.37 220.25 122.943 220.244L116.029 220.226C114.755 216.822 114.496 213.428 115.252 210.047C115.319 209.763 115.48 209.542 115.736 209.386L116.697 208.803Z" fill="#01214D"/>
<path d="M111.773 214.523C113.275 215.707 113.316 217.565 111.898 220.096C110.713 220.296 109.627 220.293 108.639 220.086C108.179 219.992 108.069 219.773 108.311 219.429L111.773 214.523Z" fill="#01214D"/>
<path d="M302.483 220.244C308.309 221.378 314.199 222.058 320.155 222.284C321.02 224.179 320.962 226.041 319.98 227.87C317.585 227.906 315.4 227.003 313.423 225.162C313.196 224.948 312.919 224.841 312.594 224.841L301.783 224.743L302.483 220.244Z" fill="#01214D"/>
<path d="M270.466 220.244L269.941 227.852L250.953 227.871C250.675 227.871 250.537 227.711 250.537 227.39V220.715C250.537 220.414 250.67 220.26 250.936 220.254L270.466 220.244Z" fill="black"/>
<path d="M319.956 221.197L325.726 222.275C325.871 222.304 326.008 222.384 326.124 222.509C326.24 222.634 326.331 222.799 326.389 222.989C326.446 223.178 326.468 223.385 326.452 223.589C326.435 223.794 326.382 223.989 326.297 224.156C324.886 226.917 322.725 228.139 319.814 227.822C320.614 225.653 320.662 223.444 319.956 221.197Z" fill="black"/>
<path d="M106.288 229.778L124.526 229.822C127.594 246.571 134.179 260.975 144.283 273.034C162.81 295.146 186.708 306.062 215.977 305.781C216.079 305.781 216.177 305.822 216.252 305.895C216.327 305.968 216.372 306.069 216.378 306.176L216.677 312.237C216.685 312.394 216.662 312.551 216.61 312.699C216.558 312.846 216.477 312.981 216.372 313.096C216.268 313.211 216.142 313.303 216.002 313.366C215.862 313.43 215.711 313.463 215.559 313.466C175.404 313.904 139.706 290.728 123.766 253.121C121.022 246.647 118.771 239.089 117.012 230.445C116.981 230.281 116.897 230.132 116.772 230.024C116.648 229.915 116.492 229.853 116.329 229.848L115.1 229.787C114.274 229.752 113.938 230.15 114.092 230.98C116.665 245.326 121.62 258.241 128.957 269.727C148.509 300.316 181.526 318.053 217.224 316.431C234.317 315.659 250.115 310.796 264.618 301.842C264.91 301.663 265.258 301.607 265.589 301.685C265.92 301.764 266.209 301.971 266.394 302.263L269.417 307.009C269.588 307.278 269.539 307.497 269.272 307.667C227.179 334.238 173.287 328.317 137.93 292.816C123.82 278.646 114.18 261.534 109.012 241.48C108.004 237.58 107.097 233.679 106.288 229.778Z" fill="#01214D"/>
<path d="M102.094 229.778L103.228 230.919C103.397 231.092 103.507 231.304 103.545 231.529C105.979 245.998 111.275 259.498 119.435 272.029C119.501 272.13 119.545 272.242 119.564 272.358C119.583 272.475 119.576 272.593 119.545 272.708C119.514 272.822 119.458 272.929 119.382 273.024C119.305 273.118 119.209 273.198 119.099 273.258L113.421 276.379C113.03 276.591 112.72 276.517 112.489 276.158C105.886 265.855 100.823 254.483 97.3002 242.041C96.7109 239.966 96.6405 238.316 97.0888 237.09L102.094 229.778Z" fill="#01214D"/>
<path d="M129.064 229.778L134.109 237.121C136.884 246.387 140.901 254.583 146.16 261.71C162.187 283.429 183.985 294.766 211.552 295.721C211.883 295.732 212.12 295.888 212.263 296.187C212.708 297.124 212.679 298.065 212.177 299.008C212.046 299.255 211.84 299.379 211.56 299.379C177.592 299.138 148.952 279.725 134.563 248.992C131.514 242.476 129.681 236.071 129.064 229.778Z" fill="#01214D"/>
<path d="M300.553 235.499L307.477 238.4C306.22 243.339 304.768 247.762 303.119 251.669C293.211 275.214 276.432 292.648 252.783 303.969C252.556 304.078 252.309 304.138 252.057 304.146C251.805 304.153 251.554 304.107 251.32 304.011C251.087 303.916 250.876 303.772 250.702 303.59C250.528 303.408 250.394 303.191 250.31 302.954L248.681 298.37C248.619 298.191 248.625 297.996 248.699 297.821C248.773 297.646 248.909 297.504 249.082 297.423C276.04 284.952 293.196 264.31 300.553 235.499Z" fill="#01214D"/>
<path d="M338.101 235.499C338.696 236.574 338.908 237.528 338.736 238.361C328.173 290.444 287.894 330.983 236.331 340.355C225.356 342.343 213.607 342.794 201.086 341.708C150.296 337.303 108.188 302.454 92.0682 254.587C90.9059 251.138 89.9641 247.71 89.2427 244.302C89.161 243.925 89.2175 243.532 89.402 243.193C89.5865 242.854 89.8866 242.593 90.2475 242.457C91.8191 241.87 92.5319 242.465 92.9184 243.991C106.951 299.781 156.342 338.82 213.942 339.061C219.868 339.079 226.369 337.984 232.57 337.242C238.169 336.564 244.393 335.081 251.24 332.793C281.256 322.741 306.29 301.868 321.68 274.322C327.789 263.384 332.063 250.969 334.502 237.077L338.101 235.499Z" fill="#01214D"/>
<path d="M294.158 239.229C290.28 251.357 284.892 261.743 276.794 270.933C262.536 287.121 244.582 296.602 222.935 299.374C222.842 299.385 222.748 299.377 222.659 299.351C222.57 299.325 222.487 299.282 222.416 299.223C222.346 299.165 222.288 299.092 222.247 299.011C222.206 298.93 222.183 298.841 222.18 298.751L222.068 296.846C222.052 296.541 222.152 296.241 222.347 296.006C222.543 295.77 222.819 295.616 223.123 295.574C255.647 291.252 280.792 268.243 290.803 237.922C290.929 237.547 291.192 237.376 291.593 237.41C292.508 237.49 293.306 237.863 293.986 238.529C294.077 238.619 294.141 238.732 294.171 238.855C294.201 238.979 294.197 239.108 294.158 239.229Z" fill="#01214D"/>
<path d="M141.401 238.649L145.748 238.547C145.987 239.646 146.174 241.112 146.625 242.118C156.833 265.081 173.791 279.183 197.498 284.422C209.033 286.962 221.343 286.51 232.317 282.871C254.555 275.512 270.016 260.675 278.699 238.359L281.574 238.496C281.886 239.303 281.937 239.999 281.727 240.584C265.972 285.138 212.402 303.831 172.376 278.31C157.715 268.968 147.39 255.748 141.401 238.649Z" fill="#01214D"/>
<path d="M256.231 238.359L259.871 238.403C260.204 239.497 260.002 240.363 259.265 241.003C259.07 241.172 258.842 241.242 258.581 241.213C257.096 241.044 256.313 240.092 256.231 238.359Z" fill="#01214D"/>
<path d="M267.615 238.359L275.211 238.43C270.481 250.537 262.833 260.532 252.268 268.412C250.669 269.608 248.988 270.69 247.225 271.657C247.101 271.727 246.954 271.747 246.814 271.714C246.675 271.681 246.554 271.598 246.477 271.481L243.112 266.415C243.038 266.305 242.987 266.181 242.962 266.051C242.937 265.921 242.939 265.788 242.968 265.658C242.997 265.529 243.052 265.407 243.13 265.298C243.208 265.19 243.307 265.097 243.422 265.026C252.787 259.186 259.982 251.622 265.025 242.106C265.694 240.851 266.557 239.602 267.615 238.359Z" fill="#01214D"/>
<path d="M311.259 238.359L318.865 238.98C312.942 262.851 300.319 282.615 280.996 298.272C280.929 298.327 280.851 298.369 280.767 298.395C280.682 298.421 280.594 298.431 280.506 298.423C280.418 298.416 280.332 298.392 280.254 298.353C280.175 298.314 280.105 298.26 280.049 298.195L276.474 294.076C276.246 293.815 276.134 293.476 276.164 293.135C276.195 292.795 276.364 292.479 276.635 292.259C291.09 280.409 301.433 265.843 307.666 248.56C308.875 245.211 310.073 241.811 311.259 238.359Z" fill="#01214D"/>
<path d="M327.406 238.359C320.959 268.677 305.969 292.811 282.435 310.759C235.504 346.559 171.084 341.569 129.263 299.598C129.201 299.535 129.151 299.46 129.117 299.378C129.083 299.296 129.065 299.208 129.064 299.119C129.064 299.031 129.08 298.943 129.113 298.861C129.145 298.779 129.193 298.705 129.255 298.643L133.355 294.451C133.509 294.294 133.718 294.206 133.935 294.204C134.152 294.203 134.362 294.288 134.518 294.442C166.796 326.893 214.135 336.084 255.701 318.023C260.88 315.778 265.883 313.087 270.711 309.951C294.698 294.382 310.661 272.271 318.602 243.619C319.026 242.1 319.052 240.442 319.307 238.819L327.406 238.359Z" fill="#01214D"/>
<path d="M205.462 263.82C221.629 265.901 235.657 261.257 247.546 249.888C247.639 249.799 247.753 249.736 247.877 249.704C248.002 249.672 248.132 249.672 248.256 249.705C249.353 249.982 250.097 250.646 250.485 251.698C250.592 251.986 250.533 252.232 250.308 252.437C245.252 257.103 240.411 260.529 235.784 262.715C213.855 273.102 187.375 267.597 171.922 249.174C171.828 249.063 171.774 248.925 171.77 248.782C171.765 248.639 171.81 248.499 171.897 248.385C172.713 247.295 173.521 246.821 174.32 246.965C174.748 247.043 175.362 247.516 176.161 248.385C184.262 257.197 194.028 262.342 205.462 263.82Z" fill="#01214D"/>
</svg>
